<svg width="41" height="35" viewBox="0 0 41 35" fill="none" xmlns="http://www.w3.org/2000/svg">
<g filter="url(#filter0_d)">
<rect x="2" y="2" width="37" height="31" rx="10" fill="#F6C33E"/>
<rect x="2.5" y="2.5" width="36" height="30" rx="9.5" stroke="#F9F9F9"/>
</g>
<path d="M22.1104 23.666V11.5184C22.1104 10.6798 21.4305 10 20.5919 10C19.7533 10 19.0735 10.6798 19.0735 11.5184V23.666C19.0735 24.5046 19.7533 25.1844 20.5919 25.1844C21.4305 25.1844 22.1104 24.5046 22.1104 23.666Z" fill="white"/>
<path d="M26.6659 16.0737H14.5184C13.6798 16.0737 13 16.7536 13 17.5922C13 18.4308 13.6798 19.1106 14.5184 19.1106H26.6659C27.5046 19.1106 28.1844 18.4308 28.1844 17.5922C28.1844 16.7536 27.5046 16.0737 26.6659 16.0737Z" fill="white"/>
<defs>
<filter id="filter0_d" x="0" y="0" width="41" height="35" filterUnits="userSpaceOnUse" color-interpolation-filters="sRGB">
<feFlood flood-opacity="0" result="BackgroundImageFix"/>
<feColorMatrix in="SourceAlpha" type="matrix" values="0 0 0 0 0 0 0 0 0 0 0 0 0 0 0 0 0 0 127 0"/>
<feOffset/>
<feGaussianBlur stdDeviation="1"/>
<feColorMatrix type="matrix" values="0 0 0 0 0 0 0 0 0 0 0 0 0 0 0 0 0 0 0.25 0"/>
<feBlend mode="normal" in2="BackgroundImageFix" result="effect1_dropShadow"/>
<feBlend mode="normal" in="SourceGraphic" in2="effect1_dropShadow" result="shape"/>
</filter>
</defs>
</svg>
