<svg width="23" height="25" viewBox="0 0 23 25" fill="none" xmlns="http://www.w3.org/2000/svg">
<path d="M22.483 7.66741C22.3191 7.50072 22.1239 7.36852 21.909 7.27848C21.694 7.18844 21.4635 7.14234 21.2308 7.14286H17.6923V6.25C17.6923 4.5924 17.0399 3.00268 15.8786 1.83058C14.7173 0.65848 13.1423 0 11.5 0C9.85769 0 8.28266 0.65848 7.12138 1.83058C5.96009 3.00268 5.30769 4.5924 5.30769 6.25V7.14286H1.76923C1.3 7.14286 0.84999 7.33099 0.518195 7.66588C0.1864 8.00077 0 8.45497 0 8.92857V20.9821C0 23.1585 1.82452 25 3.98077 25H19.0192C20.0622 25.0003 21.064 24.5887 21.8102 23.8532C22.1857 23.4916 22.4848 23.057 22.6892 22.5755C22.8937 22.094 22.9995 21.5757 23 21.0519V8.92857C23.0007 8.6943 22.9554 8.46221 22.8667 8.24573C22.7779 8.02926 22.6475 7.83269 22.483 7.66741ZM7.07692 6.25C7.07692 5.066 7.54292 3.93049 8.37241 3.09327C9.2019 2.25606 10.3269 1.78571 11.5 1.78571C12.6731 1.78571 13.7981 2.25606 14.6276 3.09327C15.4571 3.93049 15.9231 5.066 15.9231 6.25V7.14286H7.07692V6.25ZM17.6923 11.6071C17.6923 13.2647 17.0399 14.8545 15.8786 16.0266C14.7173 17.1987 13.1423 17.8571 11.5 17.8571C9.85769 17.8571 8.28266 17.1987 7.12138 16.0266C5.96009 14.8545 5.30769 13.2647 5.30769 11.6071V10.7143C5.30769 10.4775 5.40089 10.2504 5.56679 10.0829C5.73269 9.9155 5.95769 9.82143 6.19231 9.82143C6.42692 9.82143 6.65193 9.9155 6.81782 10.0829C6.98372 10.2504 7.07692 10.4775 7.07692 10.7143V11.6071C7.07692 12.7911 7.54292 13.9267 8.37241 14.7639C9.2019 15.6011 10.3269 16.0714 11.5 16.0714C12.6731 16.0714 13.7981 15.6011 14.6276 14.7639C15.4571 13.9267 15.9231 12.7911 15.9231 11.6071V10.7143C15.9231 10.4775 16.0163 10.2504 16.1822 10.0829C16.3481 9.9155 16.5731 9.82143 16.8077 9.82143C17.0423 9.82143 17.2673 9.9155 17.4332 10.0829C17.5991 10.2504 17.6923 10.4775 17.6923 10.7143V11.6071Z" fill="white"/>
</svg>
