<svg width="19" height="17" viewBox="0 0 19 17" fill="none" xmlns="http://www.w3.org/2000/svg">
<path d="M4.72822 2.03422C4.82242 1.94313 4.89628 1.83396 4.94515 1.71359C4.99402 1.59322 5.01684 1.46426 5.01217 1.33484C5.0075 1.20543 4.97543 1.07836 4.918 0.961655C4.86057 0.84495 4.77901 0.741138 4.67848 0.656764C4.17254 0.234847 3.52976 0.00210845 2.86462 0L2.7181 0.00394042H2.69659C1.17982 0.094136 -0.00313038 1.38139 6.22304e-06 2.93355C6.22304e-06 3.76545 0.358475 4.20592 0.641666 4.55838C0.721132 4.65692 0.820752 4.73818 0.934166 4.79699C1.04758 4.85579 1.1723 4.89084 1.30035 4.8999C1.312 4.8999 1.33172 4.90209 1.38997 4.90209C1.50516 4.90192 1.61912 4.87899 1.725 4.83467C1.83089 4.79035 1.9265 4.72556 2.00609 4.6442L4.72822 2.03422ZM15.9393 0.0048163L15.7928 0.000437936H15.7695C15.1038 0.00213169 14.4603 0.234896 13.9539 0.657202C13.8535 0.74157 13.772 0.845333 13.7147 0.961958C13.6574 1.07858 13.6253 1.20555 13.6207 1.33485C13.616 1.46416 13.6388 1.59301 13.6876 1.7133C13.7363 1.83359 13.8101 1.9427 13.9041 2.03378L16.6272 4.64551C16.7069 4.72717 16.8028 4.79216 16.909 4.83657C17.0152 4.88097 17.1295 4.90385 17.2451 4.90384C17.3024 4.90384 17.3221 4.90384 17.3347 4.90165C17.4627 4.89253 17.5873 4.85746 17.7006 4.79865C17.814 4.73985 17.9135 4.65862 17.9929 4.56013C18.2779 4.20767 18.6328 3.76851 18.6346 2.9353C18.6373 1.38139 17.4543 0.0941362 15.9393 0.0048163Z" fill="#F6C33E"/>
<path d="M9.31712 1.30762C4.90687 1.30762 1.31503 4.82558 1.31503 9.15007C1.31347 10.9836 1.97033 12.7592 3.17051 14.1657L1.52827 15.7756C1.45911 15.8415 1.404 15.9201 1.36614 16.0071C1.32829 16.094 1.30844 16.1874 1.30776 16.2819C1.30707 16.3764 1.32557 16.4701 1.36216 16.5575C1.39876 16.645 1.45272 16.7244 1.52092 16.7912C1.58912 16.858 1.67019 16.9109 1.75942 16.9467C1.84865 16.9825 1.94425 17.0006 2.04068 16.9999C2.1371 16.9992 2.23242 16.9797 2.32109 16.9425C2.40976 16.9054 2.49001 16.8514 2.55717 16.7835L4.19942 15.1741C5.63533 16.349 7.44654 16.9926 9.31712 16.9926C11.1877 16.9926 12.9989 16.349 14.4348 15.1741L16.0775 16.7835C16.1447 16.8514 16.2249 16.9054 16.3136 16.9425C16.4023 16.9797 16.4976 16.9992 16.594 16.9999C16.6904 17.0006 16.786 16.9825 16.8753 16.9467C16.9645 16.9109 17.0456 16.858 17.1138 16.7912C17.182 16.7244 17.2359 16.645 17.2725 16.5575C17.3091 16.4701 17.3276 16.3764 17.3269 16.2819C17.3262 16.1874 17.3064 16.094 17.2685 16.0071C17.2307 15.9201 17.1756 15.8415 17.1064 15.7756L15.4637 14.1657C16.6641 12.7593 17.321 10.9836 17.3192 9.15007C17.3192 4.82781 13.7296 1.30762 9.31712 1.30762ZM10.0446 9.15007C10.0446 9.33916 9.96793 9.5205 9.83151 9.65421C9.69508 9.78791 9.51005 9.86302 9.31712 9.86302H5.6798C5.48687 9.86302 5.30183 9.78791 5.16541 9.65421C5.02898 9.5205 4.95234 9.33916 4.95234 9.15007C4.95234 8.96099 5.02898 8.77965 5.16541 8.64594C5.30183 8.51224 5.48687 8.43712 5.6798 8.43712H8.58965V4.15942C8.58965 3.97033 8.6663 3.78899 8.80272 3.65529C8.93915 3.52158 9.12418 3.44647 9.31712 3.44647C9.51005 3.44647 9.69508 3.52158 9.83151 3.65529C9.96793 3.78899 10.0446 3.97033 10.0446 4.15942V9.15007Z" fill="#F6C33E"/>
</svg>
