<svg width="19" height="19" viewBox="0 0 19 19" fill="none" xmlns="http://www.w3.org/2000/svg">
<path d="M9.5 0C4.25521 0 0 4.25521 0 9.5C0 14.7448 4.25521 19 9.5 19C14.7448 19 19 14.7448 19 9.5C19 4.25521 14.7448 0 9.5 0ZM9.20312 15.0417C9.0074 15.0417 8.81608 14.9836 8.65334 14.8749C8.49061 14.7662 8.36377 14.6116 8.28887 14.4308C8.21397 14.25 8.19437 14.051 8.23256 13.859C8.27074 13.6671 8.36499 13.4907 8.50338 13.3523C8.64178 13.2139 8.81811 13.1197 9.01007 13.0815C9.20203 13.0433 9.401 13.0629 9.58182 13.1378C9.76264 13.2127 9.9172 13.3396 10.0259 13.5023C10.1347 13.665 10.1927 13.8564 10.1927 14.0521C10.1927 14.3145 10.0885 14.5662 9.90287 14.7518C9.71728 14.9374 9.46558 15.0417 9.20312 15.0417ZM10.8577 9.99479C10.0557 10.5331 9.94531 11.0264 9.94531 11.4792C9.94531 11.6629 9.87233 11.8391 9.74242 11.969C9.61252 12.0989 9.43632 12.1719 9.2526 12.1719C9.06889 12.1719 8.89269 12.0989 8.76279 11.969C8.63288 11.8391 8.5599 11.6629 8.5599 11.4792C8.5599 10.3951 9.05865 9.53315 10.0848 8.84391C11.0388 8.20365 11.5781 7.79792 11.5781 6.90581C11.5781 6.29919 11.2318 5.83854 10.5148 5.49763C10.3461 5.41747 9.97055 5.3393 9.50841 5.34474C8.92852 5.35216 8.47826 5.4907 8.13141 5.76977C7.47729 6.29622 7.42188 6.86919 7.42188 6.8776C7.41749 6.96857 7.39523 7.05779 7.35636 7.14015C7.3175 7.22251 7.26279 7.29642 7.19537 7.35764C7.12794 7.41886 7.04912 7.46621 6.9634 7.49697C6.87768 7.52773 6.78674 7.5413 6.69577 7.53691C6.6048 7.53253 6.51559 7.51027 6.43322 7.4714C6.35086 7.43254 6.27695 7.37783 6.21573 7.31041C6.15451 7.24298 6.10717 7.16416 6.07641 7.07844C6.04565 6.99272 6.03207 6.90177 6.03646 6.81081C6.0419 6.69057 6.12552 5.60747 7.26206 4.6931C7.85135 4.21909 8.60096 3.97268 9.48862 3.9618C10.117 3.95438 10.7073 4.06076 11.1076 4.24977C12.3055 4.8163 12.9635 5.76086 12.9635 6.90581C12.9635 8.57969 11.8448 9.33128 10.8577 9.99479Z" fill="#E0E0E0"/>
</svg>
