<svg width="20" height="16" viewBox="0 0 20 16" fill="none" xmlns="http://www.w3.org/2000/svg">
<path d="M5.38471 8C5.38471 7.80712 5.46576 7.62213 5.61002 7.48574C5.75428 7.34935 5.94994 7.27273 6.15396 7.27273H13.0772V2.54545C13.0772 1.09091 11.4526 0 10.0002 0H2.69236C1.97853 0.000721921 1.29417 0.269135 0.789416 0.746344C0.284667 1.22355 0.000763584 1.87058 0 2.54545V13.4545C0.000763584 14.1294 0.284667 14.7764 0.789416 15.2537C1.29417 15.7309 1.97853 15.9993 2.69236 16H10.3848C11.0986 15.9993 11.783 15.7309 12.2877 15.2537C12.7925 14.7764 13.0764 14.1294 13.0772 13.4545V8.72727H6.15396C5.94994 8.72727 5.75428 8.65065 5.61002 8.51426C5.46576 8.37787 5.38471 8.19289 5.38471 8ZM19.7749 7.48591L15.9286 3.84955C15.7832 3.71891 15.5896 3.64716 15.389 3.64959C15.1884 3.65202 14.9967 3.72843 14.8549 3.86254C14.713 3.99665 14.6322 4.17785 14.6296 4.36749C14.6271 4.55714 14.703 4.74023 14.8411 4.87773L17.3739 7.27273H13.0772V8.72727H17.3739L14.8411 11.1223C14.7667 11.1891 14.7072 11.2694 14.6661 11.3584C14.625 11.4473 14.6031 11.5432 14.6018 11.6402C14.6005 11.7373 14.6197 11.8336 14.6584 11.9235C14.6971 12.0135 14.7544 12.0951 14.827 12.1638C14.8996 12.2324 14.986 12.2866 15.0811 12.3232C15.1763 12.3598 15.2781 12.378 15.3808 12.3767C15.4835 12.3755 15.5848 12.3548 15.6789 12.316C15.773 12.2771 15.8579 12.2208 15.9286 12.1505L19.7749 8.51409C19.919 8.37772 20 8.1928 20 8C20 7.8072 19.919 7.62229 19.7749 7.48591Z" fill="#E0E0E0"/>
</svg>
