<svg width="21" height="21" viewBox="0 0 21 21" fill="none" xmlns="http://www.w3.org/2000/svg">
<path d="M13.7648 0C13.5961 0 13.4525 0.119842 13.4217 0.285742L13.2672 1.10879C13.2273 1.32229 13.0582 1.48168 12.8447 1.52578C12.6459 1.56708 12.45 1.61867 12.2596 1.68027C12.0531 1.74747 11.8281 1.69438 11.6867 1.52988L11.1439 0.895508C11.034 0.767408 10.8486 0.73698 10.7023 0.82168L10.2977 1.05547C10.1521 1.13947 10.0858 1.3163 10.1418 1.4752L10.4193 2.26406C10.4914 2.46846 10.4252 2.69065 10.2635 2.83555C10.113 2.97065 9.97065 3.11298 9.83555 3.26348C9.69065 3.42518 9.46846 3.4928 9.26406 3.4207L8.47383 3.1418C8.31493 3.0858 8.13947 3.15136 8.05547 3.29766L7.82031 3.70371C7.73631 3.84931 7.76811 4.03541 7.89551 4.14531L7.96387 4.2041C8.79197 4.2181 9.50041 4.81044 9.65371 5.62734L9.69609 5.8502L9.84238 5.67793C10.1637 5.30413 10.6135 5.10087 11.0783 5.07637C11.7055 4.12787 12.7785 3.5 14 3.5C15.9327 3.5 17.5 5.0673 17.5 7C17.5 8.2215 16.8721 9.29451 15.9236 9.92031C15.8991 10.3851 15.6959 10.8356 15.3221 11.1562L15.1498 11.3025L15.3727 11.3449C16.1896 11.4982 16.7819 12.2067 16.7959 13.0348L16.8547 13.1031C16.9646 13.2312 17.15 13.263 17.2963 13.1783L17.7023 12.9432C17.8479 12.8592 17.9142 12.6837 17.8582 12.5248L17.5793 11.7346C17.5072 11.5302 17.5748 11.308 17.7365 11.1631C17.887 11.028 18.0294 10.8857 18.1645 10.7352C18.3094 10.5735 18.5315 10.5072 18.7359 10.5793L19.5248 10.8568C19.6837 10.9128 19.8605 10.8473 19.9445 10.701L20.1783 10.2949C20.2623 10.1493 20.2319 9.96459 20.1045 9.85469L19.4701 9.31055C19.3056 9.16915 19.2525 8.94419 19.3197 8.73769C19.3813 8.5473 19.4329 8.35271 19.4742 8.15391C19.5183 7.94111 19.6777 7.77205 19.8912 7.73145L20.7143 7.57559C20.8802 7.54689 21 7.40386 21 7.23516V6.76484C21 6.59614 20.8802 6.45248 20.7143 6.42168L19.8912 6.26719C19.6777 6.22729 19.5183 6.05823 19.4742 5.84473C19.4329 5.64593 19.3813 5.44997 19.3197 5.25957C19.2525 5.05307 19.3056 4.82812 19.4701 4.68672L20.1045 4.14395C20.2326 4.03405 20.263 3.84864 20.1783 3.70234L19.9445 3.29766C19.8605 3.15206 19.6837 3.0858 19.5248 3.1418L18.7359 3.41934C18.5315 3.49144 18.3094 3.42518 18.1645 3.26348C18.0294 3.11298 17.887 2.97065 17.7365 2.83555C17.5748 2.69065 17.5072 2.46846 17.5793 2.26406L17.8582 1.47383C17.9142 1.31493 17.8486 1.13947 17.7023 1.05547L17.2963 0.820312C17.1507 0.736313 16.9646 0.768108 16.8547 0.895508L16.3119 1.52988C16.1705 1.69438 15.9456 1.74747 15.7391 1.68027C15.5487 1.61867 15.3527 1.56708 15.1539 1.52578C14.9411 1.48168 14.772 1.32092 14.7314 1.10742L14.577 0.284375C14.5476 0.119175 14.4039 0 14.2352 0H13.7648ZM7.46484 5.6C7.29614 5.6 7.15248 5.71917 7.12168 5.88438L6.9918 6.57617C6.9379 6.86387 6.70868 7.07588 6.42168 7.13398C6.18298 7.18228 5.94851 7.24365 5.72031 7.31855C5.44311 7.40955 5.13892 7.34151 4.94922 7.12031L4.49395 6.58848C4.38405 6.46108 4.19794 6.43065 4.05234 6.51465L3.64766 6.74844C3.50136 6.83244 3.4358 7.00926 3.4918 7.16816L3.72695 7.83398C3.82355 8.10978 3.73137 8.40638 3.51367 8.60098C3.33377 8.76198 3.16264 8.9324 3.00234 9.1123C2.80774 9.33 2.51115 9.42219 2.23535 9.32559L1.56816 9.0918C1.40926 9.0358 1.2338 9.10206 1.1498 9.24766L0.914648 9.65234C0.829948 9.79864 0.861744 9.98405 0.989844 10.0939L1.52168 10.5492C1.74288 10.7389 1.81092 11.0431 1.71992 11.3203C1.64502 11.5485 1.58365 11.783 1.53535 12.0217C1.47725 12.3087 1.26524 12.5379 0.977539 12.5918L0.285742 12.7217C0.119842 12.7525 0 12.8961 0 13.0648V13.5352C0 13.7039 0.119175 13.8475 0.284375 13.8783L0.976172 14.0082C1.26387 14.0621 1.47588 14.2913 1.53398 14.5783C1.58228 14.8177 1.64365 15.0515 1.71855 15.2797C1.80955 15.5569 1.74151 15.8611 1.52031 16.0508L0.988477 16.5061C0.861077 16.616 0.830648 16.8021 0.914648 16.9477L1.14844 17.3523C1.23244 17.4986 1.40926 17.5642 1.56816 17.5082L2.23398 17.273C2.50978 17.1764 2.80638 17.2686 3.00098 17.4863C3.16198 17.6662 3.3324 17.8374 3.5123 17.9977C3.73 18.1923 3.82219 18.4888 3.72559 18.7646L3.4918 19.4318C3.4358 19.5907 3.50206 19.7662 3.64766 19.8502L4.05234 20.0854C4.19864 20.1701 4.38405 20.1383 4.49395 20.0102L4.94922 19.4783C5.13892 19.2571 5.44311 19.1891 5.72031 19.2801C5.94851 19.355 6.18298 19.4163 6.42168 19.4646C6.70868 19.5227 6.9379 19.7348 6.9918 20.0225L7.12168 20.7143C7.15248 20.8802 7.29614 21 7.46484 21H7.93516C8.10386 21 8.24755 20.8801 8.27695 20.7156L8.40684 20.0238C8.46074 19.7361 8.68995 19.5241 8.97695 19.466C9.21635 19.4177 9.45012 19.3563 9.67832 19.2814C9.95552 19.1904 10.2597 19.2585 10.4494 19.4797L10.9047 20.0115C11.0146 20.1389 11.1993 20.1707 11.3449 20.0867L11.751 19.8516C11.8973 19.7676 11.9628 19.5921 11.9068 19.4332L11.673 18.766C11.5764 18.4902 11.6686 18.1936 11.8863 17.999C12.0662 17.838 12.2374 17.6676 12.3977 17.4877C12.5923 17.27 12.8895 17.1778 13.1646 17.2744L13.8318 17.5082C13.9907 17.5642 14.1662 17.4979 14.2502 17.3523L14.4854 16.9477C14.5701 16.8014 14.5383 16.616 14.4102 16.5061L13.8783 16.0508C13.6571 15.8611 13.5891 15.5569 13.6801 15.2797C13.755 15.0515 13.8163 14.817 13.8646 14.5783C13.9227 14.2913 14.1348 14.0621 14.4225 14.0082L15.1143 13.8783C15.2802 13.8475 15.4 13.7039 15.4 13.5352V13.0648C15.4 12.8961 15.2801 12.7531 15.1156 12.723L14.4238 12.5932C14.1361 12.5393 13.9241 12.3087 13.866 12.0217C13.8177 11.783 13.7563 11.5485 13.6814 11.3203C13.5904 11.0431 13.6585 10.7403 13.8797 10.5506L14.4115 10.0953C14.5389 9.98541 14.5707 9.79931 14.4867 9.65371L14.2516 9.24766C14.1676 9.10136 13.9921 9.0358 13.8332 9.0918L13.166 9.32695C12.8902 9.42355 12.5936 9.33137 12.399 9.11367C12.238 8.93377 12.0676 8.76264 11.8877 8.60234C11.67 8.40774 11.5778 8.11115 11.6744 7.83535L11.9082 7.16816C11.9642 7.00926 11.8979 6.8338 11.7523 6.7498L11.3477 6.51465C11.2014 6.42995 11.016 6.46174 10.9061 6.58984L10.4508 7.12168C10.2611 7.34288 9.95689 7.41092 9.67969 7.31992C9.45149 7.24502 9.21702 7.18365 8.97832 7.13535C8.69132 7.07725 8.4621 6.86524 8.4082 6.57754L8.27832 5.88574C8.24752 5.71984 8.10386 5.6 7.93516 5.6H7.46484ZM14 6.3C13.8143 6.3 13.6363 6.37375 13.505 6.50503C13.3737 6.6363 13.3 6.81435 13.3 7C13.3 7.18565 13.3737 7.3637 13.505 7.49497C13.6363 7.62625 13.8143 7.7 14 7.7C14.1857 7.7 14.3637 7.62625 14.495 7.49497C14.6263 7.3637 14.7 7.18565 14.7 7C14.7 6.81435 14.6263 6.6363 14.495 6.50503C14.3637 6.37375 14.1857 6.3 14 6.3ZM7.7 9.1C10.0198 9.1 11.9 10.9802 11.9 13.3C11.9 15.6198 10.0198 17.5 7.7 17.5C5.3802 17.5 3.5 15.6198 3.5 13.3C3.5 10.9802 5.3802 9.1 7.7 9.1ZM7.7 11.9C6.9265 11.9 6.3 12.5265 6.3 13.3C6.3 14.0735 6.9265 14.7 7.7 14.7C8.4735 14.7 9.1 14.0735 9.1 13.3C9.1 12.5265 8.4735 11.9 7.7 11.9Z" fill="#E0E0E0"/>
</svg>
