<svg width="19" height="21" viewBox="0 0 19 21" fill="none" xmlns="http://www.w3.org/2000/svg">
<path d="M9.5 10.5C10.5117 10.5 11.5007 10.1921 12.342 9.61522C13.1832 9.03834 13.8388 8.2184 14.226 7.25909C14.6132 6.29978 14.7145 5.24418 14.5171 4.22578C14.3197 3.20738 13.8325 2.27192 13.1171 1.53769C12.4017 0.803466 11.4902 0.303452 10.498 0.10088C9.50568 -0.101693 8.47714 0.00227474 7.54243 0.399635C6.60771 0.796995 5.8088 1.4699 5.24671 2.33326C4.68463 3.19662 4.38462 4.21165 4.38462 5.25C4.38462 6.64239 4.92356 7.97775 5.88288 8.96231C6.8422 9.94688 8.14332 10.5 9.5 10.5ZM9.5 12C6.32937 12 0 14.01 0 18V21H19V18C19 14.01 12.6706 12 9.5 12Z" fill="#E0E0E0"/>
</svg>
