<svg width="19" height="17" viewBox="0 0 19 17" fill="none" xmlns="http://www.w3.org/2000/svg">
<path d="M2.71429 2.37422H16.2857C16.4442 2.37415 16.6026 2.38421 16.7599 2.40433C16.7066 2.03018 16.578 1.67069 16.3821 1.34754C16.1861 1.02439 15.9267 0.744285 15.6195 0.5241C15.3123 0.303916 14.9637 0.148217 14.5948 0.0663914C14.2258 -0.0154343 13.8441 -0.0216919 13.4726 0.0479956L2.31138 1.95351H2.29866C1.59807 2.08748 0.975049 2.48387 0.556853 3.0617C1.1869 2.61356 1.94111 2.37322 2.71429 2.37422ZM16.2857 3.39208H2.71429C1.99465 3.39287 1.30472 3.67909 0.795864 4.18794C0.287007 4.6968 0.000785809 5.38673 0 6.10637V14.2492C0.000785809 14.9689 0.287007 15.6588 0.795864 16.1676C1.30472 16.6765 1.99465 16.9627 2.71429 16.9635H16.2857C17.0053 16.9627 17.6953 16.6765 18.2041 16.1676C18.713 15.6588 18.9992 14.9689 19 14.2492V6.10637C18.9992 5.38673 18.713 4.6968 18.2041 4.18794C17.6953 3.67909 17.0053 3.39287 16.2857 3.39208ZM14.2712 11.5349C14.0028 11.5349 13.7404 11.4553 13.5172 11.3062C13.294 11.1571 13.1201 10.9451 13.0174 10.6972C12.9146 10.4492 12.8878 10.1763 12.9401 9.91303C12.9925 9.64977 13.1218 9.40795 13.3116 9.21815C13.5014 9.02835 13.7432 8.8991 14.0064 8.84673C14.2697 8.79436 14.5426 8.82124 14.7906 8.92396C15.0385 9.02668 15.2505 9.20063 15.3996 9.42381C15.5488 9.64699 15.6283 9.90938 15.6283 10.1778C15.6283 10.5377 15.4854 10.8829 15.2308 11.1374C14.9763 11.392 14.6311 11.5349 14.2712 11.5349Z" fill="#E0E0E0"/>
</svg>
