<svg width="19" height="19" viewBox="0 0 19 19" fill="none" xmlns="http://www.w3.org/2000/svg">
<path d="M9.5 0C4.26175 0 0 4.26175 0 9.5C0 14.7382 4.26175 19 9.5 19C14.7382 19 19 14.7382 19 9.5C19 4.26175 14.7382 0 9.5 0ZM9.5 14.6113C9.31933 14.6113 9.14273 14.5577 8.99251 14.4573C8.84229 14.357 8.72521 14.2143 8.65607 14.0474C8.58693 13.8805 8.56884 13.6968 8.60409 13.5196C8.63934 13.3424 8.72634 13.1796 8.85408 13.0519C8.98183 12.9241 9.1446 12.8371 9.32179 12.8019C9.49899 12.7667 9.68265 12.7847 9.84957 12.8539C10.0165 12.923 10.1591 13.0401 10.2595 13.1903C10.3599 13.3405 10.4135 13.5171 10.4135 13.6978C10.4135 13.9401 10.3172 14.1724 10.1459 14.3437C9.97461 14.515 9.74226 14.6113 9.5 14.6113ZM10.492 5.42413L10.2299 10.9963C10.2299 11.1901 10.1529 11.3759 10.0158 11.513C9.87877 11.65 9.6929 11.727 9.49909 11.727C9.30527 11.727 9.1194 11.65 8.98235 11.513C8.84531 11.3759 8.76832 11.1901 8.76832 10.9963L8.50615 5.42688V5.42459C8.50041 5.29074 8.52181 5.1571 8.56907 5.03174C8.61634 4.90637 8.68848 4.79187 8.78117 4.69512C8.87385 4.59837 8.98515 4.52138 9.10838 4.46879C9.2316 4.41619 9.36419 4.38908 9.49817 4.38908C9.63215 4.38908 9.76474 4.41619 9.88797 4.46879C10.0112 4.52138 10.1225 4.59837 10.2152 4.69512C10.3079 4.79187 10.38 4.90637 10.4273 5.03174C10.4745 5.1571 10.4959 5.29074 10.4902 5.42459L10.492 5.42413Z" fill="#E0E0E0"/>
</svg>
