<svg width="35" height="35" viewBox="0 0 35 35" fill="none" xmlns="http://www.w3.org/2000/svg">
<path d="M32.3643 34.4001H3.14876C1.98014 34.4001 1 33.4199 1 32.2513V6.61701C1 5.44839 1.98014 4.46826 3.14876 4.46826H32.3643C33.5329 4.46826 34.5131 5.44839 34.5131 6.61701V32.2513C34.5131 33.4576 33.5329 34.4001 32.3643 34.4001ZM3.14876 5.03372C2.28172 5.03372 1.56546 5.74997 1.56546 6.61701V32.2513C1.56546 33.1184 2.28172 33.8346 3.14876 33.8346H32.3643C33.2314 33.8346 33.9476 33.1184 33.9476 32.2513V6.61701C33.9476 5.74997 33.2314 5.03372 32.3643 5.03372H3.14876Z" fill="white" stroke="white" stroke-width="0.75" stroke-miterlimit="10"/>
<path d="M34.2492 12.0454H1.3016C1.15081 12.0454 1.03772 11.9323 1.03772 11.7815V6.65461C1.03772 5.48599 2.01786 4.50586 3.18648 4.50586H32.402C33.5707 4.50586 34.5508 5.48599 34.5508 6.65461V11.7815C34.5131 11.8946 34.4 12.0454 34.2492 12.0454ZM1.56549 11.4799H33.9853V6.61691C33.9853 5.74987 33.2691 5.03362 32.402 5.03362H3.18648C2.31944 5.03362 1.60318 5.74987 1.60318 6.61691V11.4799H1.56549Z" fill="white" stroke="white" stroke-width="0.75" stroke-miterlimit="10"/>
<path d="M4.73208 7.93634C4.58129 7.93634 4.4682 7.82325 4.4682 7.67246C4.4682 7.52167 4.58129 7.40858 4.73208 7.40858C5.22215 7.40858 5.8253 6.16456 5.8253 4.46818C5.8253 2.80948 5.25984 1.52776 4.73208 1.52776C4.24201 1.52776 3.63885 2.77179 3.63885 4.46818C3.63885 4.61897 3.52576 4.73205 3.37497 4.73205C3.22418 4.73205 3.11108 4.61897 3.11108 4.46818C3.11108 2.47021 3.82734 1 4.73208 1C5.67452 1 6.35307 2.5079 6.35307 4.46818C6.35307 6.46614 5.67452 7.93634 4.73208 7.93634Z" fill="white" stroke="white" stroke-width="0.75" stroke-miterlimit="10"/>
<path d="M11.2537 7.93634C11.103 7.93634 10.9899 7.82325 10.9899 7.67246C10.9899 7.52167 11.103 7.40858 11.2537 7.40858C11.7438 7.40858 12.347 6.16456 12.347 4.46818C12.347 2.80948 11.7815 1.52776 11.2537 1.52776C10.726 1.52776 10.1605 2.77179 10.1605 4.46818C10.1605 4.61897 10.0474 4.73205 9.89663 4.73205C9.74584 4.73205 9.63275 4.61897 9.63275 4.46818C9.63275 2.47021 10.349 1 11.2537 1C12.1962 1 12.8747 2.5079 12.8747 4.46818C12.8747 6.46614 12.1585 7.93634 11.2537 7.93634Z" fill="white" stroke="white" stroke-width="0.75" stroke-miterlimit="10"/>
<path d="M17.7377 7.93634C17.5869 7.93634 17.4738 7.82325 17.4738 7.67246C17.4738 7.52167 17.5869 7.40858 17.7377 7.40858C18.2278 7.40858 18.8309 6.16456 18.8309 4.46818C18.8309 2.80948 18.2655 1.52776 17.7377 1.52776C17.2476 1.52776 16.6445 2.77179 16.6445 4.46818C16.6445 4.61897 16.5314 4.73205 16.3806 4.73205C16.2298 4.73205 16.1167 4.61897 16.1167 4.46818C16.1167 2.47021 16.833 1 17.7377 1C18.6801 1 19.3587 2.5079 19.3587 4.46818C19.3964 6.46614 18.6801 7.93634 17.7377 7.93634Z" fill="white" stroke="white" stroke-width="0.75" stroke-miterlimit="10"/>
<path d="M24.2594 7.93634C24.1086 7.93634 23.9955 7.82325 23.9955 7.67246C23.9955 7.52167 24.1086 7.40858 24.2594 7.40858C24.7494 7.40858 25.3526 6.16456 25.3526 4.46818C25.3526 2.80948 24.7871 1.52776 24.2594 1.52776C23.7693 1.52776 23.1661 2.77179 23.1661 4.46818C23.1661 4.61897 23.053 4.73205 22.9022 4.73205C22.7515 4.73205 22.6384 4.61897 22.6384 4.46818C22.6384 2.47021 23.3546 1 24.2594 1C25.2018 1 25.8804 2.5079 25.8804 4.46818C25.8804 6.46614 25.2018 7.93634 24.2594 7.93634Z" fill="white" stroke="white" stroke-width="0.75" stroke-miterlimit="10"/>
<path d="M30.781 7.93634C30.6302 7.93634 30.5171 7.82325 30.5171 7.67246C30.5171 7.52167 30.6302 7.40858 30.781 7.40858C31.2711 7.40858 31.8743 6.16456 31.8743 4.46818C31.8743 2.80948 31.3088 1.52776 30.781 1.52776C30.291 1.52776 29.6878 2.77179 29.6878 4.46818C29.6878 4.61897 29.5747 4.73205 29.4239 4.73205C29.2731 4.73205 29.16 4.61897 29.16 4.46818C29.16 2.47021 29.8763 1 30.781 1C31.7235 1 32.402 2.5079 32.402 4.46818C32.402 6.46614 31.6858 7.93634 30.781 7.93634Z" fill="white" stroke="white" stroke-width="0.75" stroke-miterlimit="10"/>
<path d="M19.2456 28.67H16.3052C16.1544 28.67 16.0413 28.5569 16.0413 28.4061V22.1106H12.0077C11.8569 22.1106 11.7438 21.9975 11.7438 21.8467V18.9063C11.7438 18.7555 11.8569 18.6425 12.0077 18.6425H16.0413V16.833C16.0413 16.6822 16.1544 16.5691 16.3052 16.5691H19.2456C19.3964 16.5691 19.5095 16.6822 19.5095 16.833V18.6425H23.5431C23.6939 18.6425 23.807 18.7555 23.807 18.9063V21.8467C23.807 21.9975 23.6939 22.1106 23.5431 22.1106H19.5095V28.4061C19.5095 28.5192 19.3964 28.67 19.2456 28.67ZM16.5691 28.1045H18.9817V21.809C18.9817 21.6583 19.0948 21.5452 19.2456 21.5452H23.2792V19.1325H19.2456C19.0948 19.1325 18.9817 19.0194 18.9817 18.8686V17.0592H16.5691V18.8686C16.5691 19.0194 16.456 19.1325 16.3052 19.1325H12.2715V21.5452H16.3052C16.456 21.5452 16.5691 21.6583 16.5691 21.809V28.1045Z" fill="white" stroke="white" stroke-width="0.75" stroke-miterlimit="10"/>
<path d="M23.43 28.6699H12.0831C11.9323 28.6699 11.8192 28.5568 11.8192 28.406C11.8192 28.2552 11.9323 28.1421 12.0831 28.1421H23.43C23.5808 28.1421 23.6939 28.2552 23.6939 28.406C23.6939 28.5191 23.5808 28.6699 23.43 28.6699Z" fill="white" stroke="white" stroke-width="0.75" stroke-miterlimit="10"/>
<path d="M21.5451 30.7058H13.9679C13.8171 30.7058 13.704 30.5927 13.704 30.4419C13.704 30.2911 13.8171 30.178 13.9679 30.178H21.5451C21.6959 30.178 21.809 30.2911 21.809 30.4419C21.809 30.5927 21.6959 30.7058 21.5451 30.7058Z" fill="white" stroke="white" stroke-width="0.75" stroke-miterlimit="10"/>
</svg>
