<svg width="27" height="49" viewBox="0 0 27 49" fill="none" xmlns="http://www.w3.org/2000/svg">
<path d="M7.43673 13.208C9.89074 13.208 11.9022 11.2001 11.9022 8.75046C11.9022 6.50162 8.40224 1.80316 8.04017 1.2811C7.91949 1.12047 7.67811 1 7.47696 1C7.23558 1 7.03443 1.12047 6.91374 1.2811C6.51145 1.80316 3.05169 6.50162 3.05169 8.75046C3.01146 11.2001 4.98272 13.208 7.43673 13.208Z" stroke="white" stroke-width="1.5" stroke-miterlimit="10"/>
<path d="M10.8965 47.7808H3.977C2.32758 47.7808 1 46.4555 1 44.8091V18.3049C1 16.6585 2.32758 15.3333 3.977 15.3333H10.9367C12.5862 15.3333 13.9137 16.6585 13.9137 18.3049V44.8091C13.8735 46.4555 12.5459 47.7808 10.8965 47.7808Z" stroke="white" stroke-width="1.5" stroke-miterlimit="10"/>
<path d="M21.5987 23.7694C23.2884 23.7694 24.6562 22.4041 24.6562 20.7175C24.6562 19.1915 22.2424 15.9387 22.001 15.5773C21.9206 15.4568 21.7596 15.3765 21.5987 15.3765C21.4378 15.3765 21.3171 15.4568 21.1964 15.5773C20.9148 15.9387 18.5413 19.1513 18.5413 20.7175C18.5413 22.3639 19.9091 23.7694 21.5987 23.7694Z" stroke="white" stroke-width="1.5" stroke-miterlimit="10"/>
<path d="M23.8918 47.7806H19.3056C18.139 47.7806 17.1735 46.8168 17.1735 45.6522V27.5812C17.1735 26.4167 18.139 25.4529 19.3056 25.4529H23.9321C25.0987 25.4529 26.0642 26.4167 26.0642 27.5812V45.6522C26.024 46.857 25.0585 47.7806 23.8918 47.7806Z" stroke="white" stroke-width="1.5" stroke-miterlimit="10"/>
<path d="M7.35638 22.4412V34.0869" stroke="white" stroke-width="1.5" stroke-miterlimit="10"/>
<path d="M4.29889 25.6538H10.5747" stroke="white" stroke-width="1.5" stroke-miterlimit="10"/>
</svg>
