<svg width="41" height="47" viewBox="0 0 41 47" fill="none" xmlns="http://www.w3.org/2000/svg">
<path d="M9.772 36.4428C6.83111 36.4428 5.20856 34.6174 5.00574 33.6033V33.5526V26.6567C5.00574 26.4539 5.15786 26.3018 5.36068 26.3018C5.5635 26.3018 5.7156 26.4539 5.7156 26.6567V33.5019C5.86772 34.1103 7.13535 35.7836 9.87342 35.7329C10.0762 35.7329 10.2284 35.885 10.2284 36.0878C10.2284 36.2906 10.0762 36.4428 9.87342 36.4428C9.87342 36.4428 9.82271 36.4428 9.772 36.4428Z" fill="white" stroke="white" stroke-width="0.75" stroke-miterlimit="10"/>
<path d="M8.45364 31.6766C8.25082 31.6766 8.09869 31.5244 8.09869 31.3216V22.8032C8.09869 22.6004 8.25082 22.4482 8.45364 22.4482C8.65646 22.4482 8.80856 22.6004 8.80856 22.8032V31.3216C8.80856 31.5244 8.65646 31.6766 8.45364 31.6766Z" fill="white" stroke="white" stroke-width="0.75" stroke-miterlimit="10"/>
<path d="M11.5466 30.3074C11.3438 30.3074 11.1917 30.1553 11.1917 29.9525V21.434C11.1917 21.2312 11.3438 21.0791 11.5466 21.0791C11.7494 21.0791 11.9015 21.2312 11.9015 21.434V29.9525C11.9015 30.1553 11.7494 30.3074 11.5466 30.3074Z" fill="white" stroke="white" stroke-width="0.75" stroke-miterlimit="10"/>
<path d="M11.5466 31.0682C11.3438 31.0682 11.1917 30.916 11.1917 30.7132V22.1948C11.1917 21.992 11.3438 21.8398 11.5466 21.8398C11.7494 21.8398 11.9015 21.992 11.9015 22.1948V30.7132C11.9015 30.916 11.7494 31.0682 11.5466 31.0682Z" fill="white" stroke="white" stroke-width="0.75" stroke-miterlimit="10"/>
<path d="M14.6397 33.6541C14.4368 33.6541 14.2847 33.502 14.2847 33.2992V24.7807C14.2847 24.5779 14.4368 24.4258 14.6397 24.4258C14.8425 24.4258 14.9946 24.5779 14.9946 24.7807V33.2992C14.9946 33.502 14.8425 33.6541 14.6397 33.6541Z" fill="white" stroke="white" stroke-width="0.75" stroke-miterlimit="10"/>
<path d="M16.3636 43.44H3.63664C3.43382 43.44 3.2817 43.2879 3.2817 43.0851V40.6513C2.67324 40.1949 2.2169 39.5865 2.06478 38.978C2.06478 38.9273 2.06478 38.9273 2.06478 38.8766L1.91266 26.6567C1.91266 26.3017 2.06478 25.9468 2.31831 25.6933C2.67324 25.3384 3.231 25.1355 3.83946 25.1355C4.2958 25.1355 4.70144 25.2369 5.00567 25.4398V22.8538C5.00567 21.9918 5.86766 21.3327 6.93247 21.3327C7.38881 21.3327 7.79444 21.4341 8.09867 21.6369V21.4848C8.09867 20.6228 8.96065 19.9636 10.0255 19.9636C10.8874 19.9636 11.648 20.42 11.8508 21.0791C12.2058 20.8256 12.6114 20.7242 13.1185 20.7242C14.1833 20.7242 15.0453 21.4341 15.0453 22.2961V23.6651C15.3495 23.4623 15.7551 23.3609 16.2115 23.3609C17.2763 23.3609 18.1383 24.0707 18.1383 24.9327V38.3695C18.1383 39.2822 17.6312 40.1949 16.7692 40.8541V43.2879C16.7185 43.2879 16.5664 43.44 16.3636 43.44ZM3.99157 42.7302H16.0087V40.4991C16.0087 40.3977 16.0594 40.2456 16.1608 40.1949C16.9213 39.6879 17.327 38.978 17.327 38.2174V24.7806C17.327 24.3243 16.7692 23.9693 16.1608 23.9693C15.5016 23.9693 14.9946 24.3243 14.9946 24.7806C14.9946 24.9834 14.8424 25.1355 14.6396 25.1355C14.4368 25.1355 14.2847 24.9834 14.2847 24.7806V22.1946C14.2847 21.7383 13.7269 21.3834 13.1185 21.3834C12.4593 21.3834 11.9523 21.7383 11.9523 22.1946C11.9523 22.3975 11.8001 22.5496 11.5973 22.5496C11.3945 22.5496 11.2424 22.3975 11.2424 22.1946V21.4341C11.2424 20.9777 10.6846 20.6228 10.0762 20.6228C9.417 20.6228 8.90996 20.9777 8.90996 21.4341V22.8031C8.90996 23.0059 8.75784 23.158 8.55502 23.158C8.3522 23.158 8.20009 23.0059 8.20009 22.8031C8.20009 22.3468 7.64233 21.9918 7.03387 21.9918C6.3747 21.9918 5.86766 22.3468 5.86766 22.8031V26.6567C5.86766 26.8595 5.71554 27.0116 5.51272 27.0116C5.3099 27.0116 5.15779 26.8595 5.15779 26.6567C5.15779 26.2003 4.60003 25.8454 3.99157 25.8454C3.58593 25.8454 3.23099 25.9975 3.02817 26.2003C2.92676 26.3017 2.82536 26.4539 2.82536 26.6567L2.92676 38.8259C3.07887 39.3329 3.48452 39.84 3.99157 40.1949C4.09298 40.2456 4.14369 40.3977 4.14369 40.4991V42.7302H3.99157Z" fill="white" stroke="white" stroke-width="0.75" stroke-miterlimit="10"/>
<path d="M18.696 46.0768H1.35494C1.15212 46.0768 1 45.9246 1 45.7218V43.0852C1 42.8823 1.15212 42.7302 1.35494 42.7302H18.696C18.8989 42.7302 19.051 42.8823 19.051 43.0852V45.7218C19.051 45.9246 18.8989 46.0768 18.696 46.0768ZM1.70987 45.3669H18.3411V43.4401H1.70987V45.3669Z" fill="white" stroke="white" stroke-width="0.75" stroke-miterlimit="10"/>
<path d="M31.2202 36.4428C31.1695 36.4428 31.1188 36.4428 31.0681 36.4428C30.8652 36.4428 30.7131 36.2906 30.7131 36.0878C30.7131 35.885 30.8652 35.7329 31.0681 35.7329C33.8061 35.7836 35.0738 34.1103 35.2259 33.5019V26.6567C35.2259 26.4539 35.378 26.3018 35.5808 26.3018C35.7836 26.3018 35.9357 26.4539 35.9357 26.6567V33.5019V33.5526C35.7836 34.5667 34.1611 36.4428 31.2202 36.4428Z" fill="white" stroke="white" stroke-width="0.75" stroke-miterlimit="10"/>
<path d="M32.5385 31.6766C32.3357 31.6766 32.1836 31.5244 32.1836 31.3216V22.8032C32.1836 22.6004 32.3357 22.4482 32.5385 22.4482C32.7414 22.4482 32.8935 22.6004 32.8935 22.8032V31.3216C32.8935 31.5244 32.7414 31.6766 32.5385 31.6766Z" fill="white" stroke="white" stroke-width="0.75" stroke-miterlimit="10"/>
<path d="M29.4455 30.3074C29.2427 30.3074 29.0906 30.1553 29.0906 29.9525V21.434C29.0906 21.2312 29.2427 21.0791 29.4455 21.0791C29.6483 21.0791 29.8004 21.2312 29.8004 21.434V29.9525C29.8004 30.1553 29.6483 30.3074 29.4455 30.3074Z" fill="white" stroke="white" stroke-width="0.75" stroke-miterlimit="10"/>
<path d="M29.4455 31.0682C29.2427 31.0682 29.0906 30.916 29.0906 30.7132V22.1948C29.0906 21.992 29.2427 21.8398 29.4455 21.8398C29.6483 21.8398 29.8004 21.992 29.8004 22.1948V30.7132C29.8004 30.916 29.6483 31.0682 29.4455 31.0682Z" fill="white" stroke="white" stroke-width="0.75" stroke-miterlimit="10"/>
<path d="M26.3525 33.6541C26.1497 33.6541 25.9976 33.502 25.9976 33.2992V24.7807C25.9976 24.5779 26.1497 24.4258 26.3525 24.4258C26.5553 24.4258 26.7074 24.5779 26.7074 24.7807V33.2992C26.7074 33.502 26.5553 33.6541 26.3525 33.6541Z" fill="white" stroke="white" stroke-width="0.75" stroke-miterlimit="10"/>
<path d="M37.3555 43.4401H24.6285C24.4257 43.4401 24.2736 43.2879 24.2736 43.0851V40.6513C23.4116 39.9921 22.9045 39.1301 22.9045 38.1667V24.7806C22.9045 23.9186 23.7665 23.2088 24.8313 23.2088C25.2877 23.2088 25.6933 23.3102 25.9975 23.513V22.144C25.9975 21.282 26.8595 20.5721 27.9243 20.5721C28.3807 20.5721 28.837 20.7242 29.192 20.927C29.3948 20.2679 30.1554 19.8115 31.0173 19.8115C32.0821 19.8115 32.9441 20.5214 32.9441 21.3327V21.5862C33.2484 21.3834 33.654 21.282 34.1103 21.282C35.1751 21.282 36.0371 21.9918 36.0371 22.8031V25.3891C36.3414 25.1863 36.747 25.0848 37.2033 25.0848C37.8118 25.0848 38.3188 25.2877 38.6738 25.6426C38.9273 25.8961 39.0794 26.2511 39.0794 26.606L38.978 38.8259C38.978 38.8766 38.978 38.8766 38.978 38.9273C38.7752 39.5865 38.3696 40.1442 37.7611 40.6006V43.0344C37.7104 43.2879 37.5583 43.4401 37.3555 43.4401ZM24.9834 42.7302H37.0005V40.4992C37.0005 40.3978 37.0512 40.2456 37.1526 40.1949C37.7104 39.84 38.0653 39.3329 38.2174 38.8259L38.3189 26.6567C38.3189 26.4539 38.2175 26.3018 38.116 26.2004C37.9132 25.9975 37.5076 25.8454 37.1526 25.8454C36.4935 25.8454 35.9864 26.2004 35.9864 26.6567C35.9864 26.8595 35.8343 27.0116 35.6315 27.0116C35.4287 27.0116 35.2766 26.8595 35.2766 26.6567V22.8538C35.2766 22.3975 34.7188 22.0425 34.1103 22.0425C33.4512 22.0425 32.9441 22.3975 32.9441 22.8538C32.9441 23.0566 32.792 23.2088 32.5892 23.2088C32.3864 23.2088 32.2343 23.0566 32.2343 22.8538V21.4848C32.2343 21.0284 31.6765 20.6735 31.068 20.6735C30.4089 20.6735 29.9018 21.0284 29.9018 21.4848V22.2454C29.9018 22.4482 29.7497 22.6003 29.5469 22.6003C29.3441 22.6003 29.192 22.4482 29.192 22.2454C29.192 21.789 28.6342 21.4341 28.0257 21.4341C27.3666 21.4341 26.8595 21.789 26.8595 22.2454V24.8313C26.8595 25.0341 26.7074 25.1863 26.5046 25.1863C26.3018 25.1863 26.1497 25.0341 26.1497 24.8313C26.1497 24.375 25.5919 24.02 24.9834 24.02C24.3243 24.02 23.8172 24.375 23.8172 24.8313V38.2681C23.8172 39.0287 24.2736 39.7386 24.9834 40.2456C25.0848 40.2963 25.1356 40.4485 25.1356 40.5499V42.7302H24.9834Z" fill="white" stroke="white" stroke-width="0.75" stroke-miterlimit="10"/>
<path d="M39.6372 46.0768H22.296C22.0932 46.0768 21.9411 45.9246 21.9411 45.7218V43.0852C21.9411 42.8823 22.0932 42.7302 22.296 42.7302H39.6372C39.84 42.7302 39.9921 42.8823 39.9921 43.0852V45.7218C40.0428 45.9246 39.84 46.0768 39.6372 46.0768ZM22.651 45.3669H39.2822V43.4401H22.651V45.3669Z" fill="white" stroke="white" stroke-width="0.75" stroke-miterlimit="10"/>
<path d="M22.7017 20.6735H18.2904C18.0876 20.6735 17.9354 20.5214 17.9354 20.3186V9.92408H13.6762C13.4734 9.92408 13.3213 9.77196 13.3213 9.56914V5.1071C13.3213 4.90428 13.4734 4.75217 13.6762 4.75217H17.9354V1.35494C17.9354 1.15212 18.0876 1 18.2904 1H22.7017C22.9045 1 23.0567 1.15212 23.0567 1.35494V4.75217H27.3159C27.5187 4.75217 27.6708 4.90428 27.6708 5.1071V9.51844C27.6708 9.72126 27.5187 9.87337 27.3159 9.87337H23.0567V20.2679C23.0567 20.5214 22.9045 20.6735 22.7017 20.6735ZM18.6453 19.913H22.3468V9.51844C22.3468 9.31562 22.4989 9.1635 22.7017 9.1635H26.9609V5.46204H22.7017C22.4989 5.46204 22.3468 5.30993 22.3468 5.1071V1.70987H18.6453V5.1071C18.6453 5.30993 18.4932 5.46204 18.2904 5.46204H14.0312V9.1635H18.2904C18.4932 9.1635 18.6453 9.31562 18.6453 9.51844V19.913Z" fill="white" stroke="white" stroke-width="0.75" stroke-miterlimit="10"/>
</svg>
