<svg width="29" height="40" viewBox="0 0 29 40" fill="none" xmlns="http://www.w3.org/2000/svg">
<path d="M0.524107 35.8083C0.349408 35.8083 0.218384 35.6746 0.218384 35.4962V2.05138C0.218384 1.02574 1.0482 0.178467 2.05272 0.178467H27.0783C28.0828 0.178467 28.9127 1.02574 28.9127 2.05138V32.4193C28.9127 32.5976 28.7816 32.7314 28.6069 32.7314H3.97441H3.93073H3.88706H3.62501L3.40664 32.776H3.31929H3.23194H3.18826C3.18826 32.776 3.18826 32.776 3.14459 32.776H3.10091C3.10091 32.776 3.10091 32.776 3.05724 32.776H3.01356L2.92622 32.8206L2.66417 32.999L2.57682 33.0436L2.44579 33.0882C2.40212 33.0882 2.40212 33.1328 2.35844 33.1328L2.31477 33.1774L2.27109 33.2219L2.18375 33.2665L2.14007 33.3111L1.96537 33.4449L1.79067 33.5787L1.747 33.6233C1.65965 33.7125 1.61597 33.7571 1.52862 33.8462L1.48495 33.8908L1.44128 33.9354L1.35393 34.0246L1.31025 34.1584V34.203C1.31025 34.203 1.31025 34.203 1.31025 34.2476L1.26658 34.2922C1.17923 34.426 1.13555 34.5151 1.09188 34.6489L1.0482 34.6935C1.0482 34.6935 1.0482 34.6935 1.0482 34.7381L0.960854 34.9165V34.9611V35.0503C0.873504 35.2286 0.82983 35.3624 0.82983 35.5408C0.82983 35.6746 0.655131 35.8083 0.524107 35.8083ZM2.00905 0.80277C1.35393 0.80277 0.82983 1.33789 0.82983 2.00678V33.7125L0.873504 33.6679L0.960854 33.5341C0.960854 33.5341 0.960854 33.5341 0.960854 33.4895L1.00453 33.4449C1.00453 33.4449 1.00453 33.4449 1.00453 33.4003C1.09188 33.3111 1.17923 33.1774 1.26658 33.0882L1.31025 33.0436L1.48495 32.8652L1.52862 32.8206L1.5723 32.776H1.747L1.83435 32.7314L1.9217 32.6868C1.96537 32.6868 2.00905 32.6422 2.00905 32.6422L2.0964 32.5976L2.18375 32.5531L2.22742 32.5085L2.31477 32.4639H2.35844L2.48947 32.4193H2.53314H2.57682H2.62049C2.62049 32.4193 2.62049 32.4193 2.66417 32.4193H2.70784H2.79519H2.88254H2.96989L3.36296 32.3747H3.53766H3.58134H3.62501H27.8645V2.05138C27.8645 1.38248 27.3404 0.847363 26.6853 0.847363H2.00905V0.80277Z" fill="white" stroke="white" stroke-width="0.75" stroke-miterlimit="10"/>
<path d="M0.524107 35.8083C0.524107 35.8083 0.480432 35.8083 0.524107 35.8083C0.349408 35.8083 0.218384 35.6746 0.218384 35.4962V2.05138C0.218384 1.02574 1.0482 0.178467 2.05272 0.178467H7.25001C7.42471 0.178467 7.55573 0.312246 7.55573 0.490618V32.3747C7.55573 32.553 7.42471 32.6868 7.25001 32.6868H3.97441C2.40212 32.6868 1.0482 33.8908 0.82983 35.4962C0.786155 35.6746 0.655131 35.8083 0.524107 35.8083ZM2.00905 0.80277C1.35393 0.80277 0.82983 1.33789 0.82983 2.00678V33.7125C1.52862 32.6868 2.66417 32.0179 3.97441 32.0179H6.90061V0.80277H2.00905Z" fill="white" stroke="white" stroke-width="0.75" stroke-miterlimit="10"/>
<path d="M26.5542 39.8217H3.97438C1.878 39.8217 0.174683 38.0826 0.174683 35.9421C0.174683 33.8016 1.878 32.0625 3.97438 32.0625H26.5542C26.7289 32.0625 26.8599 32.1963 26.8599 32.3747V39.5095C26.8599 39.6879 26.7289 39.8217 26.5542 39.8217ZM3.97438 32.7314C2.22739 32.7314 0.829803 34.203 0.829803 35.9867C0.829803 37.7704 2.27107 39.242 3.97438 39.242H26.2048V32.7314H3.97438Z" fill="white" stroke="white" stroke-width="0.75" stroke-miterlimit="10"/>
<path d="M26.5542 36.2989H4.58581C4.41111 36.2989 4.28009 36.1651 4.28009 35.9867C4.28009 35.8083 4.41111 35.6746 4.58581 35.6746H26.5105C26.6852 35.6746 26.8162 35.8083 26.8162 35.9867C26.8599 36.1205 26.7289 36.2989 26.5542 36.2989Z" fill="white" stroke="white" stroke-width="0.75" stroke-miterlimit="10"/>
<path d="M20.265 27.6924H15.0677C14.893 27.6924 14.762 27.5586 14.762 27.3802V15.786H10.9186C10.7439 15.786 10.6129 15.6522 10.6129 15.4739V10.1673C10.6129 9.98892 10.7439 9.85514 10.9186 9.85514H14.762V7.93764C14.762 7.75927 14.893 7.62549 15.0677 7.62549H20.2213C20.396 7.62549 20.5271 7.75927 20.5271 7.93764V9.85514H24.3704C24.5451 9.85514 24.6762 9.98892 24.6762 10.1673V15.4293C24.6762 15.6077 24.5451 15.7414 24.3704 15.7414H20.5271V27.291C20.5707 27.5586 20.4397 27.6924 20.265 27.6924ZM15.4171 27.0235H19.9593V15.4739C19.9593 15.2955 20.0903 15.1617 20.265 15.1617H24.1084V10.524H20.265C20.0903 10.524 19.9593 10.3903 19.9593 10.2119V8.29438H15.4171V10.2119C15.4171 10.3903 15.2861 10.524 15.1114 10.524H11.268V15.1617H15.1114C15.2861 15.1617 15.4171 15.2955 15.4171 15.4739V27.0235Z" fill="white" stroke="white" stroke-width="0.75" stroke-miterlimit="10"/>
</svg>
