<svg width="40" height="48" viewBox="0 0 40 48" fill="none" xmlns="http://www.w3.org/2000/svg">
<path d="M35.9324 42.359H4.08185C3.87401 42.359 3.71814 42.2031 3.71814 41.9952V33.526C3.71814 33.4221 3.7701 33.3182 3.87402 33.2143L8.44636 29.7331V21.4717C8.44636 21.3678 8.49831 21.2638 8.55027 21.2119L19.7733 9.05363C19.8253 9.00167 19.9292 8.94971 20.0331 8.94971C20.137 8.94971 20.2409 9.00167 20.2929 9.05363L31.5159 21.2119C31.5678 21.2638 31.6198 21.3678 31.6198 21.4717V29.7331L36.1921 33.2143C36.2961 33.2662 36.348 33.4221 36.348 33.526V41.9952C36.2961 42.2031 36.1402 42.359 35.9324 42.359ZM4.44556 41.6316H35.5686V33.7339L30.9963 30.2527C30.8924 30.1487 30.8404 30.0448 30.8404 29.8889V21.6276L19.9811 9.88495L9.12182 21.6276V29.8889C9.12182 30.0448 9.06986 30.1487 8.96594 30.2527L4.3936 33.7339V41.6316H4.44556Z" fill="white" stroke="white" stroke-width="0.75" stroke-miterlimit="10"/>
<path d="M19.9811 9.729C19.7733 9.729 19.6174 9.57312 19.6174 9.36529V1.36372C19.6174 1.15588 19.7733 1 19.9811 1C20.189 1 20.3448 1.15588 20.3448 1.36372V9.36529C20.3968 9.57312 20.189 9.729 19.9811 9.729Z" fill="white" stroke="white" stroke-width="0.75" stroke-miterlimit="10"/>
<path d="M23.4623 4.3253H16.6038C16.396 4.3253 16.2401 4.16945 16.2401 3.96162C16.2401 3.75378 16.396 3.5979 16.6038 3.5979H23.4623C23.6702 3.5979 23.826 3.75378 23.826 3.96162C23.826 4.16945 23.6702 4.3253 23.4623 4.3253Z" fill="white" stroke="white" stroke-width="0.75" stroke-miterlimit="10"/>
<path d="M26.2681 42.3589H13.7981C13.5903 42.3589 13.4344 42.203 13.4344 41.9952V30.98C13.4344 27.343 16.396 24.3293 20.0331 24.3293C23.6702 24.3293 26.6318 27.291 26.6318 30.98V41.9952C26.6318 42.203 26.476 42.3589 26.2681 42.3589ZM14.1618 41.6315H25.9044V30.98C25.9044 27.7586 23.2545 25.1087 20.0331 25.1087C16.8117 25.1087 14.1618 27.7586 14.1618 30.98V41.6315Z" fill="white" stroke="white" stroke-width="0.75" stroke-miterlimit="10"/>
<path d="M26.2681 42.3589H20.0331C19.8253 42.3589 19.6694 42.2031 19.6694 41.9952V24.7451C19.6694 24.5372 19.8253 24.3813 20.0331 24.3813C23.6702 24.3813 26.6318 27.6547 26.6318 31.6555V41.9952C26.6318 42.2031 26.4759 42.3589 26.2681 42.3589ZM20.3968 41.6315H25.8524V31.6555C25.8524 28.1743 23.4104 25.3686 20.3968 25.1607V41.6315Z" fill="white" stroke="white" stroke-width="0.75" stroke-miterlimit="10"/>
<path d="M19.9811 20.2766C18.786 20.2766 17.7988 19.2894 17.7988 18.0943C17.7988 16.8993 18.786 15.9121 19.9811 15.9121C21.1761 15.9121 22.1633 16.8993 22.1633 18.0943C22.1633 19.2894 21.2281 20.2766 19.9811 20.2766ZM19.9811 16.6915C19.2017 16.6915 18.5782 17.315 18.5782 18.0943C18.5782 18.8737 19.2017 19.4972 19.9811 19.4972C20.7605 19.4972 21.384 18.8737 21.384 18.0943C21.4359 17.315 20.7605 16.6915 19.9811 16.6915Z" fill="white" stroke="white" stroke-width="0.75" stroke-miterlimit="10"/>
<path d="M5.27687 25.7841C5.17295 25.7841 5.121 25.7322 5.01708 25.6802C4.8612 25.5243 4.86121 25.3165 4.96513 25.1606L8.44634 21.2118C8.60221 21.0559 8.81005 21.0559 8.96592 21.1598C9.1218 21.3157 9.12179 21.5235 9.01787 21.6794L5.53666 25.6282C5.48471 25.7841 5.38079 25.7841 5.27687 25.7841Z" fill="white" stroke="white" stroke-width="0.75" stroke-miterlimit="10"/>
<path d="M34.7373 25.7842C34.6334 25.7842 34.5294 25.7322 34.4775 25.6802L30.9963 21.7314C30.8404 21.5755 30.8924 21.3157 31.0482 21.2118C31.2041 21.0559 31.4639 21.1079 31.5678 21.2638L35.049 25.2126C35.2049 25.3685 35.1529 25.6283 34.9971 25.7322C34.8932 25.7841 34.8412 25.7842 34.7373 25.7842Z" fill="white" stroke="white" stroke-width="0.75" stroke-miterlimit="10"/>
<path d="M1.38 35.8122C1.27609 35.8122 1.12022 35.7603 1.06826 35.6564C0.964342 35.5005 0.96434 35.2407 1.17217 35.1368L3.87401 33.2663C4.02988 33.1623 4.28968 33.1623 4.39359 33.3702C4.49751 33.5261 4.49751 33.7858 4.28968 33.8898L1.58784 35.7603C1.53588 35.7603 1.48392 35.8122 1.38 35.8122Z" fill="white" stroke="white" stroke-width="0.75" stroke-miterlimit="10"/>
<path d="M38.6342 35.8122C38.5822 35.8122 38.4783 35.8122 38.4263 35.7602L35.7245 33.8897C35.5686 33.7858 35.5167 33.526 35.6206 33.3701C35.7245 33.2143 35.9843 33.1623 36.1402 33.2662L38.842 35.1367C38.9979 35.2407 39.0498 35.5005 38.9459 35.6563C38.842 35.7602 38.7381 35.8122 38.6342 35.8122Z" fill="white" stroke="white" stroke-width="0.75" stroke-miterlimit="10"/>
<path d="M30.113 44.6452H9.84924C9.64141 44.6452 9.48553 44.4893 9.48553 44.2814C9.48553 44.0736 9.64141 43.9177 9.84924 43.9177H30.113C30.3209 43.9177 30.4767 44.0736 30.4767 44.2814C30.4767 44.4893 30.3209 44.6452 30.113 44.6452Z" fill="white" stroke="white" stroke-width="0.75" stroke-miterlimit="10"/>
<path d="M30.113 47.191H23.2545C23.0466 47.191 22.8907 47.0352 22.8907 46.8273C22.8907 46.6195 23.0466 46.4636 23.2545 46.4636H30.113C30.3208 46.4636 30.4767 46.6195 30.4767 46.8273C30.5286 47.0352 30.3208 47.191 30.113 47.191Z" fill="white" stroke="white" stroke-width="0.75" stroke-miterlimit="10"/>
<path d="M18.5783 47.191H9.84924C9.64141 47.191 9.48553 47.0352 9.48553 46.8273C9.48553 46.6195 9.64141 46.4636 9.84924 46.4636H18.5783C18.7861 46.4636 18.942 46.6195 18.942 46.8273C18.942 47.0352 18.7861 47.191 18.5783 47.191Z" fill="white" stroke="white" stroke-width="0.75" stroke-miterlimit="10"/>
</svg>
