<svg width="33" height="46" viewBox="0 0 33 46" fill="none" xmlns="http://www.w3.org/2000/svg">
<path d="M19.9191 39.6546H12.8909C12.693 39.6546 12.5445 39.5061 12.5445 39.3081V23.5196H1.55685C1.35887 23.5196 1.21039 23.3711 1.21039 23.1731V16.145C1.21039 15.947 1.35887 15.7985 1.55685 15.7985H12.5445V9.61181C12.5445 9.41384 12.693 9.26538 12.8909 9.26538H19.9191C20.117 9.26538 20.2655 9.41384 20.2655 9.61181V15.7491H31.2531C31.4511 15.7491 31.5996 15.8975 31.5996 16.0955V23.1237C31.5996 23.3216 31.4511 23.4701 31.2531 23.4701H20.315V39.2586C20.315 39.5061 20.117 39.6546 19.9191 39.6546ZM13.2374 38.9122H19.5726V23.1237C19.5726 22.9257 19.7211 22.7772 19.9191 22.7772H30.9067V16.442H19.9191C19.7211 16.442 19.5726 16.2935 19.5726 16.0955V9.90879H13.2374V16.0955C13.2374 16.2935 13.0889 16.442 12.8909 16.442H1.9033V22.7772H12.8909C13.0889 22.7772 13.2374 22.9257 13.2374 23.1237V38.9122Z" fill="white" stroke="white" stroke-width="0.75" stroke-miterlimit="10"/>
<path d="M10.5151 7.18668C10.3666 7.18668 10.2182 7.0877 10.1687 6.93922L9.03031 2.73224C8.98082 2.53426 9.07981 2.33628 9.27778 2.28678C9.47576 2.23729 9.67373 2.33628 9.72323 2.53425L10.8616 6.74123C10.9111 6.9392 10.8121 7.13719 10.6141 7.18668C10.5646 7.13719 10.5151 7.18668 10.5151 7.18668Z" fill="white" stroke="white" stroke-width="0.75" stroke-miterlimit="10"/>
<path d="M14.2767 6.04838C14.0787 6.04838 13.9302 5.89989 13.9302 5.70191V1.34646C13.9302 1.14849 14.0787 1 14.2767 1C14.4747 1 14.6232 1.14849 14.6232 1.34646V5.70191C14.6232 5.89989 14.4747 6.04838 14.2767 6.04838Z" fill="white" stroke="white" stroke-width="0.75" stroke-miterlimit="10"/>
<path d="M18.1867 5.94938C18.1372 5.94938 18.1372 5.94938 18.0877 5.94938C17.8897 5.89989 17.7908 5.7019 17.8402 5.50392L18.9786 1.29695C19.0281 1.09897 19.2261 0.999984 19.4241 1.04948C19.622 1.09897 19.721 1.29696 19.6715 1.49493L18.5332 5.70191C18.4837 5.85039 18.3352 5.94938 18.1867 5.94938Z" fill="white" stroke="white" stroke-width="0.75" stroke-miterlimit="10"/>
<path d="M21.9978 6.88979C21.9483 6.88979 21.8988 6.88981 21.7998 6.84031C21.6018 6.74132 21.5523 6.54335 21.6513 6.34537L23.829 2.58385C23.928 2.43537 24.126 2.33636 24.324 2.43535C24.4724 2.53434 24.5714 2.73231 24.4724 2.93029L22.2947 6.69184C22.2452 6.84032 22.0967 6.88979 21.9978 6.88979Z" fill="white" stroke="white" stroke-width="0.75" stroke-miterlimit="10"/>
<path d="M25.4128 8.7705C25.3139 8.7705 25.2149 8.721 25.1654 8.67151C25.0169 8.52302 25.0169 8.32505 25.1654 8.17657L28.234 5.10794C28.3825 4.95946 28.5805 4.95946 28.7289 5.10794C28.8774 5.25642 28.8774 5.4544 28.7289 5.60288L25.6603 8.67151C25.6108 8.721 25.5118 8.7705 25.4128 8.7705Z" fill="white" stroke="white" stroke-width="0.75" stroke-miterlimit="10"/>
<path d="M28.2835 11.4927C28.135 11.4927 28.036 11.4432 27.9865 11.2947C27.8875 11.1462 27.937 10.8987 28.135 10.7997L31.8965 8.622C32.045 8.52301 32.2925 8.57253 32.3915 8.7705C32.4904 8.91898 32.4409 9.16645 32.243 9.26544L28.4814 11.4432C28.3825 11.4432 28.333 11.4927 28.2835 11.4927Z" fill="white" stroke="white" stroke-width="0.75" stroke-miterlimit="10"/>
<path d="M4.42745 12.0371C4.32846 12.0371 4.22947 11.9876 4.17998 11.9381L1.11136 8.86948C0.96288 8.721 0.96288 8.52303 1.11136 8.37454C1.25984 8.22606 1.45782 8.22606 1.6063 8.37454L4.67492 11.4432C4.8234 11.5917 4.8234 11.7896 4.67492 11.9381C4.62542 12.0371 4.52644 12.0371 4.42745 12.0371Z" fill="white" stroke="white" stroke-width="0.75" stroke-miterlimit="10"/>
<path d="M7.14961 9.2161C7.00113 9.2161 6.90214 9.16662 6.85265 9.01814L4.67492 5.25659C4.57593 5.10811 4.62543 4.86064 4.8234 4.76165C4.97188 4.66267 5.21935 4.71215 5.31834 4.91013L7.49607 8.67168C7.59506 8.82016 7.54556 9.06763 7.34759 9.16662C7.2486 9.21611 7.19911 9.2161 7.14961 9.2161Z" fill="white" stroke="white" stroke-width="0.75" stroke-miterlimit="10"/>
<path d="M27.937 45.0001H4.87288C4.67491 45.0001 4.52643 44.8516 4.52643 44.6537V41.981C4.52643 40.2982 5.91226 38.9124 7.54555 38.9124H25.2643C26.9471 38.9124 28.2835 40.2982 28.2835 41.981V44.6537C28.333 44.8516 28.135 45.0001 27.937 45.0001ZM5.21934 44.3072H27.5906V41.981C27.5906 40.6941 26.5512 39.6548 25.2643 39.6548H7.54555C6.25871 39.6548 5.21934 40.6941 5.21934 41.981V44.3072Z" fill="white" stroke="white" stroke-width="0.75" stroke-miterlimit="10"/>
<path d="M12.8909 16.4421H8.53544C8.38696 16.4421 8.28797 16.3926 8.23848 16.2441C8.18898 16.1451 8.18898 15.9966 8.23848 15.8976C9.27785 14.1159 10.8616 12.6805 12.7919 11.8391C12.8909 11.7897 13.0394 11.7897 13.1384 11.8887C13.2374 11.9381 13.2868 12.0866 13.2868 12.1856V16.0956C13.2374 16.2936 13.0889 16.4421 12.8909 16.4421ZM9.17886 15.7492H12.5444V12.7795C11.1586 13.4725 10.0203 14.4623 9.17886 15.7492Z" fill="white" stroke="white" stroke-width="0.75" stroke-miterlimit="10"/>
<path d="M12.8909 29.3105C12.8414 29.3105 12.7919 29.3105 12.7424 29.261C10.1192 28.1722 8.13949 25.9449 7.34759 23.2228C7.29809 23.1238 7.34759 22.9753 7.39708 22.9258C7.44658 22.8268 7.59506 22.7773 7.69405 22.7773H12.8909C13.0889 22.7773 13.2374 22.9258 13.2374 23.1238V28.9641C13.2374 29.0631 13.1879 29.2115 13.0889 29.261C13.0394 29.3105 12.9404 29.3105 12.8909 29.3105ZM8.18898 23.5198C8.93139 25.648 10.5152 27.4297 12.5444 28.4196V23.5198H8.18898Z" fill="white" stroke="white" stroke-width="0.75" stroke-miterlimit="10"/>
<path d="M19.919 29.3105C19.8695 29.3105 19.7705 29.3105 19.7211 29.261C19.6221 29.2115 19.5726 29.0631 19.5726 28.9641V23.1238C19.5726 22.9258 19.7211 22.7773 19.919 22.7773H25.1159C25.2149 22.7773 25.3139 22.8268 25.4128 22.9258C25.4623 23.0248 25.5118 23.1238 25.4623 23.2228C24.6704 25.9449 22.6907 28.1722 20.0675 29.261C20.018 29.3105 19.9685 29.3105 19.919 29.3105ZM20.315 23.5198V28.4196C22.3442 27.4297 23.8785 25.648 24.6704 23.5198H20.315Z" fill="white" stroke="white" stroke-width="0.75" stroke-miterlimit="10"/>
<path d="M24.324 16.4421H19.9685C19.7706 16.4421 19.6221 16.2936 19.6221 16.0956V12.1856C19.6221 12.0866 19.6716 11.9381 19.7706 11.8886C19.8695 11.8391 20.018 11.7896 20.117 11.8391C21.9978 12.631 23.6311 14.0663 24.6209 15.8481C24.6704 15.8976 24.6704 15.9966 24.6704 16.0461C24.6704 16.2935 24.522 16.4421 24.324 16.4421ZM20.315 15.7491H23.6806C22.8392 14.5118 21.6513 13.4724 20.315 12.7795V15.7491Z" fill="white" stroke="white" stroke-width="0.75" stroke-miterlimit="10"/>
<path d="M16.4049 42.3274H4.87288C4.67491 42.3274 4.52643 42.179 4.52643 41.981C4.52643 41.783 4.67491 41.6345 4.87288 41.6345H16.4049C16.6029 41.6345 16.7514 41.783 16.7514 41.981C16.7514 42.179 16.6029 42.3274 16.4049 42.3274Z" fill="white" stroke="white" stroke-width="0.75" stroke-miterlimit="10"/>
</svg>
