<svg width="22" height="49" viewBox="0 0 22 49" fill="none" xmlns="http://www.w3.org/2000/svg">
<path d="M19.9658 21.8455C18.7033 25.4086 16.4027 27.5408 13.1482 28.158V33.1239C13.1482 33.8534 12.7835 34.5267 12.2224 34.9195C12.7835 35.3123 13.1482 35.9576 13.1482 36.7151C13.1482 37.4445 12.7835 38.1179 12.2224 38.5107C12.7835 38.9034 13.1482 39.5487 13.1482 40.3062V42.719C16.2343 43.3082 18.5069 45.1318 18.5069 47.2641C18.5069 47.4885 18.3385 47.6569 18.1141 47.6569H3.83365C3.60921 47.6569 3.44087 47.4885 3.44087 47.2641C3.44087 45.1318 5.68534 43.3082 8.79954 42.719V40.3062C8.79954 39.5768 9.16427 38.9034 9.72539 38.5107C9.16427 38.1179 8.79954 37.4726 8.79954 36.7151C8.79954 35.9856 9.16427 35.3123 9.72539 34.9195C9.16427 34.5267 8.79954 33.8814 8.79954 33.1239V28.158C5.54506 27.5408 3.27254 25.4086 1.98197 21.8455C1.47696 20.4427 1.1964 17.2724 1.00001 15.7854H20.9197C20.7513 17.2724 20.4427 20.4427 19.9658 21.8455Z" stroke="white" stroke-width="1.5" stroke-miterlimit="10"/>
<path d="M10.9598 1C14.3546 1 17.1041 3.74947 17.1041 7.14423C17.1041 10.539 14.3546 13.2604 10.9598 13.2604C7.56507 13.2604 4.8156 10.5109 4.8156 7.11618C4.8156 3.72142 7.56507 1 10.9598 1Z" stroke="white" stroke-width="1.5" stroke-miterlimit="10"/>
</svg>
