<svg width="288" height="193" viewBox="0 0 288 193" fill="none" xmlns="http://www.w3.org/2000/svg">
<path opacity="0.4" d="M284.993 49.7094C278.731 36.1331 265.354 28.1944 251.703 23.3334C222.039 12.806 182.103 38.3479 150.983 36.4495C107.778 33.832 64.2438 5.73019 24.8017 26.2385C7.14072 35.414 -2.93953 50.8024 1.94953 70.7642C4.22925 80.0547 8.45911 88.6262 13.925 96.4211C19.0887 103.785 26.1476 112.327 23.1812 122.251C18.7591 137.035 8.92604 149.058 22.1375 163.095C42.9572 185.185 69.4899 176.843 94.2648 167.438C121.347 157.169 147.33 153.574 175.896 160.046C202.456 166.057 229.758 175.262 256.977 167.524C273.567 162.807 279.802 146.958 270.848 131.57C259.037 111.263 275.819 95.4144 283.867 77.8112C287.877 69.0959 289.717 59.9779 284.993 49.7094Z" fill="url(#paint0_linear)"/>
<path opacity="0.26" d="M210.861 14.1304C227.176 33.6895 283.757 11.9732 283.153 48.0137C282.466 90.2383 226.846 102.664 244.837 132.348C262.855 162.032 239.755 184.755 167.381 184.151C95.0064 183.547 -18.1561 156.797 9.88733 116.327C37.9307 75.8854 19.2534 73.7856 17.8801 55.9236C16.5068 38.0328 30.707 -1.17169 86.7389 31.5323C142.771 64.2362 169.578 -35.4001 210.861 14.1304Z" fill="url(#paint1_linear)"/>
<path opacity="0.8" d="M272.234 60.725C271.554 57.3855 269.835 58.5348 266.97 57.5156C264.105 56.4964 264.932 52.8316 263.171 51.704C260.794 50.2077 258.629 51.5956 257.143 53.5689C254.681 56.8651 253.004 54.1761 250.075 55.5206C248.398 56.2796 249.12 57.3421 246.849 57.7758C245.257 58.0794 243.538 57.3638 241.967 57.7975C240.8 58.1228 239.972 58.6866 239.718 59.8359C240.036 59.9877 240.376 60.1395 240.736 60.2696C245.109 61.8743 251.094 61.3539 255.53 61.5924C257.016 61.6358 272.722 63.0887 272.234 60.725Z" fill="white"/>
<path opacity="0.9" d="M56.2212 37.4159C54.738 35.5176 52.4857 34.7122 50.3159 35.2874C47.9263 35.9202 46.5804 38.3076 44.3831 39.2568C40.5103 40.9251 35.1818 37.646 32.2429 41.9318C28.6447 47.1667 25.8706 43.2549 25.8706 46.7928C25.8706 50.3595 50.673 47.742 62.9231 47.9146C64.6809 47.9433 72.3716 47.7995 69.0756 43.974C68.0593 42.7659 66.5761 42.5933 65.2303 42.3057C63.4449 41.9318 59.2151 41.7304 57.9241 40.2923C57.2375 39.5157 56.9628 38.3939 56.3311 37.5598C56.2762 37.4735 56.2487 37.4447 56.2212 37.4159Z" fill="white"/>
<path d="M162.786 137.769L176.594 145.336C176.594 145.336 183.072 139.671 182.425 132.819C181.11 118.831 193.446 118.653 198.596 117.801C206.368 116.519 212.662 112 206.123 104.944C199.584 97.8881 214.42 89.8847 227.267 89.6325C239.841 89.3871 246.66 66.8631 219.385 64.8997C203.099 63.7271 197.574 78.6636 192.997 85.5422C188.412 92.4207 177.357 87.1306 176.199 97.9699C175.211 107.228 178.167 115.988 170.777 118.674C163.406 121.367 159.755 126.923 162.786 137.769Z" fill="url(#paint2_linear)"/>
<path d="M162.786 137.769L176.594 145.336C176.594 145.336 183.072 139.671 182.425 132.819C181.11 118.831 193.446 118.653 198.596 117.801C206.368 116.519 211.784 112.334 207.192 105.169C202.002 97.07 214.413 89.8847 227.267 89.6325C239.841 89.3871 246.66 66.8631 219.385 64.8997C203.099 63.7271 197.574 78.6636 192.997 85.5422C188.412 92.4207 177.357 87.1306 176.199 97.9699C175.211 107.228 178.167 115.988 170.777 118.674C163.406 121.367 159.755 126.923 162.786 137.769Z" fill="url(#paint3_linear)"/>
<g opacity="0.5">
<path opacity="0.5" d="M168.065 142.33L168.379 142.432C168.44 142.234 174.993 122.683 187.329 105.258C198.691 89.2034 217.43 71.7241 242.178 79.6253L242.28 79.3117C231.265 75.794 220.503 76.9325 210.292 82.6794C202.138 87.2741 194.318 94.8071 187.05 105.074C174.693 122.539 168.127 142.132 168.065 142.33Z" fill="#BEB8F2"/>
<path opacity="0.5" d="M206.13 85.2632L206.436 85.3859C210.51 75.092 221.667 63.4209 221.783 63.305L221.545 63.0732C221.436 63.196 210.23 74.9147 206.13 85.2632Z" fill="#BEB8F2"/>
<path opacity="0.5" d="M213.037 81.6226C226.197 80.8863 233.758 88.842 233.833 88.9238L234.078 88.6988C234.004 88.617 226.34 80.5455 213.023 81.2886L213.037 81.6226Z" fill="#BEB8F2"/>
<path opacity="0.5" d="M179.884 117.093C190.674 105.129 211.205 112 211.402 112.082L211.552 111.789C211.368 111.687 190.524 104.801 179.639 116.868L179.884 117.093Z" fill="#BEB8F2"/>
<path opacity="0.5" d="M182.983 111.216L183.303 111.312C186.301 101.474 180.054 90.1511 179.993 90.042L179.7 90.2056C179.768 90.3147 185.94 101.515 182.983 111.216Z" fill="#BEB8F2"/>
<path opacity="0.5" d="M169.475 139.378C172.827 134.258 182.779 134.204 182.881 134.204V133.87C182.466 133.87 172.643 133.917 169.196 139.194L169.475 139.378Z" fill="#BEB8F2"/>
<path opacity="0.5" d="M170.967 134.729L171.281 134.838C172.854 130.264 169.087 122.138 167.848 119.465C167.67 119.09 167.521 118.763 167.507 118.702L167.18 118.777C167.2 118.865 167.303 119.083 167.541 119.608C168.774 122.247 172.5 130.277 170.967 134.729Z" fill="#BEB8F2"/>
</g>
<path d="M175.728 116.627C174.764 116.548 171.261 125.312 168.201 119.096C167.435 117.545 166.405 112.106 159.297 112.158C157.919 112.169 156.535 112.18 155.157 112.191C153.839 109.148 153.158 106.031 157.286 104.66C163.699 102.535 163.235 91.6902 161.227 87.9322C158.743 83.2785 153.189 72.3401 163.052 68.9082C171.258 66.0476 177.189 65.7908 177.192 55.6019C177.194 45.413 182.697 38.8167 192.481 38.998C202.782 39.1898 210.45 25.9105 219.111 29.8682C234.195 36.7586 222.211 59.733 204.764 66.9963C187.325 74.2598 197.892 79.8826 198.85 88.1848C198.896 88.9581 198.908 90.1666 198.651 91.5878C197.064 100.365 188.07 102.255 181.896 109.652C173.463 119.743 177.352 116.757 175.728 116.627Z" fill="url(#paint4_linear)"/>
<g opacity="0.5">
<path opacity="0.5" d="M167.732 110.851L167.251 110.78C172.478 77.6649 194.716 47.2501 225.272 31.3962L225.506 31.7961C195.076 47.5808 172.939 77.8705 167.732 110.851Z" fill="#FCFDFE"/>
<path opacity="0.5" d="M172.221 93.042L171.736 93.0604C171.024 79.897 158.556 70.1117 158.431 70.0171L158.734 69.6627C158.859 69.7572 171.499 79.6665 172.221 93.042Z" fill="#FCFDFE"/>
<path opacity="0.5" d="M168.866 104.781L168.425 104.584C174.493 92.5675 200.053 89.8782 200.313 89.8561L200.367 90.3091C200.121 90.3386 174.828 92.9994 168.866 104.781Z" fill="#FCFDFE"/>
<path opacity="0.5" d="M187.897 63.8377L187.441 63.6732C191.378 53.783 183.863 39.1093 183.788 38.9625L184.22 38.7642C184.302 38.9113 191.904 53.7665 187.897 63.8377Z" fill="#FCFDFE"/>
<path opacity="0.5" d="M202.527 47.7626L202.252 47.3812C212.78 40.6294 229.807 43.4469 229.983 43.4756L229.9 43.929C229.724 43.8935 212.894 41.1124 202.527 47.7626Z" fill="#FCFDFE"/>
</g>
<path d="M99.5138 46.2952L85.4066 42.4912V151.157C85.4066 151.157 94.5548 156.447 99.5138 156.829V46.2952Z" fill="url(#paint5_linear)"/>
<path d="M176.405 39.0547L98.9553 46.3559V156.16C98.9553 156.569 99.3027 156.869 99.7046 156.808L176.405 145.144V39.0547Z" fill="url(#paint6_linear)"/>
<path opacity="0.64" d="M172.686 141.797L102.981 152.247V50.0508L172.693 43.3291V141.797H172.686ZM103.867 151.211L171.855 141.047V44.2767L103.867 50.8689V151.211Z" fill="white"/>
<path d="M162.966 70.537L144.71 72.3776V53.2622L135.099 54.0734V73.3456L115.971 75.2681V84.4713L135.099 82.3989V142.608L144.71 141.095V81.3627L162.966 79.3857V70.537Z" fill="#EFEFEF"/>
<g opacity="0.3">
<path opacity="0.3" d="M153.3 134.632C149.233 124.699 154.539 120.473 151.236 108.638C144.547 84.6619 117.606 84.1643 112.3 62.7924C111.291 58.7362 110.821 52.9007 113.267 45.0132L98.9553 46.363V156.167C98.9553 156.576 99.3027 156.876 99.7046 156.815L163.517 147.114C159.09 143.944 155.452 139.868 153.3 134.632Z" fill="white"/>
</g>
<path d="M176.351 38.8371C176.494 38.8849 176.473 39.1098 176.317 39.1235L100.597 46.5201C98.0152 46.7723 95.4063 46.4656 92.9404 45.6134L86.0333 43.2274C85.0796 42.9002 85.2567 41.489 86.2649 41.4004L163.32 34.5696C163.463 34.5559 163.606 34.5764 163.749 34.6241L164.471 34.8763C164.73 34.965 164.907 35.224 164.907 35.5172V36.8874L172.25 38.2509L174.171 38.0872C174.191 38.0872 174.212 38.0872 174.225 38.0941L176.351 38.8371Z" fill="url(#paint7_linear)"/>
<path d="M164.914 35.606L172.127 38.2169L97.6405 45.0137C97.3953 45.0341 97.1501 45.0068 96.9185 44.9387L90.2225 42.8594C90.0727 42.8117 90.0931 42.5867 90.2566 42.5731L164.914 35.606Z" fill="white"/>
<path d="M106.68 83.6597C106.68 83.6597 107.613 82.5417 109.364 82.4871C111.114 82.4326 113.498 81.3964 114.527 81.3009C114.772 81.2805 114.895 81.2055 114.915 81.1169C114.956 80.9328 113.819 80.6601 112.81 80.626C111.019 80.5647 109.977 81.2532 109.738 80.8987C109.466 80.5033 110.624 79.4262 110.413 79.1876C110.249 79.0035 109.466 79.6035 108.621 79.9648C108.022 80.2238 105.692 83.0189 105.692 83.0189L106.68 83.6597Z" fill="url(#paint8_linear)"/>
<path d="M80.0117 81.7986C79.9231 80.5306 79.6507 76.6653 81.6874 75.5063C83.7854 74.3133 87.1368 76.6857 88.4992 77.6469C94.2756 81.7373 94.4186 86.6934 97.6065 87.2387C99.037 87.4842 101.319 86.8706 104.745 82.3781C105.392 82.8076 106.033 83.237 106.68 83.6665C106.571 88.7044 103.969 93.231 99.8408 95.2285C92.8451 98.6098 85.8766 92.6175 85.0388 91.8744C84.5824 91.4518 80.4204 87.6478 80.0117 81.7986Z" fill="url(#paint9_linear)"/>
<path d="M82.7704 170.245C82.7704 170.245 82.4775 172.024 82.5184 172.658C82.5525 173.292 89.5822 173.612 89.6503 173.142C89.7185 172.672 88.4923 171.915 87.6204 171.649C86.7553 171.383 84.2145 170.674 84.2145 170.674L82.7704 170.245Z" fill="url(#paint10_linear)"/>
<path d="M84.4734 168.472L84.2486 170.688C84.2486 170.688 83.4312 171.227 82.716 170.811L82.3549 168.404L84.4734 168.472Z" fill="url(#paint11_linear)"/>
<path d="M70.2368 173.135C70.2368 173.135 69.9439 174.915 69.9847 175.549C70.0188 176.183 77.0486 176.503 77.1167 176.033C77.1848 175.555 75.9587 174.805 75.0868 174.54C74.2217 174.274 71.6809 173.565 71.6809 173.565L70.2368 173.135Z" fill="url(#paint12_linear)"/>
<path d="M71.9397 171.356L71.7149 173.572C71.7149 173.572 70.8975 174.11 70.1823 173.695L69.8212 171.288L71.9397 171.356Z" fill="url(#paint13_linear)"/>
<path d="M83.1996 110.683C84.0102 112.333 84.8208 113.976 85.6382 115.626C86.2922 125.027 86.6191 135.253 86.408 146.187C86.2513 154.32 85.8153 162.03 85.1955 169.264C84.092 169.216 82.9953 169.161 81.8917 169.114C80.2978 165.95 78.4177 161.158 78.2474 155.247C78.0703 149.078 79.9368 148.26 79.8142 142.356C79.6575 134.7 76.4559 132.655 74.7462 123.452C74.0923 119.928 73.6495 115.333 74.174 109.75C77.178 110.056 80.1888 110.37 83.1996 110.683Z" fill="url(#paint14_linear)"/>
<path opacity="0.3" d="M74.174 109.742C75.802 109.912 77.4232 110.083 79.0512 110.253C81.9735 115.345 82.7909 120.649 82.28 122.994C81.5512 126.314 79.6302 127.378 79.7392 130.705C79.8414 134.004 81.7828 134.856 83.0157 138.742C83.8672 141.435 83.6424 143.903 83.1587 148.743C82.1847 158.485 79.8346 161.464 81.8032 164.661C82.3618 165.568 83.3699 166.652 85.3453 167.476C85.2976 168.076 85.25 168.676 85.1955 169.263C84.092 169.215 82.9953 169.16 81.8918 169.113C80.2978 165.949 78.4177 161.157 78.2474 155.246C78.0703 149.077 79.9368 148.259 79.8142 142.348C79.6575 134.693 76.4559 132.647 74.7462 123.444C74.0923 119.92 73.6495 115.318 74.174 109.742Z" fill="url(#paint15_linear)"/>
<path d="M78.8333 113.649C77.3074 121.966 75.9655 130.869 74.9097 140.311C73.6427 151.709 72.9615 162.46 72.6958 172.44C71.4902 172.474 70.2777 172.508 69.072 172.542C64.3105 163.114 64.0176 156.72 64.7056 152.561C64.9713 150.959 65.6865 147.81 65.85 143.113C65.9658 139.834 65.7546 137.345 65.4958 134.346C64.9236 127.774 64.2288 126.342 64.1334 121.311C64.0381 116.594 64.0176 114.208 65.3664 112.817C68.9085 109.149 78.1316 113.322 78.8333 113.649Z" fill="url(#paint16_linear)"/>
<path d="M86.5578 117.316C87.7158 115.394 86.2581 113.54 85.9311 109.899C85.5565 105.768 87.1436 105.086 88.7172 98.2419C89.7594 93.688 90.7675 89.325 89.5686 84.2121C88.9964 81.7579 88.0224 77.6063 84.5824 75.5952C82.8113 74.559 80.3863 74.6612 75.6181 74.9135C69.7191 75.2203 66.7696 75.3771 64.5694 76.536C64.2492 76.7064 57.5532 80.3468 57.09 86.2914C56.62 92.3382 63.2002 93.1495 64.0789 101.207C64.474 104.827 63.7724 110.39 63.316 114.003C62.8801 117.466 62.5803 118.359 63.2615 119.409C64.91 121.938 69.9507 121.216 80.0389 119.777C83.9966 119.198 85.6995 118.748 86.5578 117.316Z" fill="url(#paint17_linear)"/>
<path opacity="0.4" d="M71.2109 99.9053C70.7817 101.473 69.2491 102.653 68.1796 106.47C67.948 107.295 66.3064 113.172 68.4385 114.617C69.6714 115.455 70.7749 113.867 73.7585 113.662C78.9354 113.301 81.3945 117.657 84.7799 116.471C85.3658 116.267 86.1423 115.823 86.912 114.814C87.0687 115.728 87.0415 116.519 86.5578 117.316C85.6927 118.748 83.9898 119.205 80.0321 119.771C69.9439 121.209 64.9031 121.932 63.2547 119.402C62.5735 118.353 62.8732 117.466 63.3092 113.996C63.7656 110.383 64.4672 104.82 64.0721 101.201C63.1934 93.1358 56.6132 92.3246 57.0832 86.2845C57.2058 84.6689 57.8053 83.2304 58.5954 81.9761C66.9467 85.3506 72.5528 94.9628 71.2109 99.9053Z" fill="url(#paint18_linear)"/>
<path d="M75.3116 68.9487C75.3116 68.9487 75.2094 71.1507 74.5282 72.8004C73.9084 74.2866 70.6659 75.2274 70.012 75.5614C69.3513 75.8954 71.2449 76.8635 73.1386 77.0544C75.0391 77.2452 80.4545 76.8158 81.4354 76.0931C82.4095 75.3705 80.652 75.4251 79.2965 74.9274C77.9409 74.4297 77.1576 71.7779 77.396 70.578C77.6344 69.3714 75.3116 68.9487 75.3116 68.9487Z" fill="url(#paint19_linear)"/>
<path d="M78.3087 68.1508C79.2964 67.1828 79.4327 67.0669 79.5348 66.7328C79.964 65.3899 78.9218 63.5492 77.5594 63.0993C77.4913 63.0788 76.5717 62.7857 76.2243 63.1811C75.9246 63.522 76.3674 63.9855 76.1562 64.6332C75.9587 65.2399 75.4342 65.2876 74.4533 66.0852C73.6495 66.7465 73.1454 67.1555 73.0296 67.7282C72.7912 68.9143 74.2285 70.6323 75.4955 70.5846C75.9587 70.5709 76.0881 70.3391 78.3087 68.1508Z" fill="url(#paint20_linear)"/>
<path d="M75.6249 70.7752C75.6249 70.7752 76.6739 71.9614 78.2679 71.566C79.6983 71.2183 79.3305 67.9324 78.2883 67.4143C77.9409 67.237 77.3074 67.2507 76.8306 67.4825C76.5513 67.6188 76.4696 67.762 76.0064 67.9733C75.5772 68.171 75.441 68.1437 75.3252 68.2801C75.1821 68.4505 75.1208 68.8255 75.5704 69.7253C75.2434 69.4935 74.896 69.4458 74.6781 69.5958C74.644 69.6231 74.5555 69.7049 74.5214 69.8208C74.3852 70.223 74.8075 70.632 75.6249 70.7752Z" fill="url(#paint21_linear)"/>
<path d="M76.2516 109.578L82.5321 94.0148C82.9544 92.9649 82.3958 91.7719 81.3196 91.4242L68.8949 87.4498C68.1728 87.2862 67.444 87.6748 67.1783 88.3633L60.748 104.765C60.4278 105.584 60.8774 106.497 61.7221 106.742L74.4601 110.444C75.189 110.656 75.9587 110.281 76.2516 109.578Z" fill="#26264F"/>
<path d="M72.7479 92.5773L68.7954 105.183L71.0636 105.895L75.016 93.2896L72.7479 92.5773Z" fill="white"/>
<path d="M68.7444 94.501L68.0959 96.5693L76.7657 99.2921L77.4142 97.2238L68.7444 94.501Z" fill="white"/>
<path d="M75.4546 100.621C75.4546 100.621 76.7148 99.7824 76.7148 98.9439C76.7148 98.1054 77.5526 96.8442 77.975 96.8442C78.3973 96.8442 78.3973 97.2669 77.975 98.1054C77.5526 98.9439 79.6507 98.5281 80.4885 97.6827C81.3264 96.8442 82.1642 96.8442 81.7487 97.2601C81.088 97.9214 80.9109 98.5213 80.9109 98.5213C80.9109 98.5213 80.073 101.875 76.4014 101.671L75.4546 100.621Z" fill="url(#paint22_linear)"/>
<path d="M66.647 76.7133C63.9631 75.5134 59.481 80.4491 58.684 81.3285C54.4607 85.9778 48.4663 96.5172 53.2345 102.721C57.2126 107.902 67.9003 109.04 76.708 102.298C76.2856 101.46 75.8701 100.621 75.4478 99.7826C74.535 100.117 68.5202 102.196 64.1334 98.9441C63.2002 98.2556 62.7847 97.0694 62.6348 95.4605C62.3555 92.4678 65.8772 91.677 67.9071 87.1981C69.7054 83.2305 68.963 77.7427 66.647 76.7133Z" fill="url(#paint23_linear)"/>
<path d="M161.324 172.637C161.222 172.637 161.14 172.569 161.126 172.474L157.557 137.045C157.55 136.943 157.625 136.854 157.734 136.84C157.843 136.827 157.939 136.895 157.945 136.99L161.126 168.52V136.036C161.126 135.934 161.215 135.852 161.324 135.845C161.433 135.838 161.522 135.913 161.522 136.016V172.453C161.522 172.549 161.44 172.631 161.331 172.637H161.324Z" fill="#B7C0CE"/>
<path opacity="0.81" d="M203.298 137.692L161.971 135.927L92.4636 142.853L127.381 145.144L203.298 137.692Z" fill="#F4F7FA"/>
<path d="M127.381 145.144L203.298 137.693V139.493L127.381 146.794L92.4636 144.428V142.853L127.381 145.144Z" fill="#B7C0CE"/>
<path d="M127.626 185.072H127.619C127.524 185.065 127.442 184.99 127.442 184.895V146.391C127.442 146.296 127.524 146.214 127.626 146.207C127.728 146.2 127.81 146.275 127.81 146.371V180.416L130.603 146.221C130.61 146.125 130.698 146.05 130.8 146.05C130.902 146.05 130.977 146.132 130.971 146.228L127.81 184.901C127.803 185.004 127.721 185.072 127.626 185.072Z" fill="#B7C0CE"/>
<path d="M92.8246 178.521C92.7292 178.521 92.6543 178.446 92.6543 178.357V144.333C92.6543 144.237 92.7292 144.162 92.8246 144.155C92.92 144.149 92.9949 144.224 92.9949 144.312V174.083L95.3382 144.176C95.345 144.08 95.4267 144.012 95.5221 144.012C95.6174 144.012 95.6856 144.094 95.6788 144.183L92.9949 178.364C92.9881 178.453 92.9132 178.521 92.8246 178.521Z" fill="#B7C0CE"/>
<path d="M202.889 177.6C202.774 177.6 202.685 177.525 202.672 177.43L198.993 138.797C198.986 138.695 199.075 138.599 199.191 138.579C199.313 138.565 199.415 138.633 199.422 138.742L202.665 172.828V139.533C202.665 139.431 202.76 139.336 202.883 139.329C203.005 139.322 203.101 139.404 203.101 139.506V177.41C203.101 177.512 203.005 177.594 202.889 177.6C202.889 177.6 202.896 177.6 202.889 177.6Z" fill="#B7C0CE"/>
<path d="M196.173 127.726C196.173 127.637 196.125 127.548 196.064 127.487C195.996 127.433 195.907 127.412 195.833 127.433L189.811 129.157L181.494 128.053C181.364 128.032 181.235 128.08 181.16 128.176C181.078 128.271 181.058 128.394 181.099 128.523L184.382 138.654C184.43 138.797 184.573 138.899 184.729 138.899H192.542L196.309 136.84C196.412 136.786 196.48 136.663 196.473 136.54L196.173 127.726Z" fill="#26264F"/>
<path d="M195.996 136.308C195.976 136.335 195.948 136.356 195.914 136.376L192.011 138.482L185.363 138.455C185.206 138.455 185.07 138.36 185.022 138.217L181.943 129.218C181.902 129.095 181.923 128.966 182.005 128.87C182.079 128.775 182.209 128.727 182.338 128.748L189.845 129.743L195.376 128.393C195.451 128.373 195.54 128.393 195.601 128.448C195.669 128.502 195.703 128.584 195.71 128.679L196.085 136.069C196.085 136.158 196.05 136.246 195.996 136.308Z" fill="white"/>
<path opacity="0.2" d="M195.996 136.308L192.011 138.476L189.838 129.736L195.369 128.387C195.444 128.366 195.533 128.387 195.594 128.441C195.662 128.496 195.696 128.578 195.703 128.673L196.078 136.063C196.085 136.158 196.05 136.247 195.996 136.308Z" fill="#B7C0CE"/>
<path d="M186.098 169.583C186.098 169.583 182.931 169.802 182.883 170.013C182.836 170.217 185.036 171.022 185.806 171.049C186.575 171.076 187.202 170.851 187.134 170.524C187.066 170.197 186.793 169.379 186.793 169.379L186.098 169.583Z" fill="url(#paint24_linear)"/>
<path d="M185.949 168.179L185.894 169.678C185.894 169.678 186.378 169.951 186.759 169.794L187.182 168.213L185.949 168.179Z" fill="url(#paint25_linear)"/>
<path d="M177.236 168.983C177.236 168.983 174.069 169.201 174.021 169.413C173.973 169.617 176.174 170.422 176.943 170.449C177.713 170.476 178.34 170.251 178.272 169.924C178.204 169.597 177.931 168.779 177.931 168.779L177.236 168.983Z" fill="url(#paint26_linear)"/>
<path d="M177.086 167.572L177.032 169.072C177.032 169.072 177.516 169.345 177.897 169.188L178.319 167.606L177.086 167.572Z" fill="url(#paint27_linear)"/>
<path d="M185.608 168.391C186.201 168.459 186.793 168.52 187.386 168.588C188.183 167.702 189.382 166.155 190.015 163.98C191.248 159.787 189.463 156.761 190.608 156.011C192.229 154.947 195.737 161.076 201.364 160.919C203.673 160.858 206.69 159.719 207.848 157.258C208.026 156.883 208.884 154.934 208.046 153.107C207.181 151.218 202.896 150.4 194.354 148.832C190.69 148.157 188.837 147.823 188.094 148.178C182.829 150.693 185.029 164.934 185.608 168.391Z" fill="url(#paint28_linear)"/>
<path d="M176.569 168.411C177.182 168.52 177.795 168.622 178.408 168.731C179.15 167.633 180.281 165.916 181.535 163.734C184.157 159.187 184.109 158.267 185.322 157.68C187.89 156.44 189.831 159.787 196.18 160.707C198.257 161.007 202.869 161.682 204.735 159.194C205.492 158.185 205.928 156.487 205.328 155.042C204.252 152.458 200.723 152.765 189.075 150.495C184.532 149.609 183.912 149.452 182.815 149.841C176.671 152.043 176.555 165.425 176.569 168.411Z" fill="url(#paint29_linear)"/>
<path d="M182.747 136.977C182.638 136.882 182.073 134.128 183.455 133.609C184.838 133.098 184.396 134.325 184.232 135.164C184.062 136.009 183.687 137.843 182.747 136.977Z" fill="url(#paint30_linear)"/>
<path d="M197.638 134.018C197.638 134.018 196.977 132 195.846 132.204C194.715 132.416 196.037 133.391 196.398 134.202C196.766 135.013 197.896 134.631 197.638 134.018Z" fill="url(#paint31_linear)"/>
<path d="M197.331 127.739L195.928 130.943C195.928 130.943 198.005 131.986 199.906 130.943V127.739H197.331Z" fill="url(#paint32_linear)"/>
<path d="M193.789 139.192C193.789 139.192 190.546 144.885 184.436 144.612C178.326 144.339 182.652 136.677 182.652 136.677H183.796C183.796 136.677 183.374 139.574 184.736 139.486C186.323 139.377 189.443 131.959 192.481 131.407C195.512 130.848 193.789 139.192 193.789 139.192Z" fill="url(#paint33_linear)"/>
<path d="M206.963 147.783C206.275 145.717 205.607 144.238 205.607 144.122V144.115C205.369 142.799 205.199 141.245 205.028 139.329C204.613 134.68 205.274 131.271 203.421 130.256C202.978 130.01 202.44 129.881 201.806 129.901C199.293 129.976 197.399 129.901 197.134 129.942C193.891 130.487 191.432 131.08 190.356 132.928C189.225 134.878 191.112 136.425 191.698 140.761C192.113 143.835 191.602 146.024 191.051 148.164C191.051 148.164 188.128 146.194 188.483 149.698C188.837 153.195 187.352 155.07 187.182 157.872C187.1 159.215 188.871 160.203 191.759 160.851C194.892 161.56 199.327 161.88 204.129 161.853C210.641 161.819 208.686 152.97 206.963 147.783Z" fill="url(#paint34_linear)"/>
<path d="M196.139 121.045C196.139 121.045 194.463 124.195 194.361 126.404C194.252 128.612 196.745 128.449 196.745 128.449L199.838 128.34C199.831 128.34 200.948 121.454 196.139 121.045Z" fill="url(#paint35_linear)"/>
<path d="M196.963 126.574C196.439 128.346 197.283 130.064 198.005 131.53C199.409 134.386 203.073 137.938 206.738 137.529C210.832 137.072 211.302 132.096 215.083 131.919C218.25 131.775 218.904 135.232 223.039 136.098C228.27 137.188 233.032 132.846 233.597 132.314C237.207 128.926 239.551 123.077 237.636 117.964C237.439 117.439 235.525 112.483 231.901 111.965C228.842 111.522 227.705 114.692 222.903 115.094C219.762 115.36 219.211 114.092 217.038 114.835C213.577 116.014 213.959 119.566 211.173 120.316C208.284 121.093 207.004 117.507 201.657 117.05C200.921 116.989 196.609 116.621 195.397 118.877C194.913 119.784 194.852 121.257 195.458 122.327C196.085 123.431 197.1 123.533 197.352 124.624C197.529 125.374 197.168 125.879 196.963 126.574Z" fill="url(#paint36_linear)"/>
<path d="M198.87 183.811C204.732 183.811 209.483 181.869 209.483 179.475C209.483 177.08 204.732 175.139 198.87 175.139C193.009 175.139 188.258 177.08 188.258 179.475C188.258 181.869 193.009 183.811 198.87 183.811Z" fill="#B7C0CE"/>
<path d="M209.476 178.964C209.476 181.22 204.729 183.054 198.864 183.054C193.006 183.054 188.251 181.22 188.251 178.964C188.251 176.707 192.999 173.005 198.864 173.005C204.729 173.005 209.476 176.707 209.476 178.964Z" fill="url(#paint37_linear)"/>
<path opacity="0.3" d="M209.476 178.964C209.476 176.707 204.729 173.005 198.864 173.005C196.159 173.005 193.687 173.796 191.813 174.866C191.684 175.139 191.623 175.412 191.643 175.678C191.766 176.946 193.837 177.73 195.029 177.989C198.026 178.636 199.484 176.843 201.956 176.912C203.482 176.953 205.601 177.723 208.107 180.975C208.979 180.382 209.476 179.693 209.476 178.964Z" fill="url(#paint38_linear)"/>
<path d="M199.45 175.057C199.027 175.159 198.632 175.159 198.257 175.064C197.917 174.975 197.685 174.668 197.685 174.314V162.336H200.042V174.293C200.049 174.661 199.797 174.975 199.45 175.057Z" fill="white"/>
<path opacity="0.65" d="M199.45 175.057C199.027 175.159 198.632 175.159 198.257 175.064C197.917 174.975 197.685 174.668 197.685 174.314V162.336H200.042V174.293C200.049 174.661 199.797 174.975 199.45 175.057Z" fill="url(#paint39_linear)"/>
<path d="M186.398 157.306L190.002 155.022C190.151 154.17 191.847 145.26 198.748 142.458C201.554 141.319 204.572 141.456 206.227 141.531C209.538 141.681 211.895 141.783 213.025 143.364C214.483 145.389 212.038 147.23 212.542 153.031C212.746 155.397 213.271 156.447 212.617 158.015C211.833 159.889 210.021 160.932 208.605 161.519C206.915 162.5 203.979 163.898 200.097 164.239C193.557 164.811 188.68 162.003 187.004 160.932C186.255 160.694 185.696 160.073 185.54 159.31C185.39 158.526 185.731 157.728 186.398 157.306Z" fill="url(#paint40_linear)"/>
<path opacity="0.26" d="M188.06 158.928C188.196 158.124 190.424 158.792 192.542 157.224C195.703 154.879 194.061 150.897 196.807 147.087C199.327 143.583 204.402 141.803 205.975 143.139C208.073 144.912 202.937 151.552 205.975 155.84C207.447 157.919 209.694 157.824 209.708 159.044C209.728 160.973 204.136 163.196 198.83 163.1C193.128 162.984 187.849 160.203 188.06 158.928Z" fill="white"/>
<path d="M153.075 132.341C153.068 132.239 153.007 132.144 152.925 132.089C152.836 132.035 152.734 132.021 152.632 132.062L145.691 134.652L137.224 134.366C137.101 134.359 136.985 134.421 136.911 134.516C136.836 134.611 136.815 134.741 136.849 134.857L140.112 145.055C140.16 145.212 140.31 145.321 140.473 145.321H149.179L153.77 142.847C153.899 142.778 153.981 142.628 153.967 142.479L153.075 132.341Z" fill="#26264F"/>
<path d="M153.334 142.233C153.306 142.267 153.272 142.295 153.232 142.315L148.518 144.844H141.12C140.957 144.844 140.814 144.742 140.759 144.592L137.646 135.471C137.605 135.355 137.626 135.225 137.701 135.123C137.776 135.021 137.891 134.966 138.014 134.973L145.739 135.273L152.121 133.187C152.217 133.153 152.319 133.173 152.401 133.221C152.482 133.275 152.537 133.364 152.55 133.466L153.436 141.947C153.443 142.049 153.409 142.158 153.334 142.233Z" fill="white"/>
<path opacity="0.2" d="M153.334 142.233L148.518 144.844L145.732 135.266L152.114 133.18C152.21 133.145 152.312 133.166 152.394 133.214C152.475 133.268 152.53 133.357 152.544 133.459L153.429 141.94C153.443 142.049 153.409 142.158 153.334 142.233Z" fill="#B7C0CE"/>
<path d="M158.851 134.659C158.129 133.657 156.406 132.832 156.297 131.966C156.665 131.707 156.869 131.476 156.869 131.476C158.034 131.278 158.626 130.692 158.436 130.112C158.381 129.955 158.259 129.833 158.211 129.799C157.904 129.58 157.407 129.649 156.951 129.983C157.591 128.708 157.503 128.176 157.298 127.937C157.135 127.74 156.944 127.781 156.331 127.501C155.67 127.201 155.561 126.997 155.159 126.806C154.485 126.479 153.586 126.458 153.088 126.71C151.604 127.453 151.093 132.116 153.123 132.607C153.579 132.716 154.008 132.737 154.396 132.696C154.349 133.207 154.151 133.889 153.443 133.923C152.312 133.971 150.8 134.386 151.481 135.852C152.162 137.311 152.475 137.993 153.96 137.536C155.445 137.072 159.607 135.709 158.851 134.659Z" fill="url(#paint41_linear)"/>
<path d="M141.829 178.624C141.89 178.303 142.925 178.01 143.443 178.439C143.702 178.651 143.872 179.087 143.729 179.285C143.675 179.353 143.893 179.483 143.681 179.483C142.987 179.496 141.774 178.944 141.829 178.624Z" fill="url(#paint42_linear)"/>
<path d="M142.966 178.624L144.042 178.679C143.668 177.997 144.117 176.149 144.117 176.149L142.953 176.184C142.953 176.184 142.98 176.722 143.055 177.52C143.082 177.792 143.041 178.201 142.966 178.624Z" fill="url(#paint43_linear)"/>
<path d="M142.83 178.61C142.83 178.61 144.117 178.31 144.26 178.569C144.397 178.828 144.506 179.51 143.688 179.489C142.871 179.462 142.755 178.828 142.83 178.61Z" fill="url(#paint44_linear)"/>
<path d="M135.262 179.94C135.364 179.626 136.434 179.483 136.883 179.987C137.108 180.233 137.217 180.69 137.047 180.867C136.985 180.928 137.183 181.085 136.972 181.058C136.277 180.962 135.16 180.246 135.262 179.94Z" fill="url(#paint45_linear)"/>
<path d="M136.522 180.239L137.585 180.451C137.312 179.721 138.021 177.956 138.021 177.956L136.863 177.819C136.863 177.819 136.815 178.358 136.767 179.156C136.754 179.428 136.652 179.83 136.522 180.239Z" fill="url(#paint46_linear)"/>
<path d="M136.25 180.063C136.25 180.063 137.564 179.947 137.667 180.219C137.769 180.492 137.782 181.187 136.972 181.051C136.168 180.915 136.148 180.267 136.25 180.063Z" fill="url(#paint47_linear)"/>
<path d="M142.265 176.299C142.932 176.374 143.593 176.449 144.26 176.524C145.16 175.529 146.502 173.79 147.217 171.343C148.593 166.66 146.44 163.585 147.884 162.385C149.546 161.001 152.837 164.737 160.091 165.794C162.428 166.135 167.611 166.885 169.709 164.09C170.561 162.958 171.051 161.049 170.377 159.427C169.171 156.523 165.193 156.87 152.108 154.321C147.067 153.339 146.27 153.019 145.071 153.591C139.138 156.407 141.611 172.413 142.265 176.299Z" fill="url(#paint48_linear)"/>
<path d="M136.318 178.181C136.985 178.256 137.646 178.331 138.314 178.406C139.213 177.41 140.555 175.672 141.27 173.224C142.646 168.541 140.494 165.467 141.938 164.267C143.6 162.883 146.89 166.619 154.144 167.675C156.481 168.016 161.665 168.766 163.763 165.971C164.614 164.839 165.104 162.931 164.43 161.308C163.224 158.404 159.246 158.752 146.161 156.202C141.12 155.22 140.323 154.9 139.124 155.473C133.198 158.288 135.671 174.295 136.318 178.181Z" fill="url(#paint49_linear)"/>
<path d="M139.867 146.118L139.717 144.768L138.94 143.282C138.831 143.078 138.777 142.853 138.777 142.628V141.155L139.717 143.33C139.717 143.33 140.337 142.771 140.568 142.655C140.8 142.539 140.773 143.01 140.596 143.187C140.419 143.364 140.684 144.802 140.507 144.952L140.568 145.832L139.867 146.118Z" fill="url(#paint50_linear)"/>
<path d="M139.519 145.573C139.901 145.41 140.289 145.246 140.671 145.082C141.318 145.744 142.149 146.384 142.85 146.173C143.893 145.866 143.634 143.971 144.894 140.638C146.331 136.868 147.959 135.9 148.777 135.545C149.233 135.347 149.553 135.218 149.928 135.313C151.678 135.736 152.258 140.249 151.767 143.623C151.488 145.525 150.95 149.254 147.857 151.027C147.421 151.279 145.003 152.663 142.612 151.572C140.575 150.645 139.315 148.252 139.519 145.573Z" fill="url(#paint51_linear)"/>
<path d="M168.899 159.958C166.583 163.257 160.704 162.76 158.804 162.596C155.963 162.351 153.198 162.119 152.094 160.224C150.752 157.926 151.195 156.031 150.922 152.234C150.813 150.666 150.548 149.303 150.2 148.103C148.579 142.513 145.126 140.42 146.611 137.482C148.266 134.189 154.512 132.976 158.157 133.214C158.245 133.221 158.368 133.228 158.524 133.241C159.968 133.378 164.301 133.991 166.964 137.291C168.681 139.425 168.081 140.665 169.205 152.616C169.362 154.313 169.498 155.561 169.553 156.529C169.648 158.24 169.519 159.072 168.899 159.958Z" fill="url(#paint52_linear)"/>
<path d="M161.896 125.817C161.739 124.549 160.513 123.868 159.9 123.527C159.131 123.09 158.429 122.988 158.054 122.934C156.617 122.729 156.345 123.213 154.58 123.227C152.939 123.24 152.598 122.831 151.849 123.227C151.079 123.636 150.459 124.583 150.595 125.374C150.65 125.674 150.82 125.838 150.997 126.063C151.324 126.479 151.495 127.01 151.917 127.351C152.38 127.74 152.973 127.876 153.565 127.753C154.315 127.603 154.526 127.644 154.519 127.801C154.505 127.978 154.233 128.306 154.233 128.66V128.667C154.233 128.769 154.219 128.865 154.24 128.926C154.281 129.069 154.376 129.124 154.512 129.124C154.696 129.124 154.921 128.946 155.125 128.865C155.554 128.701 155.97 129.499 155.52 130.051C155.18 130.467 154.975 130.242 154.873 130.235C154.839 130.228 154.819 130.255 154.812 130.33C154.764 130.617 154.648 131.98 155.554 131.98C156.712 132.457 157.285 132.314 157.598 132.096C157.748 131.987 157.959 131.755 158.129 131.564C158.299 131.373 158.429 131.21 158.429 131.21C160.282 131.23 160.643 130.917 160.643 130.917C160.983 130.617 161.181 129.935 160.718 128.326C160.833 128.237 162.066 127.201 161.896 125.817Z" fill="url(#paint53_linear)"/>
<path opacity="0.2" d="M168.899 159.957C166.583 163.257 160.704 162.759 158.804 162.596C155.963 162.35 153.198 162.118 152.094 160.223C150.752 157.926 151.195 156.031 150.922 152.234C150.813 150.666 150.548 149.302 150.2 148.102L150.221 147.952C150.221 147.952 155.261 144.605 156.849 149.684C158.436 154.763 157.162 157.299 160.418 157.381C162.904 157.442 167.536 155.138 169.553 156.528C169.648 158.239 169.519 159.071 168.899 159.957Z" fill="url(#paint54_linear)"/>
<path d="M158.211 192.128C164.768 192.128 170.084 189.954 170.084 187.274C170.084 184.593 164.768 182.42 158.211 182.42C151.654 182.42 146.338 184.593 146.338 187.274C146.338 189.954 151.654 192.128 158.211 192.128Z" fill="#B7C0CE"/>
<path d="M170.091 186.709C170.091 189.238 164.771 191.29 158.218 191.29C151.658 191.29 146.345 189.238 146.345 186.709C146.345 184.18 151.665 180.042 158.218 180.042C164.771 180.042 170.091 184.18 170.091 186.709Z" fill="url(#paint55_linear)"/>
<path opacity="0.3" d="M170.091 186.709C170.091 184.18 164.771 180.042 158.218 180.042C155.186 180.042 152.428 180.928 150.33 182.121C150.18 182.428 150.112 182.734 150.139 183.027C150.275 184.452 152.591 185.325 153.926 185.611C157.278 186.341 158.913 184.33 161.678 184.411C163.388 184.459 165.752 185.318 168.565 188.958C169.532 188.29 170.091 187.527 170.091 186.709Z" fill="url(#paint56_linear)"/>
<path d="M158.865 182.339C158.388 182.455 157.945 182.455 157.53 182.346C157.155 182.25 156.889 181.903 156.889 181.507V168.104H159.532V181.493C159.532 181.896 159.253 182.243 158.865 182.339Z" fill="white"/>
<path opacity="0.65" d="M158.865 182.339C158.388 182.455 157.945 182.455 157.53 182.346C157.155 182.25 156.889 181.903 156.889 181.507V168.104H159.532V181.493C159.532 181.896 159.253 182.243 158.865 182.339Z" fill="url(#paint57_linear)"/>
<path d="M144.26 162.466L148.293 159.917C148.463 158.962 150.364 148.989 158.082 145.86C161.222 144.585 164.6 144.735 166.453 144.823C170.152 144.987 172.795 145.11 174.062 146.875C175.69 149.146 172.958 151.204 173.524 157.694C173.755 160.339 174.341 161.519 173.612 163.271C172.734 165.37 170.704 166.536 169.123 167.191C167.237 168.288 163.946 169.849 159.601 170.231C152.285 170.872 146.822 167.729 144.942 166.529C144.104 166.263 143.477 165.568 143.3 164.716C143.13 163.837 143.511 162.944 144.26 162.466Z" fill="url(#paint58_linear)"/>
<path opacity="0.26" d="M146.113 164.286C146.263 163.386 148.763 164.129 151.127 162.377C154.662 159.753 152.83 155.301 155.902 151.034C158.722 147.114 164.403 145.123 166.167 146.616C168.517 148.6 162.768 156.037 166.167 160.83C167.816 163.161 170.329 163.045 170.343 164.416C170.363 166.577 164.103 169.065 158.17 168.956C151.787 168.826 145.875 165.711 146.113 164.286Z" fill="white"/>
<defs>
<linearGradient id="paint0_linear" x1="0.710177" y1="97.9449" x2="287.798" y2="97.9449" gradientUnits="userSpaceOnUse">
<stop stop-color="#B37CFF"/>
<stop offset="1" stop-color="#F895E7"/>
</linearGradient>
<linearGradient id="paint1_linear" x1="283.178" y1="92.0995" x2="5.50534" y2="92.0995" gradientUnits="userSpaceOnUse">
<stop stop-color="#B37CFF"/>
<stop offset="1" stop-color="#F895E7"/>
</linearGradient>
<linearGradient id="paint2_linear" x1="156.449" y1="117.065" x2="242.598" y2="90.6855" gradientUnits="userSpaceOnUse">
<stop stop-color="#FF9085"/>
<stop offset="1" stop-color="#FB6FBB"/>
</linearGradient>
<linearGradient id="paint3_linear" x1="238.718" y1="68.5" x2="176.174" y2="123.451" gradientUnits="userSpaceOnUse">
<stop stop-color="#EF497A"/>
<stop offset="1" stop-color="#A737D5"/>
</linearGradient>
<linearGradient id="paint4_linear" x1="189.718" y1="40" x2="162.718" y2="92.5" gradientUnits="userSpaceOnUse">
<stop stop-color="#A061C2"/>
<stop offset="1" stop-color="#ED539F"/>
</linearGradient>
<linearGradient id="paint5_linear" x1="68.0539" y1="95.6541" x2="147.557" y2="108.744" gradientUnits="userSpaceOnUse">
<stop stop-color="#FFC444"/>
<stop offset="0.9964" stop-color="#F36F56"/>
</linearGradient>
<linearGradient id="paint6_linear" x1="118.944" y1="101.685" x2="272.406" y2="53.193" gradientUnits="userSpaceOnUse">
<stop stop-color="#FFC444"/>
<stop offset="0.9964" stop-color="#F36F56"/>
</linearGradient>
<linearGradient id="paint7_linear" x1="165.291" y1="3.75204" x2="90.871" y2="83.2064" gradientUnits="userSpaceOnUse">
<stop stop-color="#FFC444"/>
<stop offset="0.9964" stop-color="#F36F56"/>
</linearGradient>
<linearGradient id="paint8_linear" x1="118.887" y1="75.059" x2="108.902" y2="82.7575" gradientUnits="userSpaceOnUse">
<stop stop-color="#FFC444"/>
<stop offset="0.9964" stop-color="#F36F56"/>
</linearGradient>
<linearGradient id="paint9_linear" x1="103.113" y1="73.2958" x2="87.9894" y2="88.514" gradientUnits="userSpaceOnUse">
<stop offset="0.00359712" stop-color="#E38DDD"/>
<stop offset="1" stop-color="#9571F6"/>
</linearGradient>
<linearGradient id="paint10_linear" x1="90.1819" y1="151.058" x2="83.7578" y2="184.374" gradientUnits="userSpaceOnUse">
<stop stop-color="#311944"/>
<stop offset="1" stop-color="#893976"/>
</linearGradient>
<linearGradient id="paint11_linear" x1="83.9955" y1="174.747" x2="82.9824" y2="163.761" gradientUnits="userSpaceOnUse">
<stop stop-color="#FFC444"/>
<stop offset="0.9964" stop-color="#F36F56"/>
</linearGradient>
<linearGradient id="paint12_linear" x1="78.6319" y1="148.83" x2="72.2075" y2="182.147" gradientUnits="userSpaceOnUse">
<stop stop-color="#311944"/>
<stop offset="1" stop-color="#893976"/>
</linearGradient>
<linearGradient id="paint13_linear" x1="71.3029" y1="175.917" x2="70.2899" y2="164.932" gradientUnits="userSpaceOnUse">
<stop stop-color="#FFC444"/>
<stop offset="0.9964" stop-color="#F36F56"/>
</linearGradient>
<linearGradient id="paint14_linear" x1="87.4974" y1="138.875" x2="75.7993" y2="139.812" gradientUnits="userSpaceOnUse">
<stop stop-color="#444B8C"/>
<stop offset="0.9964" stop-color="#26264F"/>
</linearGradient>
<linearGradient id="paint15_linear" x1="87.4972" y1="138.874" x2="75.7993" y2="139.811" gradientUnits="userSpaceOnUse">
<stop stop-color="#444B8C"/>
<stop offset="0.9964" stop-color="#26264F"/>
</linearGradient>
<linearGradient id="paint16_linear" x1="81.0271" y1="141.077" x2="63.2686" y2="142.5" gradientUnits="userSpaceOnUse">
<stop stop-color="#444B8C"/>
<stop offset="0.9964" stop-color="#26264F"/>
</linearGradient>
<linearGradient id="paint17_linear" x1="45.5025" y1="146.047" x2="80.6151" y2="85.9497" gradientUnits="userSpaceOnUse">
<stop offset="0.00359712" stop-color="#E38DDD"/>
<stop offset="1" stop-color="#9571F6"/>
</linearGradient>
<linearGradient id="paint18_linear" x1="45.5063" y1="146.05" x2="80.6196" y2="85.9514" gradientUnits="userSpaceOnUse">
<stop offset="0.00359712" stop-color="#E38DDD"/>
<stop offset="1" stop-color="#9571F6"/>
</linearGradient>
<linearGradient id="paint19_linear" x1="26.6734" y1="21.635" x2="-0.544623" y2="-8.0534" gradientUnits="userSpaceOnUse">
<stop stop-color="#FFC444"/>
<stop offset="0.9964" stop-color="#F36F56"/>
</linearGradient>
<linearGradient id="paint20_linear" x1="73.5299" y1="76.3039" x2="77.3095" y2="63.8798" gradientUnits="userSpaceOnUse">
<stop stop-color="#444B8C"/>
<stop offset="0.9964" stop-color="#3E4177"/>
</linearGradient>
<linearGradient id="paint21_linear" x1="30.2612" y1="18.3453" x2="3.04319" y2="-11.343" gradientUnits="userSpaceOnUse">
<stop stop-color="#FFC444"/>
<stop offset="0.9964" stop-color="#F36F56"/>
</linearGradient>
<linearGradient id="paint22_linear" x1="78.7113" y1="98.4959" x2="76.8343" y2="109.749" gradientUnits="userSpaceOnUse">
<stop stop-color="#FFC444"/>
<stop offset="0.2327" stop-color="#FCB048"/>
<stop offset="0.9964" stop-color="#F36F56"/>
</linearGradient>
<linearGradient id="paint23_linear" x1="61.6948" y1="132.351" x2="65.5068" y2="80.2165" gradientUnits="userSpaceOnUse">
<stop offset="0.00359712" stop-color="#E38DDD"/>
<stop offset="1" stop-color="#9571F6"/>
</linearGradient>
<linearGradient id="paint24_linear" x1="184.6" y1="165.093" x2="185.309" y2="174.12" gradientUnits="userSpaceOnUse">
<stop offset="0.003597" stop-color="#26264F"/>
<stop offset="1" stop-color="#444B8C"/>
</linearGradient>
<linearGradient id="paint25_linear" x1="186.264" y1="170.079" x2="187.965" y2="159.417" gradientUnits="userSpaceOnUse">
<stop stop-color="#FFC444"/>
<stop offset="0.9964" stop-color="#F36F56"/>
</linearGradient>
<linearGradient id="paint26_linear" x1="175.736" y1="164.489" x2="176.445" y2="173.516" gradientUnits="userSpaceOnUse">
<stop offset="0.003597" stop-color="#26264F"/>
<stop offset="1" stop-color="#444B8C"/>
</linearGradient>
<linearGradient id="paint27_linear" x1="177.4" y1="169.476" x2="179.101" y2="158.814" gradientUnits="userSpaceOnUse">
<stop stop-color="#FFC444"/>
<stop offset="0.9964" stop-color="#F36F56"/>
</linearGradient>
<linearGradient id="paint28_linear" x1="202.238" y1="145.925" x2="198.186" y2="151.948" gradientUnits="userSpaceOnUse">
<stop stop-color="#444B8C"/>
<stop offset="0.9964" stop-color="#26264F"/>
</linearGradient>
<linearGradient id="paint29_linear" x1="176.567" y1="159.193" x2="205.61" y2="159.193" gradientUnits="userSpaceOnUse">
<stop stop-color="#444B8C"/>
<stop offset="0.9964" stop-color="#26264F"/>
</linearGradient>
<linearGradient id="paint30_linear" x1="183.635" y1="133.691" x2="182.777" y2="139.324" gradientUnits="userSpaceOnUse">
<stop stop-color="#FFC444"/>
<stop offset="0.9964" stop-color="#F36F56"/>
</linearGradient>
<linearGradient id="paint31_linear" x1="196.68" y1="132.446" x2="196.161" y2="135.853" gradientUnits="userSpaceOnUse">
<stop stop-color="#FFC444"/>
<stop offset="0.9964" stop-color="#F36F56"/>
</linearGradient>
<linearGradient id="paint32_linear" x1="199.114" y1="128.535" x2="196.724" y2="132.398" gradientUnits="userSpaceOnUse">
<stop stop-color="#FFC444"/>
<stop offset="0.9964" stop-color="#F36F56"/>
</linearGradient>
<linearGradient id="paint33_linear" x1="181.165" y1="137.997" x2="194.278" y2="137.997" gradientUnits="userSpaceOnUse">
<stop stop-color="#FF9085"/>
<stop offset="1" stop-color="#FB6FBB"/>
</linearGradient>
<linearGradient id="paint34_linear" x1="187.179" y1="145.886" x2="208.641" y2="145.886" gradientUnits="userSpaceOnUse">
<stop stop-color="#FF9085"/>
<stop offset="1" stop-color="#FB6FBB"/>
</linearGradient>
<linearGradient id="paint35_linear" x1="195.735" y1="123.52" x2="199.991" y2="129.888" gradientUnits="userSpaceOnUse">
<stop stop-color="#FFC444"/>
<stop offset="0.9964" stop-color="#F36F56"/>
</linearGradient>
<linearGradient id="paint36_linear" x1="208.646" y1="139.371" x2="223.439" y2="107.787" gradientUnits="userSpaceOnUse">
<stop stop-color="#444B8C"/>
<stop offset="0.9964" stop-color="#26264F"/>
</linearGradient>
<linearGradient id="paint37_linear" x1="188.257" y1="178.031" x2="209.479" y2="178.031" gradientUnits="userSpaceOnUse">
<stop stop-color="#AA80F9"/>
<stop offset="0.9964" stop-color="#6165D7"/>
</linearGradient>
<linearGradient id="paint38_linear" x1="191.647" y1="176.989" x2="209.479" y2="176.989" gradientUnits="userSpaceOnUse">
<stop stop-color="#AA80F9"/>
<stop offset="0.9964" stop-color="#6165D7"/>
</linearGradient>
<linearGradient id="paint39_linear" x1="197.688" y1="168.741" x2="200.048" y2="168.741" gradientUnits="userSpaceOnUse">
<stop stop-color="#AA80F9"/>
<stop offset="0.9964" stop-color="#6165D7"/>
</linearGradient>
<linearGradient id="paint40_linear" x1="210.582" y1="166.23" x2="206.251" y2="160.592" gradientUnits="userSpaceOnUse">
<stop stop-color="#311944"/>
<stop offset="1" stop-color="#893976"/>
</linearGradient>
<linearGradient id="paint41_linear" x1="161.443" y1="116.732" x2="157.315" y2="127.042" gradientUnits="userSpaceOnUse">
<stop stop-color="#311944"/>
<stop offset="1" stop-color="#A03976"/>
</linearGradient>
<linearGradient id="paint42_linear" x1="141.254" y1="177.693" x2="143.546" y2="179.215" gradientUnits="userSpaceOnUse">
<stop stop-color="#444B8C"/>
<stop offset="0.9964" stop-color="#26264F"/>
</linearGradient>
<linearGradient id="paint43_linear" x1="143.415" y1="179.211" x2="143.594" y2="175.631" gradientUnits="userSpaceOnUse">
<stop stop-color="#311944"/>
<stop offset="1" stop-color="#A03976"/>
</linearGradient>
<linearGradient id="paint44_linear" x1="141.426" y1="177.433" x2="143.718" y2="178.956" gradientUnits="userSpaceOnUse">
<stop stop-color="#444B8C"/>
<stop offset="0.9964" stop-color="#26264F"/>
</linearGradient>
<linearGradient id="paint45_linear" x1="134.817" y1="178.935" x2="136.874" y2="180.763" gradientUnits="userSpaceOnUse">
<stop stop-color="#444B8C"/>
<stop offset="0.9964" stop-color="#26264F"/>
</linearGradient>
<linearGradient id="paint46_linear" x1="136.883" y1="180.88" x2="137.573" y2="177.363" gradientUnits="userSpaceOnUse">
<stop stop-color="#311944"/>
<stop offset="1" stop-color="#A03976"/>
</linearGradient>
<linearGradient id="paint47_linear" x1="135.024" y1="178.702" x2="137.081" y2="180.531" gradientUnits="userSpaceOnUse">
<stop stop-color="#444B8C"/>
<stop offset="0.9964" stop-color="#26264F"/>
</linearGradient>
<linearGradient id="paint48_linear" x1="160.94" y1="156.364" x2="149.024" y2="164.869" gradientUnits="userSpaceOnUse">
<stop stop-color="#444B8C"/>
<stop offset="0.9964" stop-color="#26264F"/>
</linearGradient>
<linearGradient id="paint49_linear" x1="135.253" y1="166.79" x2="164.748" y2="166.79" gradientUnits="userSpaceOnUse">
<stop stop-color="#444B8C"/>
<stop offset="0.9964" stop-color="#26264F"/>
</linearGradient>
<linearGradient id="paint50_linear" x1="140.007" y1="141.989" x2="138.654" y2="148.162" gradientUnits="userSpaceOnUse">
<stop stop-color="#311944"/>
<stop offset="1" stop-color="#A03976"/>
</linearGradient>
<linearGradient id="paint51_linear" x1="142.192" y1="126.263" x2="148.068" y2="154.432" gradientUnits="userSpaceOnUse">
<stop offset="0.00359712" stop-color="#E38DDD"/>
<stop offset="1" stop-color="#9571F6"/>
</linearGradient>
<linearGradient id="paint52_linear" x1="153.903" y1="123.821" x2="159.78" y2="151.988" gradientUnits="userSpaceOnUse">
<stop offset="0.00359712" stop-color="#E38DDD"/>
<stop offset="1" stop-color="#9571F6"/>
</linearGradient>
<linearGradient id="paint53_linear" x1="161.571" y1="139.068" x2="155.257" y2="123.045" gradientUnits="userSpaceOnUse">
<stop stop-color="#311944"/>
<stop offset="1" stop-color="#6B3976"/>
</linearGradient>
<linearGradient id="paint54_linear" x1="158.024" y1="145.84" x2="161.613" y2="163.046" gradientUnits="userSpaceOnUse">
<stop offset="0.00359712" stop-color="#E38DDD"/>
<stop offset="1" stop-color="#9571F6"/>
</linearGradient>
<linearGradient id="paint55_linear" x1="170.089" y1="185.665" x2="146.337" y2="185.665" gradientUnits="userSpaceOnUse">
<stop stop-color="#AA80F9"/>
<stop offset="0.9964" stop-color="#6165D7"/>
</linearGradient>
<linearGradient id="paint56_linear" x1="150.131" y1="184.499" x2="170.089" y2="184.499" gradientUnits="userSpaceOnUse">
<stop stop-color="#AA80F9"/>
<stop offset="0.9964" stop-color="#6165D7"/>
</linearGradient>
<linearGradient id="paint57_linear" x1="156.892" y1="175.268" x2="159.533" y2="175.268" gradientUnits="userSpaceOnUse">
<stop stop-color="#AA80F9"/>
<stop offset="0.9964" stop-color="#6165D7"/>
</linearGradient>
<linearGradient id="paint58_linear" x1="171.322" y1="172.457" x2="166.476" y2="166.147" gradientUnits="userSpaceOnUse">
<stop stop-color="#311944"/>
<stop offset="1" stop-color="#893976"/>
</linearGradient>
</defs>
</svg>
