<svg width="349" height="215" viewBox="0 0 349 215" fill="none" xmlns="http://www.w3.org/2000/svg">
<path opacity="0.4" d="M344.679 57.6046C337.086 41.8567 320.868 32.6481 304.316 27.0095C268.349 14.7982 219.927 44.4257 182.195 42.2237C129.809 39.1875 77.0245 6.5906 29.2016 30.3793C7.78789 41.0225 -4.43426 58.8724 1.49365 82.0273C4.25778 92.8039 9.38642 102.746 16.0137 111.788C22.2746 120.329 30.8334 130.239 27.2367 141.749C21.875 158.899 9.95257 172.845 25.9712 189.127C51.2148 214.75 83.3853 205.075 113.424 194.165C146.261 182.254 177.766 178.083 212.401 185.59C244.604 192.563 277.707 203.24 310.711 194.265C330.825 188.793 338.385 170.409 327.528 152.559C313.208 129.004 333.556 110.62 343.314 90.2015C348.176 80.0921 350.408 69.5157 344.679 57.6046Z" fill="url(#paint0_linear)"/>
<path opacity="0.26" d="M254.795 16.3329C274.577 39.0206 343.181 13.8306 342.448 55.636C341.616 104.615 274.177 119.028 295.991 153.46C317.837 187.892 289.83 214.25 202.077 213.549C114.324 212.849 -22.884 181.82 11.1182 134.876C45.1204 87.966 22.4744 85.5304 20.8093 64.8112C19.1442 44.0586 36.3617 -1.41688 104.3 36.5183C172.237 74.4535 204.741 -41.1204 254.795 16.3329Z" fill="url(#paint1_linear)"/>
<path d="M155.486 126.302C152.355 111.388 144.663 98.9764 134.871 91.1358C126.113 84.1293 120.318 74.0199 118.886 62.8762C118.753 61.7085 118.553 60.5407 118.287 59.3396C114.523 41.423 100.503 29.1783 86.982 32.0476C73.4611 34.8836 65.535 51.7325 69.2982 69.6492C70.0642 73.3192 71.2631 76.7558 72.795 79.8586C77.6905 89.7678 78.8561 101.178 75.6257 111.755C72.7284 121.23 72.1623 132.14 74.5268 143.318C78.0236 160 87.2151 173.546 98.7046 181.053C103.034 183.889 106.864 187.525 109.894 191.729C114.923 198.736 122.649 202.573 130.242 200.971C138.435 199.236 144.196 191.662 145.495 182.287C146.228 176.982 147.993 171.877 150.524 167.14C156.518 155.996 158.65 141.382 155.486 126.302Z" fill="url(#paint2_linear)"/>
<path opacity="0.57" d="M95.7407 50.1311C100.003 61.6084 103.867 73.2192 107.63 84.8633C108.562 87.766 109.461 90.7021 110.361 93.6048L111.726 97.9755L113.058 102.38C113.924 105.316 114.823 108.218 115.656 111.188L118.153 120.029C119.752 125.935 121.384 131.84 122.882 137.779C123.615 140.749 124.448 143.685 125.114 146.687L127.212 155.629C129.876 167.573 132.274 179.585 134.039 191.696L133.506 191.763L131.841 182.754L131.441 180.485L130.975 178.25L130.043 173.779L129.11 169.308C128.81 167.807 128.444 166.339 128.111 164.838C127.412 161.868 126.746 158.865 126.046 155.896C123.149 144.018 120.085 132.207 116.755 120.43C115.056 114.558 113.424 108.685 111.659 102.813L110.361 98.4092L109.029 94.0385C108.129 91.1025 107.263 88.1998 106.331 85.2637C104.566 79.425 102.734 73.5862 100.869 67.7475C99.0376 61.9087 97.1394 56.1033 95.2411 50.2979L95.7407 50.1311Z" fill="white"/>
<g opacity="0.5">
<path opacity="0.5" d="M80.055 83.2953C79.9218 83.2619 79.8219 83.1952 79.7553 83.0617C71.7959 68.5816 73.0614 57.6715 75.5591 51.0654C78.2566 43.892 82.7858 40.222 82.9857 40.0885C83.1855 39.9217 83.4519 39.955 83.6184 40.1552C83.7849 40.3554 83.7516 40.6223 83.5518 40.7892C83.5185 40.8225 78.9893 44.4926 76.3917 51.4324C73.9939 57.8383 72.7617 68.4815 80.5545 82.628C80.6878 82.8282 80.5878 83.1284 80.388 83.2285C80.2548 83.3286 80.1549 83.3286 80.055 83.2953Z" fill="white"/>
</g>
<path d="M98.4049 159.199C93.3429 152.326 86.5158 147.755 79.6887 146.053C73.5943 144.518 68.2658 140.715 64.9355 135.343C64.6025 134.776 64.2029 134.209 63.8032 133.675C57.7088 125.401 47.6846 122.431 41.457 127.035C35.2294 131.64 35.1295 142.083 41.2239 150.391C42.4561 152.092 43.8881 153.56 45.3868 154.795C50.2157 158.732 53.446 164.27 54.2786 170.442C55.0113 175.948 57.2759 181.653 61.0724 186.824C66.7339 194.531 74.5933 199.303 82.2197 200.47C85.0837 200.904 87.8812 201.872 90.4122 203.306C94.6084 205.709 99.4373 205.875 102.934 203.273C106.697 200.47 107.896 195.266 106.364 190.161C105.498 187.258 105.199 184.255 105.398 181.252C105.865 174.113 103.534 166.138 98.4049 159.199Z" fill="url(#paint3_linear)"/>
<path opacity="0.57" d="M50.1491 134.209C55.0113 139.08 59.6737 144.118 64.3361 149.19C65.5017 150.457 66.634 151.759 67.7663 153.026L69.4647 154.962L71.1632 156.897C72.2955 158.198 73.4278 159.466 74.56 160.767L77.8903 164.704C80.0883 167.34 82.2863 169.975 84.451 172.678C85.5167 174.013 86.6157 175.347 87.6814 176.715L90.8451 180.786C95.008 186.257 99.0376 191.862 102.768 197.635L102.534 197.801L99.5705 193.597L98.8378 192.53L98.0719 191.495L96.5399 189.427L95.008 187.358C94.5085 186.658 93.9756 185.99 93.4428 185.323C92.4104 183.955 91.3447 182.587 90.3123 181.253C86.0495 175.881 81.7202 170.543 77.2909 165.305C75.0596 162.702 72.8283 160.066 70.597 157.497L68.8986 155.562L67.2001 153.627C66.0678 152.326 64.9355 151.058 63.7699 149.79C61.5053 147.221 59.2074 144.652 56.9095 142.116C54.6117 139.581 52.2804 137.045 49.9492 134.509L50.1491 134.209Z" fill="white"/>
<g opacity="0.5">
<path opacity="0.5" d="M51.7476 154.094C51.681 154.127 51.5811 154.094 51.5145 154.061C43.2554 148.589 40.9242 142.45 40.4246 138.246C39.8585 133.708 41.2572 130.472 41.3238 130.339C41.3904 130.205 41.5236 130.138 41.6902 130.205C41.8234 130.272 41.89 130.405 41.8234 130.572C41.8234 130.606 40.4246 133.808 40.9908 138.213C41.4903 142.283 43.7882 148.255 51.8475 153.627C51.9807 153.694 52.014 153.86 51.9141 153.994C51.8475 154.027 51.8142 154.094 51.7476 154.094Z" fill="white"/>
</g>
<path d="M195.516 137.979C198.08 125.668 204.441 115.425 212.534 108.952C219.76 103.18 224.556 94.8058 225.722 85.6307C225.855 84.6631 226.021 83.6955 226.221 82.728C229.318 67.9142 240.908 57.8382 252.064 60.1737C263.221 62.5092 269.781 76.4221 266.651 91.2359C266.018 94.272 265.019 97.0746 263.754 99.6437C259.724 107.818 258.758 117.26 261.422 126.001C263.82 133.809 264.286 142.85 262.355 152.059C259.457 165.805 251.864 177.015 242.406 183.221C238.81 185.557 235.679 188.559 233.182 192.029C228.985 197.801 222.625 201.004 216.364 199.67C209.603 198.235 204.841 191.996 203.775 184.255C203.176 179.851 201.71 175.648 199.612 171.744C194.683 162.502 192.918 150.424 195.516 137.979Z" fill="url(#paint4_linear)"/>
<path opacity="0.57" d="M244.838 75.0876C241.341 84.5631 238.11 94.1386 235.013 103.748C234.247 106.15 233.515 108.552 232.749 110.988L231.616 114.591L230.517 118.228C229.785 120.663 229.052 123.065 228.353 125.501L226.288 132.774C224.956 137.646 223.624 142.517 222.391 147.421C221.792 149.857 221.126 152.293 220.56 154.762L218.828 162.135C216.63 172.011 214.665 181.92 213.2 191.929L213.633 191.996L214.998 184.556L215.331 182.687L215.731 180.819L216.497 177.116L217.263 173.412C217.529 172.178 217.829 170.943 218.095 169.709C218.661 167.24 219.228 164.804 219.794 162.335C222.192 152.526 224.723 142.784 227.453 133.075C228.852 128.237 230.218 123.366 231.65 118.528L232.715 114.891L233.814 111.255C234.547 108.852 235.28 106.417 236.046 104.014C237.511 99.1767 239.01 94.3722 240.541 89.5677C242.073 84.7633 243.605 79.9588 245.204 75.1544L244.838 75.0876Z" fill="white"/>
<path opacity="0.5" d="M257.792 102.48C257.892 102.446 257.992 102.38 258.059 102.279C264.653 90.3017 263.587 81.2933 261.522 75.8549C259.291 69.9495 255.561 66.9133 255.395 66.7799C255.228 66.6464 254.995 66.6798 254.895 66.8466C254.762 67.0134 254.795 67.247 254.962 67.347C254.995 67.3804 258.725 70.3832 260.856 76.1552C262.854 81.4601 263.853 90.235 257.426 101.912C257.326 102.079 257.393 102.313 257.559 102.413C257.626 102.48 257.726 102.48 257.792 102.48Z" fill="white"/>
<path d="M243.672 159.699C248.468 153.193 254.895 148.923 261.356 147.288C267.117 145.853 272.146 142.25 275.276 137.178C275.609 136.645 275.976 136.111 276.342 135.61C282.103 127.803 291.561 125 297.423 129.338C303.317 133.675 303.417 143.551 297.656 151.358C296.49 152.96 295.158 154.361 293.726 155.495C289.197 159.199 286.1 164.437 285.334 170.276C284.634 175.481 282.503 180.886 278.906 185.757C273.545 193.03 266.118 197.534 258.958 198.635C256.227 199.036 253.596 199.97 251.232 201.338C247.269 203.607 242.706 203.774 239.409 201.305C235.846 198.669 234.747 193.731 236.179 188.926C237.011 186.191 237.278 183.355 237.111 180.519C236.645 173.779 238.843 166.272 243.672 159.699Z" fill="url(#paint5_linear)"/>
<path opacity="0.57" d="M289.23 136.111C284.668 140.715 280.238 145.453 275.843 150.224C274.744 151.425 273.678 152.626 272.579 153.861L270.947 155.662L269.348 157.497C268.283 158.732 267.217 159.933 266.151 161.167L262.988 164.871C260.923 167.373 258.825 169.842 256.793 172.378C255.794 173.646 254.729 174.88 253.763 176.181L250.765 180.018C246.836 185.19 243.039 190.461 239.509 195.9L239.742 196.066L242.54 192.096L243.239 191.095L243.972 190.128L245.404 188.159L246.836 186.191C247.302 185.523 247.802 184.889 248.301 184.256C249.3 182.988 250.266 181.686 251.265 180.419C255.295 175.347 259.358 170.309 263.554 165.371C265.652 162.902 267.75 160.433 269.881 157.998L271.48 156.163L273.078 154.328C274.144 153.127 275.21 151.892 276.309 150.691C278.44 148.255 280.605 145.853 282.803 143.451C284.967 141.049 287.165 138.647 289.363 136.278L289.23 136.111Z" fill="white"/>
<path opacity="0.5" d="M287.732 154.895C287.798 154.928 287.865 154.895 287.931 154.862C295.724 149.69 297.922 143.885 298.422 139.914C298.955 135.61 297.623 132.574 297.589 132.474C297.523 132.341 297.389 132.274 297.256 132.341C297.123 132.407 297.056 132.541 297.123 132.674C297.123 132.708 298.422 135.71 297.922 139.881C297.456 143.718 295.291 149.356 287.665 154.428C287.565 154.495 287.532 154.661 287.598 154.761C287.632 154.828 287.665 154.862 287.732 154.895Z" fill="white"/>
<path d="M125.547 200.504C125.547 200.504 123.449 185.857 139.867 184.756C156.285 183.622 236.512 186.458 236.512 186.458C236.512 186.458 233.148 202.773 236.512 209.813C221.059 209.679 131.741 209.813 131.741 209.813C131.741 209.813 125.014 206.576 125.547 200.504Z" fill="url(#paint6_linear)"/>
<path d="M238.044 208.011C224.856 208.011 138.835 208.011 136.936 208.011C134.872 208.011 127.012 208.545 127.212 199.737C127.312 195.499 129.543 192.897 131.874 191.262C134.006 189.727 136.603 188.993 139.234 188.993C152.722 188.993 221.892 188.993 231.35 188.993C241.84 188.993 238.743 179.985 238.743 179.985L238.643 180.018L140.133 179.885C140.133 179.885 125.513 188.56 123.982 197.368C123.615 199.47 123.682 201.405 123.982 203.04C124.881 207.811 129.044 211.348 133.906 211.348H238.077C239.01 211.348 239.776 210.614 239.776 209.679C239.709 208.745 238.976 208.011 238.044 208.011Z" fill="url(#paint7_linear)"/>
<path d="M232.083 58.8728H138.069V186.658H232.083C235.679 186.658 238.31 183.522 238.31 179.918V65.212C238.31 61.6087 235.679 58.8728 232.083 58.8728Z" fill="url(#paint8_linear)"/>
<path d="M138.069 58.6726C138.069 58.6726 122.883 61.7088 124.015 73.4196C125.147 85.1305 123.948 197.335 123.948 197.335C123.948 197.335 128.411 186.424 138.069 186.424C138.069 162.235 138.069 58.6726 138.069 58.6726Z" fill="url(#paint9_linear)"/>
<path d="M226.321 191.129C226.321 191.229 226.221 191.329 226.121 191.329H152.589C152.489 191.329 152.389 191.229 152.389 191.129V190.895C152.389 190.795 152.489 190.695 152.589 190.695H226.088C226.188 190.695 226.288 190.795 226.288 190.895V191.129H226.321Z" fill="url(#paint10_linear)"/>
<path d="M227.986 198.336C227.986 198.436 227.82 198.669 227.687 198.669H142.198C142.065 198.669 141.732 198.436 141.732 198.336V198.035C141.732 197.935 142.065 198.002 142.198 198.002H227.687C227.82 198.002 227.986 197.902 227.986 198.035V198.336Z" fill="url(#paint11_linear)"/>
<path d="M229.651 204.908C229.651 205.142 229.452 205.342 229.219 205.342H175.468C175.235 205.342 175.035 205.142 175.035 204.908V204.741C175.035 204.508 175.235 204.308 175.468 204.308H229.252C229.485 204.308 229.685 204.508 229.685 204.741V204.908H229.651Z" fill="url(#paint12_linear)"/>
<g opacity="0.9">
<path opacity="0.9" d="M202.643 96.908H189.688V79.4919C189.688 78.5577 188.955 77.8904 188.023 77.8904H183.527C182.595 77.8904 181.695 78.5577 181.695 79.4919V96.908H168.374C167.442 96.908 166.709 97.7088 166.709 98.643V103.147C166.709 104.081 167.442 104.915 168.374 104.915H181.695V154.361C181.695 155.296 182.595 155.963 183.527 155.963H188.023C188.955 155.963 189.688 155.296 189.688 154.361V104.915H202.643C203.575 104.915 204.341 104.081 204.341 103.147V98.643C204.341 97.7088 203.575 96.908 202.643 96.908Z" fill="#DDDEE0"/>
</g>
<path d="M141.399 172.779C141.199 172.779 141.066 172.645 141.066 172.445V125.402C141.066 125.201 141.199 125.068 141.399 125.068C141.599 125.068 141.732 125.201 141.732 125.402V172.445C141.732 172.645 141.599 172.779 141.399 172.779Z" fill="#DDDEE0"/>
<path d="M141.399 118.395C141.199 118.395 141.066 118.262 141.066 118.061V95.3737C141.066 95.1735 141.199 95.04 141.399 95.04C141.599 95.04 141.732 95.1735 141.732 95.3737V118.061C141.732 118.262 141.599 118.395 141.399 118.395Z" fill="#DDDEE0"/>
<path d="M141.399 75.6885C141.199 75.6885 141.066 75.555 141.066 75.3548V62.6764C141.066 62.4762 141.199 62.3428 141.399 62.3428C141.599 62.3428 141.732 62.4762 141.732 62.6764V75.3548C141.732 75.555 141.599 75.6885 141.399 75.6885Z" fill="#DDDEE0"/>
<path opacity="0.8" d="M269.015 35.6175C267.95 30.4794 265.252 32.2478 260.756 30.6796C256.26 29.1115 257.559 23.4729 254.795 21.738C251.065 19.4359 247.668 21.5712 245.337 24.6073C241.474 29.6787 238.843 25.5415 234.247 27.6101C231.616 28.7779 232.749 30.4127 229.185 31.08C226.687 31.5471 223.99 30.4461 221.526 31.1134C219.694 31.6138 218.395 32.4813 217.995 34.2496C218.495 34.4832 219.028 34.7167 219.594 34.9169C226.454 37.3859 235.846 36.5851 242.806 36.9521C245.137 37.0188 269.781 39.2543 269.015 35.6175Z" fill="white"/>
<path opacity="0.9" d="M303.184 40.3889C301.386 38.1868 298.655 37.2526 296.024 37.9199C293.127 38.6539 291.495 41.4232 288.831 42.5242C284.135 44.4593 277.674 40.6558 274.111 45.6271C269.748 51.6994 266.384 47.1618 266.384 51.2656C266.384 55.4028 296.457 52.3667 311.31 52.5668C313.441 52.6002 322.766 52.4334 318.77 47.9959C317.538 46.5946 315.739 46.3944 314.107 46.0608C311.943 45.6271 306.814 45.3935 305.249 43.7253C304.416 42.8245 304.083 41.5232 303.317 40.5557C303.251 40.4556 303.217 40.4222 303.184 40.3889Z" fill="white"/>
<path d="M24.5392 182.988H100.736V168.274H24.5392C26.171 168.274 26.171 182.988 24.5392 182.988Z" fill="url(#paint13_linear)"/>
<path d="M100.736 179.318V172.578C100.736 170.209 99.2375 168.274 97.3725 168.274H24.8722C23.4069 168.274 22.2413 167.14 22.2413 165.738C22.2413 165.305 22.6076 164.971 23.0405 164.971H102.268C104.1 164.971 106.964 167.74 106.964 171.143V180.552C106.964 183.755 104.166 186.357 102.435 186.357H23.4402C22.7741 186.357 22.208 185.824 22.208 185.19C22.208 183.989 23.2071 183.054 24.4393 183.054H97.8387C99.4373 182.988 100.736 181.353 100.736 179.318Z" fill="url(#paint14_linear)"/>
<path d="M98.6047 171.644H27.1701C26.9703 171.644 26.8371 171.51 26.8371 171.31C26.8371 171.11 26.9703 170.977 27.1701 170.977H98.6047C98.8046 170.977 98.9378 171.11 98.9378 171.31C98.9378 171.477 98.8046 171.644 98.6047 171.644Z" fill="white"/>
<path d="M98.6047 173.812H27.1701C26.9703 173.812 26.8371 173.679 26.8371 173.479C26.8371 173.278 26.9703 173.145 27.1701 173.145H98.6047C98.8046 173.145 98.9378 173.278 98.9378 173.479C98.9378 173.679 98.8046 173.812 98.6047 173.812Z" fill="white"/>
<path d="M98.6047 176.014H27.1701C26.9703 176.014 26.8371 175.881 26.8371 175.681C26.8371 175.481 26.9703 175.347 27.1701 175.347H98.6047C98.8046 175.347 98.9378 175.481 98.9378 175.681C98.9378 175.848 98.8046 176.014 98.6047 176.014Z" fill="white"/>
<path d="M98.6047 178.183H27.1701C26.9703 178.183 26.8371 178.05 26.8371 177.85C26.8371 177.65 26.9703 177.516 27.1701 177.516H98.6047C98.8046 177.516 98.9378 177.65 98.9378 177.85C98.9378 178.05 98.8046 178.183 98.6047 178.183Z" fill="white"/>
<path d="M98.6047 180.352H27.1701C26.9703 180.352 26.8371 180.218 26.8371 180.018C26.8371 179.818 26.9703 179.685 27.1701 179.685H98.6047C98.8046 179.685 98.9378 179.818 98.9378 180.018C98.9378 180.218 98.8046 180.352 98.6047 180.352Z" fill="white"/>
<path d="M108.662 210.747H17.1127C14.3152 210.747 12.0506 208.478 12.0506 205.675V191.229C12.0506 188.426 14.3152 186.157 17.1127 186.157H108.662C111.46 186.157 113.724 188.426 113.724 191.229V205.675C113.724 208.478 111.46 210.747 108.662 210.747Z" fill="url(#paint15_linear)"/>
<path d="M33.7974 207.911H25.2719C24.3394 207.911 23.5734 207.143 23.5734 206.209V190.695C23.5734 189.761 24.3394 188.993 25.2719 188.993H33.7974C34.7299 188.993 35.4958 189.761 35.4958 190.695V206.209C35.4958 207.143 34.7299 207.911 33.7974 207.911Z" fill="url(#paint16_linear)"/>
<path d="M40.3248 207.911H38.6263C37.8604 207.911 37.2276 207.277 37.2276 206.509V190.361C37.2276 189.594 37.8604 188.96 38.6263 188.96H40.3248C41.0907 188.96 41.7235 189.594 41.7235 190.361V206.509C41.7235 207.31 41.124 207.911 40.3248 207.911Z" fill="url(#paint17_linear)"/>
<path d="M53.9456 158.198L54.3786 157.297C54.4119 157.197 54.5118 157.164 54.6117 157.23C54.7116 157.264 54.7449 157.364 54.6783 157.464L54.2454 158.365C54.2121 158.431 54.1122 158.498 54.0122 158.431C53.9123 158.365 53.879 158.265 53.9456 158.198Z" fill="white"/>
<path d="M55.3777 155.162L55.8439 154.261C55.8772 154.161 56.0104 154.127 56.077 154.194C56.1769 154.228 56.2102 154.361 56.1436 154.428L55.6774 155.295C55.6441 155.395 55.5109 155.429 55.4443 155.362C55.3777 155.362 55.3444 155.262 55.3777 155.162Z" fill="white"/>
<path d="M56.9762 152.225L57.4758 151.358C57.5424 151.258 57.6423 151.225 57.7422 151.291C57.8421 151.358 57.8754 151.458 57.8088 151.558L57.3092 152.426C57.2426 152.526 57.1427 152.559 57.0428 152.492C56.9429 152.426 56.9429 152.326 56.9762 152.225Z" fill="white"/>
<path d="M58.7079 149.356L59.2408 148.522C59.3074 148.422 59.4406 148.389 59.5072 148.456C59.6071 148.522 59.6404 148.656 59.5738 148.723L59.041 149.557C58.9744 149.657 58.8744 149.69 58.7745 149.623C58.6746 149.59 58.6413 149.457 58.7079 149.356Z" fill="white"/>
<path d="M60.5396 146.587L61.1057 145.753C61.1724 145.653 61.3056 145.62 61.4055 145.686C61.5054 145.753 61.5387 145.887 61.4721 145.987L60.9059 146.787C60.8393 146.887 60.7061 146.921 60.6062 146.821C60.473 146.787 60.473 146.687 60.5396 146.587Z" fill="white"/>
<path d="M62.5044 143.851L63.1039 143.05C63.1705 142.95 63.3037 142.917 63.4036 143.017C63.5035 143.084 63.5368 143.217 63.4369 143.317L62.8375 144.118C62.7709 144.218 62.6377 144.218 62.5378 144.151C62.4378 144.085 62.4045 143.951 62.5044 143.851Z" fill="white"/>
<path d="M64.5693 141.249L65.202 140.481C65.2686 140.381 65.4351 140.381 65.535 140.448C65.635 140.515 65.6349 140.682 65.5683 140.782L64.9356 141.549C64.869 141.649 64.7025 141.649 64.6026 141.582C64.5027 141.482 64.4694 141.349 64.5693 141.249Z" fill="white"/>
<path d="M66.7339 138.68L67.4 137.946C67.4999 137.846 67.6331 137.845 67.733 137.912C67.8329 138.012 67.8329 138.146 67.7663 138.246L67.1003 138.98C67.0004 139.08 66.8672 139.08 66.7672 138.98C66.634 138.947 66.634 138.78 66.7339 138.68Z" fill="white"/>
<path d="M68.9985 136.244L69.6979 135.544C69.7978 135.443 69.9643 135.443 70.0642 135.544C70.1641 135.644 70.1641 135.81 70.0642 135.911L69.3648 136.611C69.2649 136.711 69.0984 136.711 68.9985 136.611C68.8986 136.511 68.8986 136.344 68.9985 136.244Z" fill="white"/>
<path d="M71.363 133.875L72.0957 133.175C72.1956 133.075 72.3621 133.075 72.462 133.175C72.5619 133.275 72.5619 133.442 72.462 133.542L71.7293 134.209C71.6294 134.309 71.4629 134.309 71.363 134.209C71.2631 134.142 71.2631 133.975 71.363 133.875Z" fill="white"/>
<path d="M73.8274 131.64L74.5934 130.972C74.6933 130.872 74.8931 130.872 74.993 131.006C75.0929 131.106 75.0929 131.306 74.9597 131.406L74.1937 132.04C74.0938 132.14 73.894 132.14 73.7941 132.007C73.7275 131.907 73.7275 131.74 73.8274 131.64Z" fill="white"/>
<path d="M76.3917 129.471L77.1577 128.837C77.2909 128.737 77.4574 128.77 77.5573 128.87C77.6573 129.004 77.624 129.171 77.524 129.271L76.7581 129.905C76.6249 130.005 76.4584 129.971 76.3585 129.871C76.2585 129.738 76.2585 129.571 76.3917 129.471Z" fill="white"/>
<path d="M79.0226 127.403L79.8219 126.802C79.9551 126.702 80.155 126.735 80.2549 126.869C80.3548 127.002 80.3215 127.202 80.1883 127.303L79.389 127.903C79.2558 128.003 79.056 127.97 78.9893 127.836C78.8561 127.703 78.8894 127.503 79.0226 127.403Z" fill="white"/>
<path d="M81.7202 125.434L82.5528 124.867C82.686 124.767 82.8858 124.8 82.9857 124.934C83.0856 125.067 83.0523 125.267 82.9191 125.367L82.0865 125.934C81.9533 126.035 81.7535 126.001 81.6536 125.834C81.5537 125.734 81.587 125.534 81.7202 125.434Z" fill="white"/>
<path d="M84.5176 123.599L85.3835 123.065C85.55 122.965 85.7165 123.032 85.8164 123.165C85.9163 123.332 85.8497 123.499 85.7165 123.599L84.884 124.133C84.7507 124.233 84.5509 124.166 84.451 124.033C84.3178 123.899 84.3844 123.699 84.5176 123.599Z" fill="white"/>
<path d="M87.3817 121.864L88.2475 121.364C88.4141 121.264 88.6139 121.33 88.7138 121.497C88.8137 121.664 88.7471 121.864 88.5806 121.964L87.7147 122.465C87.5482 122.565 87.3484 122.498 87.2818 122.331C87.1818 122.164 87.2151 121.964 87.3817 121.864Z" fill="white"/>
<path d="M90.3124 120.229L91.2115 119.762C91.378 119.662 91.5778 119.729 91.6778 119.896C91.7777 120.062 91.7111 120.263 91.5445 120.363L90.6454 120.83C90.4789 120.93 90.2791 120.863 90.1791 120.696C90.0792 120.529 90.1458 120.329 90.3124 120.229Z" fill="white"/>
<path d="M93.2763 118.728L94.1755 118.294C94.342 118.227 94.5418 118.294 94.6417 118.461C94.7083 118.628 94.6417 118.828 94.4752 118.928L93.576 119.362C93.4095 119.428 93.2097 119.362 93.1098 119.195C93.0432 119.028 93.1098 118.795 93.2763 118.728Z" fill="white"/>
<path d="M96.3402 117.327L97.2726 116.926C97.4391 116.859 97.6723 116.926 97.7389 117.126C97.8055 117.293 97.7389 117.527 97.539 117.593L96.6066 117.994C96.4401 118.061 96.2069 117.994 96.1403 117.794C96.0737 117.627 96.1403 117.427 96.3402 117.327Z" fill="white"/>
<path d="M99.4373 116.059L100.37 115.692C100.57 115.625 100.769 115.725 100.836 115.892C100.903 116.092 100.803 116.292 100.636 116.359L99.7037 116.693C99.5039 116.759 99.3041 116.659 99.2375 116.493C99.1376 116.359 99.2375 116.126 99.4373 116.059Z" fill="white"/>
<path d="M102.568 114.925L103.534 114.591C103.733 114.524 103.933 114.624 104 114.824C104.066 115.025 103.967 115.225 103.767 115.292L102.834 115.592C102.634 115.659 102.435 115.558 102.368 115.358C102.268 115.191 102.368 114.991 102.568 114.925Z" fill="white"/>
<path d="M105.765 113.923L106.731 113.657C106.93 113.59 107.13 113.723 107.197 113.923C107.263 114.124 107.13 114.324 106.93 114.391L105.965 114.657C105.765 114.724 105.565 114.591 105.498 114.391C105.432 114.157 105.565 113.957 105.765 113.923Z" fill="white"/>
<path d="M108.995 113.023L109.961 112.789C110.161 112.756 110.361 112.856 110.427 113.056C110.461 113.256 110.361 113.456 110.161 113.523L109.195 113.757C108.995 113.79 108.795 113.69 108.729 113.49C108.662 113.29 108.795 113.056 108.995 113.023Z" fill="white"/>
<path d="M112.226 112.255L113.225 112.055C113.425 112.022 113.624 112.155 113.691 112.355C113.724 112.556 113.591 112.756 113.391 112.823L112.425 113.023C112.226 113.056 112.026 112.923 111.959 112.722C111.893 112.522 112.026 112.322 112.226 112.255Z" fill="white"/>
<path d="M115.523 111.655L116.522 111.488C116.721 111.454 116.921 111.588 116.955 111.821C116.988 112.022 116.855 112.222 116.622 112.255L115.656 112.422C115.456 112.455 115.256 112.322 115.223 112.088C115.19 111.888 115.323 111.688 115.523 111.655Z" fill="white"/>
<path d="M118.853 111.188L119.852 111.088C120.085 111.054 120.252 111.221 120.285 111.421C120.318 111.655 120.152 111.822 119.952 111.855L118.953 111.955C118.72 111.988 118.553 111.822 118.52 111.621C118.487 111.388 118.62 111.188 118.853 111.188Z" fill="white"/>
<path d="M122.183 110.854L123.182 110.787C123.415 110.787 123.582 110.954 123.615 111.154C123.615 111.388 123.449 111.554 123.249 111.588L122.25 111.655C122.017 111.655 121.85 111.488 121.817 111.288C121.784 111.054 121.95 110.854 122.183 110.854Z" fill="white"/>
<path d="M125.513 110.654L126.513 110.62C126.746 110.62 126.912 110.787 126.945 111.021C126.945 111.254 126.779 111.421 126.546 111.454L125.547 111.488C125.314 111.488 125.147 111.321 125.114 111.087C125.114 110.854 125.28 110.654 125.513 110.654Z" fill="white"/>
<path d="M128.877 110.62L129.876 110.654C130.109 110.654 130.276 110.854 130.276 111.087C130.276 111.321 130.076 111.488 129.843 111.488L128.844 111.454C128.611 111.454 128.444 111.254 128.444 111.021C128.444 110.787 128.644 110.62 128.877 110.62Z" fill="white"/>
<path d="M132.207 110.72L133.206 110.787C133.44 110.787 133.606 110.987 133.606 111.221C133.606 111.454 133.406 111.621 133.173 111.621L132.174 111.555C131.941 111.555 131.774 111.354 131.774 111.121C131.774 110.887 131.974 110.72 132.207 110.72Z" fill="white"/>
<path d="M135.538 110.954L136.537 111.054C136.77 111.088 136.936 111.288 136.936 111.521C136.903 111.755 136.703 111.922 136.47 111.922L135.471 111.822C135.238 111.788 135.071 111.588 135.105 111.354C135.105 111.121 135.304 110.954 135.538 110.954Z" fill="white"/>
<path d="M138.868 111.321L139.867 111.454C140.1 111.488 140.267 111.721 140.233 111.955C140.2 112.188 140 112.355 139.734 112.322L138.735 112.188C138.502 112.155 138.335 111.921 138.368 111.688C138.435 111.454 138.635 111.288 138.868 111.321Z" fill="white"/>
<path d="M142.198 111.822L143.197 111.989C143.43 112.022 143.597 112.255 143.564 112.489C143.53 112.723 143.297 112.889 143.064 112.856L142.098 112.689C141.865 112.656 141.699 112.422 141.732 112.189C141.732 111.922 141.932 111.788 142.198 111.822Z" fill="white"/>
<path d="M145.462 112.422L146.461 112.622C146.694 112.656 146.861 112.923 146.794 113.156C146.761 113.39 146.494 113.556 146.261 113.49L145.295 113.29C145.062 113.256 144.896 112.989 144.962 112.756C144.996 112.522 145.229 112.355 145.462 112.422Z" fill="white"/>
<path d="M148.759 113.123L149.725 113.356C149.958 113.423 150.124 113.657 150.058 113.89C149.991 114.124 149.758 114.29 149.525 114.224L148.559 113.99C148.326 113.923 148.159 113.69 148.226 113.456C148.259 113.189 148.492 113.056 148.759 113.123Z" fill="white"/>
<path d="M151.989 113.923L152.955 114.19C153.188 114.257 153.355 114.491 153.288 114.758C153.221 114.991 152.988 115.158 152.722 115.091L151.756 114.824C151.523 114.758 151.356 114.524 151.423 114.257C151.49 113.99 151.756 113.857 151.989 113.923Z" fill="white"/>
<path d="M155.22 114.791L156.185 115.091C156.418 115.158 156.585 115.425 156.485 115.658C156.418 115.892 156.152 116.059 155.919 115.959L154.953 115.658C154.72 115.592 154.554 115.325 154.653 115.091C154.72 114.858 154.986 114.724 155.22 114.791Z" fill="white"/>
<path d="M158.417 115.792L159.382 116.092C159.616 116.159 159.749 116.426 159.682 116.693C159.616 116.926 159.349 117.06 159.083 116.993L158.15 116.693C157.917 116.626 157.784 116.359 157.85 116.092C157.917 115.825 158.183 115.692 158.417 115.792Z" fill="white"/>
<path d="M161.58 116.826L162.513 117.16C162.746 117.26 162.879 117.527 162.813 117.76C162.713 117.994 162.446 118.127 162.213 118.061L161.281 117.727C161.048 117.627 160.914 117.36 160.981 117.127C161.081 116.893 161.347 116.76 161.58 116.826Z" fill="white"/>
<path d="M164.711 117.961L165.643 118.328C165.877 118.428 166.01 118.695 165.91 118.928C165.81 119.162 165.543 119.295 165.31 119.195L164.378 118.828C164.145 118.728 164.012 118.461 164.111 118.228C164.211 117.994 164.478 117.861 164.711 117.961Z" fill="white"/>
<path d="M167.841 119.162L168.774 119.529C169.007 119.629 169.14 119.896 169.04 120.129C168.94 120.363 168.674 120.496 168.441 120.396L167.508 120.029C167.275 119.929 167.142 119.662 167.242 119.428C167.342 119.195 167.608 119.061 167.841 119.162Z" fill="white"/>
<path d="M170.939 120.396L171.871 120.797C172.104 120.897 172.237 121.164 172.137 121.431C172.038 121.664 171.771 121.798 171.505 121.697L170.572 121.297C170.339 121.197 170.206 120.93 170.306 120.663C170.406 120.396 170.705 120.296 170.939 120.396Z" fill="white"/>
<path d="M174.002 121.731L174.935 122.131C175.168 122.231 175.301 122.531 175.168 122.765C175.068 122.998 174.768 123.132 174.535 122.998L173.636 122.598C173.403 122.498 173.303 122.198 173.403 121.964C173.503 121.731 173.769 121.597 174.002 121.731Z" fill="white"/>
<path d="M177.066 123.065L177.965 123.466C178.199 123.566 178.298 123.866 178.199 124.1C178.099 124.333 177.799 124.433 177.566 124.333L176.667 123.933C176.433 123.833 176.334 123.532 176.433 123.299C176.533 123.065 176.833 122.965 177.066 123.065Z" fill="white"/>
<path d="M180.097 124.467L180.996 124.9C181.229 125 181.329 125.301 181.229 125.534C181.129 125.768 180.829 125.868 180.596 125.768L179.697 125.334C179.464 125.234 179.364 124.934 179.464 124.7C179.564 124.467 179.864 124.367 180.097 124.467Z" fill="white"/>
<path d="M183.127 125.901L184.027 126.335C184.26 126.435 184.36 126.736 184.26 126.969C184.16 127.203 183.86 127.303 183.627 127.203L182.728 126.769C182.495 126.669 182.395 126.368 182.495 126.135C182.595 125.868 182.861 125.768 183.127 125.901Z" fill="white"/>
<path d="M186.125 127.369L187.024 127.803C187.257 127.937 187.357 128.204 187.257 128.437C187.124 128.671 186.857 128.771 186.624 128.671L185.725 128.237C185.492 128.103 185.392 127.837 185.492 127.603C185.592 127.336 185.858 127.236 186.125 127.369Z" fill="white"/>
<path d="M189.089 128.837L189.988 129.304C190.221 129.438 190.321 129.705 190.188 129.972C190.054 130.205 189.788 130.305 189.522 130.172L188.622 129.705C188.389 129.571 188.289 129.304 188.423 129.037C188.556 128.837 188.855 128.737 189.089 128.837Z" fill="white"/>
<path d="M192.053 130.372L192.952 130.839C193.185 130.973 193.285 131.24 193.152 131.506C193.018 131.74 192.752 131.84 192.485 131.707L191.586 131.24C191.353 131.106 191.253 130.839 191.386 130.572C191.553 130.339 191.819 130.239 192.053 130.372Z" fill="white"/>
<path d="M195.05 131.873L195.949 132.34C196.182 132.474 196.282 132.774 196.149 133.008C196.016 133.241 195.716 133.341 195.483 133.208L194.584 132.741C194.35 132.607 194.25 132.307 194.384 132.073C194.484 131.84 194.783 131.773 195.05 131.873Z" fill="white"/>
<path d="M197.98 133.408L198.88 133.875C199.113 134.009 199.213 134.309 199.079 134.543C198.946 134.776 198.647 134.876 198.413 134.743L197.514 134.276C197.281 134.142 197.181 133.842 197.314 133.609C197.448 133.375 197.747 133.308 197.98 133.408Z" fill="white"/>
<path d="M200.944 134.943L201.844 135.41C202.077 135.544 202.177 135.844 202.043 136.077C201.91 136.311 201.61 136.411 201.377 136.278L200.478 135.81C200.245 135.677 200.145 135.377 200.278 135.143C200.412 134.91 200.711 134.843 200.944 134.943Z" fill="white"/>
<path d="M203.908 136.478L204.807 136.945C205.041 137.078 205.141 137.378 205.007 137.612C204.874 137.846 204.574 137.946 204.341 137.812L203.442 137.345C203.209 137.212 203.109 136.911 203.242 136.678C203.375 136.444 203.675 136.378 203.908 136.478Z" fill="white"/>
<path d="M206.872 138.012L207.772 138.48C208.005 138.613 208.105 138.913 208.005 139.147C207.871 139.38 207.572 139.48 207.339 139.38L206.439 138.913C206.206 138.78 206.106 138.48 206.24 138.246C206.34 137.979 206.606 137.879 206.872 138.012Z" fill="white"/>
<path d="M209.836 139.514L210.735 139.981C210.969 140.115 211.068 140.415 210.969 140.648C210.835 140.882 210.536 140.982 210.302 140.882L209.403 140.415C209.17 140.281 209.07 139.981 209.17 139.748C209.27 139.514 209.57 139.414 209.836 139.514Z" fill="white"/>
<path d="M212.8 141.015L213.699 141.449C213.932 141.582 214.066 141.883 213.932 142.116C213.799 142.35 213.5 142.483 213.266 142.35L212.367 141.916C212.134 141.783 212.034 141.482 212.134 141.249C212.267 141.015 212.567 140.915 212.8 141.015Z" fill="white"/>
<path d="M215.797 142.483L216.697 142.917C216.963 143.05 217.063 143.351 216.93 143.584C216.797 143.851 216.497 143.951 216.264 143.818L215.364 143.384C215.131 143.251 214.998 142.95 215.131 142.717C215.231 142.483 215.531 142.383 215.797 142.483Z" fill="white"/>
<path d="M218.795 143.951L219.694 144.385C219.96 144.518 220.06 144.819 219.927 145.052C219.794 145.319 219.494 145.419 219.261 145.286L218.362 144.852C218.095 144.719 217.995 144.418 218.129 144.185C218.229 143.918 218.528 143.818 218.795 143.951Z" fill="white"/>
<path d="M221.792 145.353L222.691 145.753C222.958 145.853 223.058 146.187 222.958 146.42C222.858 146.687 222.525 146.787 222.292 146.687L221.392 146.253C221.126 146.153 221.026 145.82 221.159 145.586C221.226 145.353 221.526 145.219 221.792 145.353Z" fill="white"/>
<path d="M224.823 146.721L225.722 147.121C225.988 147.221 226.088 147.521 225.988 147.788C225.888 148.055 225.588 148.155 225.322 148.055L224.39 147.655C224.123 147.555 224.023 147.254 224.123 146.987C224.256 146.721 224.556 146.587 224.823 146.721Z" fill="white"/>
<path d="M227.886 148.022L228.819 148.422C229.085 148.522 229.185 148.822 229.085 149.089C228.985 149.356 228.686 149.456 228.419 149.356L227.487 148.956C227.22 148.856 227.12 148.555 227.22 148.289C227.32 148.055 227.62 147.922 227.886 148.022Z" fill="white"/>
<path d="M230.95 149.29L231.883 149.657C232.149 149.757 232.282 150.057 232.182 150.324C232.083 150.591 231.783 150.724 231.516 150.624L230.584 150.257C230.318 150.157 230.184 149.857 230.284 149.59C230.384 149.323 230.684 149.19 230.95 149.29Z" fill="white"/>
<path d="M234.047 150.524L234.98 150.891C235.246 150.991 235.379 151.291 235.28 151.558C235.18 151.825 234.88 151.959 234.614 151.859L233.681 151.492C233.415 151.391 233.281 151.091 233.381 150.824C233.481 150.557 233.781 150.424 234.047 150.524Z" fill="white"/>
<path d="M237.145 151.659L238.077 151.992C238.343 152.092 238.477 152.393 238.377 152.659C238.277 152.926 237.977 153.06 237.711 152.96L236.778 152.626C236.512 152.526 236.379 152.226 236.478 151.959C236.578 151.725 236.878 151.558 237.145 151.659Z" fill="white"/>
<path d="M240.275 152.76L241.207 153.06C241.474 153.16 241.64 153.427 241.541 153.694C241.441 153.961 241.174 154.128 240.908 154.028L239.942 153.727C239.676 153.627 239.509 153.36 239.609 153.093C239.709 152.793 240.009 152.66 240.275 152.76Z" fill="white"/>
<path d="M243.439 153.727L244.405 153.994C244.671 154.061 244.838 154.361 244.738 154.628C244.671 154.895 244.371 155.062 244.105 154.961L243.139 154.695C242.873 154.628 242.706 154.328 242.806 154.061C242.906 153.827 243.172 153.66 243.439 153.727Z" fill="white"/>
<path d="M246.636 154.628L247.602 154.861C247.868 154.928 248.035 155.195 247.968 155.495C247.901 155.762 247.635 155.929 247.335 155.862L246.369 155.595C246.103 155.529 245.937 155.262 246.003 154.961C246.07 154.661 246.369 154.561 246.636 154.628Z" fill="white"/>
<path d="M249.866 155.428L250.832 155.662C251.098 155.729 251.265 155.996 251.232 156.263C251.165 156.529 250.899 156.696 250.632 156.663L249.666 156.429C249.4 156.363 249.233 156.096 249.267 155.829C249.3 155.529 249.567 155.362 249.866 155.428Z" fill="white"/>
<path d="M253.097 156.129L254.062 156.33C254.329 156.396 254.529 156.663 254.462 156.93C254.395 157.197 254.162 157.397 253.863 157.33L252.864 157.13C252.597 157.064 252.397 156.797 252.464 156.53C252.564 156.229 252.83 156.063 253.097 156.129Z" fill="white"/>
<path d="M256.36 156.696L257.326 156.83C257.592 156.863 257.792 157.13 257.759 157.397C257.726 157.664 257.459 157.864 257.193 157.831L256.194 157.697C255.927 157.664 255.728 157.397 255.761 157.13C255.827 156.83 256.094 156.63 256.36 156.696Z" fill="white"/>
<path d="M259.657 157.13L260.656 157.23C260.923 157.264 261.123 157.497 261.089 157.797C261.056 158.064 260.823 158.264 260.523 158.231L259.524 158.131C259.258 158.098 259.058 157.864 259.091 157.564C259.124 157.297 259.358 157.097 259.657 157.13Z" fill="white"/>
<path d="M262.954 157.43L263.953 157.497C264.22 157.53 264.453 157.764 264.42 158.031C264.386 158.298 264.153 158.531 263.887 158.498L262.888 158.431C262.621 158.398 262.388 158.164 262.421 157.897C262.421 157.631 262.655 157.43 262.954 157.43Z" fill="white"/>
<path d="M266.251 157.631L267.25 157.664C267.517 157.664 267.75 157.898 267.75 158.164C267.75 158.431 267.517 158.665 267.25 158.665L266.251 158.632C265.985 158.632 265.752 158.398 265.752 158.131C265.718 157.831 265.952 157.597 266.251 157.631Z" fill="white"/>
<path d="M269.548 157.631L270.547 157.597C270.814 157.597 271.047 157.798 271.047 158.098C271.047 158.365 270.847 158.598 270.547 158.598L269.548 158.632C269.282 158.632 269.049 158.432 269.049 158.131C269.049 157.864 269.282 157.631 269.548 157.631Z" fill="white"/>
<path d="M272.845 157.497L273.844 157.431C274.111 157.397 274.344 157.597 274.377 157.898C274.41 158.198 274.211 158.398 273.911 158.432L272.912 158.498C272.645 158.532 272.412 158.331 272.379 158.031C272.379 157.731 272.579 157.497 272.845 157.497Z" fill="white"/>
<path d="M276.142 157.164L277.108 157.03C277.374 156.997 277.641 157.197 277.674 157.464C277.707 157.731 277.508 157.998 277.241 158.031L276.242 158.165C275.976 158.198 275.709 157.998 275.676 157.731C275.676 157.431 275.842 157.197 276.142 157.164Z" fill="white"/>
<path d="M279.406 156.63L280.372 156.43C280.638 156.363 280.904 156.563 280.938 156.83C281.004 157.097 280.805 157.364 280.538 157.397L279.539 157.597C279.273 157.664 279.006 157.464 278.973 157.197C278.94 156.964 279.106 156.697 279.406 156.63Z" fill="white"/>
<path d="M282.603 155.929L283.569 155.662C283.835 155.595 284.102 155.762 284.168 155.996C284.235 156.263 284.068 156.53 283.835 156.596L282.869 156.863C282.603 156.93 282.337 156.763 282.27 156.53C282.203 156.263 282.337 155.996 282.603 155.929Z" fill="white"/>
<path d="M285.767 154.995L286.699 154.661C286.966 154.561 287.232 154.695 287.332 154.962C287.432 155.229 287.299 155.496 287.032 155.596L286.066 155.929C285.8 156.029 285.534 155.896 285.434 155.629C285.367 155.362 285.5 155.095 285.767 154.995Z" fill="white"/>
<path d="M288.864 153.86L289.763 153.46C289.996 153.36 290.296 153.46 290.396 153.727C290.496 153.96 290.396 154.261 290.129 154.361L289.197 154.761C288.964 154.861 288.664 154.761 288.564 154.494C288.498 154.261 288.598 153.96 288.864 153.86Z" fill="white"/>
<path d="M291.861 152.493L292.727 152.059C292.96 151.925 293.26 152.025 293.393 152.259C293.526 152.493 293.426 152.793 293.193 152.926L292.294 153.393C292.061 153.527 291.761 153.427 291.628 153.193C291.528 152.926 291.628 152.626 291.861 152.493Z" fill="white"/>
<path d="M294.759 150.924L295.591 150.424C295.824 150.291 296.124 150.357 296.257 150.591C296.39 150.824 296.324 151.125 296.091 151.258L295.225 151.792C294.992 151.925 294.692 151.859 294.559 151.625C294.459 151.358 294.525 151.058 294.759 150.924Z" fill="white"/>
<path d="M297.556 149.123L298.355 148.555C298.588 148.389 298.888 148.455 299.021 148.656C299.188 148.889 299.121 149.189 298.921 149.323L298.089 149.923C297.856 150.09 297.556 150.024 297.423 149.823C297.256 149.59 297.323 149.29 297.556 149.123Z" fill="white"/>
<path d="M300.187 147.154L300.953 146.52C301.153 146.354 301.452 146.387 301.619 146.587C301.785 146.787 301.752 147.088 301.552 147.254L300.786 147.888C300.586 148.055 300.287 148.022 300.12 147.822C299.92 147.621 299.954 147.321 300.187 147.154Z" fill="white"/>
<path d="M302.685 144.986L303.417 144.318C303.617 144.151 303.917 144.151 304.083 144.352C304.25 144.552 304.25 144.852 304.05 145.019L303.317 145.72C303.117 145.886 302.818 145.886 302.651 145.686C302.451 145.486 302.485 145.186 302.685 144.986Z" fill="white"/>
<path d="M305.016 142.684L305.682 141.95C305.848 141.749 306.181 141.749 306.348 141.916C306.548 142.083 306.548 142.417 306.381 142.583L305.682 143.317C305.515 143.518 305.182 143.518 305.016 143.351C304.849 143.184 304.816 142.884 305.016 142.684Z" fill="white"/>
<path d="M307.214 140.214L307.846 139.447C308.013 139.247 308.313 139.213 308.513 139.38C308.712 139.547 308.746 139.847 308.579 140.048L307.946 140.815C307.78 141.015 307.48 141.048 307.28 140.882C307.081 140.715 307.047 140.415 307.214 140.214Z" fill="white"/>
<path d="M309.245 137.612L309.845 136.811C310.011 136.611 310.311 136.544 310.511 136.711C310.711 136.878 310.777 137.178 310.611 137.379L310.011 138.179C309.845 138.379 309.545 138.446 309.345 138.279C309.145 138.113 309.112 137.846 309.245 137.612Z" fill="white"/>
<path d="M311.144 134.91L311.676 134.076C311.81 133.842 312.109 133.809 312.342 133.942C312.576 134.076 312.609 134.376 312.476 134.609L311.943 135.443C311.81 135.677 311.51 135.744 311.277 135.577C311.077 135.41 311.01 135.11 311.144 134.91Z" fill="white"/>
<path d="M312.909 132.074L313.408 131.206C313.541 130.972 313.841 130.906 314.041 131.039C314.274 131.173 314.341 131.473 314.207 131.673L313.708 132.541C313.575 132.774 313.275 132.841 313.075 132.707C312.842 132.607 312.775 132.307 312.909 132.074Z" fill="white"/>
<path d="M314.474 129.171L314.907 128.27C315.04 128.036 315.306 127.936 315.539 128.07C315.773 128.203 315.873 128.47 315.739 128.704L315.273 129.605C315.14 129.838 314.873 129.938 314.64 129.805C314.441 129.705 314.374 129.438 314.474 129.171Z" fill="white"/>
<path d="M315.906 126.202L316.305 125.301C316.405 125.067 316.672 124.967 316.938 125.067C317.171 125.167 317.271 125.434 317.171 125.701L316.772 126.635C316.672 126.869 316.405 126.969 316.139 126.869C315.906 126.735 315.806 126.435 315.906 126.202Z" fill="white"/>
<path d="M317.205 123.132L317.571 122.198C317.671 121.964 317.937 121.831 318.17 121.931C318.403 122.031 318.537 122.298 318.437 122.531L318.07 123.466C317.971 123.699 317.704 123.833 317.471 123.732C317.238 123.666 317.105 123.399 317.205 123.132Z" fill="white"/>
<path d="M318.337 120.029L318.637 119.095C318.703 118.861 318.97 118.728 319.236 118.795C319.469 118.861 319.602 119.128 319.536 119.395L319.236 120.363C319.169 120.596 318.903 120.73 318.637 120.663C318.37 120.529 318.237 120.296 318.337 120.029Z" fill="white"/>
<path d="M319.303 116.859L319.569 115.892C319.636 115.658 319.902 115.492 320.135 115.558C320.368 115.625 320.535 115.892 320.468 116.125L320.202 117.093C320.135 117.327 319.869 117.493 319.636 117.427C319.369 117.36 319.236 117.126 319.303 116.859Z" fill="white"/>
<path d="M320.102 113.656L320.302 112.689C320.368 112.455 320.602 112.289 320.868 112.322C321.134 112.355 321.268 112.622 321.234 112.889L321.034 113.857C320.968 114.124 320.735 114.257 320.468 114.224C320.202 114.157 320.069 113.923 320.102 113.656Z" fill="white"/>
<path d="M320.768 110.387L320.935 109.419C320.968 109.152 321.201 108.985 321.467 109.052C321.734 109.119 321.9 109.319 321.834 109.586L321.667 110.587C321.634 110.854 321.401 111.021 321.134 110.954C320.901 110.887 320.735 110.654 320.768 110.387Z" fill="white"/>
<path d="M321.267 107.117L321.401 106.116C321.434 105.883 321.667 105.682 321.9 105.716C322.133 105.749 322.333 105.983 322.3 106.216L322.167 107.217C322.133 107.484 321.9 107.651 321.667 107.618C321.434 107.618 321.234 107.384 321.267 107.117Z" fill="white"/>
<path d="M321.634 103.848L321.7 102.847C321.734 102.613 321.934 102.413 322.167 102.446C322.4 102.48 322.6 102.68 322.566 102.913L322.5 103.914C322.466 104.148 322.267 104.348 322.033 104.348C321.8 104.315 321.601 104.081 321.634 103.848Z" fill="white"/>
<path d="M321.8 100.511L321.834 99.5101C321.834 99.2766 322.034 99.0764 322.3 99.0764C322.533 99.0764 322.733 99.2766 322.733 99.5435L322.7 100.544C322.7 100.778 322.5 100.978 322.233 100.978C322 100.978 321.8 100.778 321.8 100.511Z" fill="white"/>
<path d="M321.834 97.2079L321.8 96.2069C321.8 95.9734 322 95.7732 322.233 95.7732C322.466 95.7732 322.666 95.9734 322.666 96.2069L322.7 97.2079C322.7 97.4414 322.5 97.6416 322.267 97.6749C322.067 97.6416 321.867 97.4748 321.834 97.2079Z" fill="white"/>
<path d="M321.734 93.9048L321.667 92.9039C321.667 92.6703 321.834 92.4701 322.067 92.4368C322.3 92.4368 322.5 92.6036 322.533 92.8371L322.6 93.8381C322.633 94.0716 322.433 94.3052 322.2 94.3052C321.934 94.3385 321.734 94.1384 321.734 93.9048Z" fill="white"/>
<path d="M321.434 90.6017L321.334 89.6007C321.301 89.3672 321.467 89.1336 321.701 89.1336C321.934 89.1003 322.133 89.2671 322.167 89.5006L322.3 90.5016C322.333 90.7351 322.167 90.9687 321.934 90.9687C321.7 91.0021 321.467 90.8352 321.434 90.6017Z" fill="white"/>
<path d="M321.001 87.2986L320.835 86.331C320.801 86.0974 320.968 85.8639 321.168 85.8305C321.401 85.7971 321.634 85.9306 321.667 86.1642L321.834 87.1651C321.867 87.3986 321.7 87.6322 321.501 87.6656C321.268 87.6989 321.034 87.5321 321.001 87.2986Z" fill="white"/>
<path d="M320.402 84.029L320.202 83.0614C320.169 82.8279 320.302 82.5943 320.535 82.561C320.768 82.5276 321.001 82.6611 321.034 82.8946L321.268 83.8622C321.334 84.0957 321.168 84.3293 320.935 84.3626C320.668 84.4294 320.435 84.2959 320.402 84.029Z" fill="white"/>
<path d="M319.636 80.826L319.369 79.8585C319.303 79.6249 319.436 79.4247 319.669 79.358C319.902 79.2913 320.102 79.4247 320.169 79.6583L320.435 80.6258C320.502 80.8594 320.368 81.0929 320.135 81.1263C319.935 81.193 319.702 81.0596 319.636 80.826Z" fill="white"/>
<path d="M318.703 77.6231L318.403 76.6889C318.337 76.4887 318.437 76.2552 318.67 76.1551C318.87 76.0883 319.103 76.1884 319.203 76.422L319.503 77.3895C319.569 77.5897 319.469 77.8233 319.236 77.9234C319.003 77.9901 318.803 77.8566 318.703 77.6231Z" fill="white"/>
<path d="M317.638 74.4869L317.271 73.5527C317.205 73.3525 317.305 73.119 317.504 73.0189C317.704 72.9521 317.937 73.0522 318.037 73.2524L318.404 74.1866C318.47 74.3868 318.37 74.6203 318.17 74.7204C317.937 74.8205 317.704 74.7204 317.638 74.4869Z" fill="white"/>
<path d="M316.372 71.4173L315.972 70.5164C315.873 70.3163 315.972 70.0827 316.172 69.9826C316.372 69.8825 316.605 69.9826 316.705 70.1828L317.105 71.117C317.205 71.3172 317.105 71.5507 316.905 71.6508C316.705 71.7175 316.472 71.6508 316.372 71.4173Z" fill="white"/>
<path d="M314.973 68.4145L314.507 67.5136C314.407 67.3135 314.474 67.0799 314.674 66.9798C314.873 66.8797 315.107 66.9465 315.206 67.1466L315.673 68.0475C315.773 68.2477 315.706 68.4812 315.506 68.5813C315.34 68.7148 315.073 68.648 314.973 68.4145Z" fill="white"/>
<path d="M313.408 65.512L312.909 64.6446C312.809 64.4444 312.875 64.2108 313.042 64.1107C313.242 64.0107 313.475 64.0774 313.575 64.2442L314.074 65.1117C314.174 65.3119 314.107 65.5454 313.941 65.6455C313.774 65.779 313.541 65.7122 313.408 65.512Z" fill="white"/>
<path d="M311.676 62.676L311.143 61.8419C311.01 61.6751 311.077 61.4081 311.243 61.3081C311.41 61.1746 311.643 61.2413 311.776 61.4082L312.342 62.2423C312.476 62.4091 312.409 62.676 312.242 62.7761C312.043 62.9095 311.81 62.8762 311.676 62.676Z" fill="white"/>
<path d="M309.811 59.9401L309.212 59.1394C309.079 58.9726 309.112 58.739 309.279 58.6055C309.445 58.4721 309.678 58.5054 309.811 58.6723L310.411 59.473C310.544 59.6398 310.511 59.8734 310.344 60.0068C310.178 60.1737 309.945 60.1403 309.811 59.9401Z" fill="white"/>
<path d="M307.813 57.3045L307.18 56.5371C307.047 56.3703 307.08 56.1367 307.247 56.0032C307.413 55.8698 307.647 55.9032 307.78 56.07L308.413 56.8373C308.546 57.0042 308.512 57.2377 308.346 57.3712C308.179 57.5046 307.946 57.4713 307.813 57.3045Z" fill="white"/>
<path d="M305.682 54.7687L305.016 54.0346C304.883 53.8678 304.883 53.6343 305.049 53.5008C305.216 53.3674 305.449 53.3674 305.582 53.5342L306.248 54.2682C306.381 54.435 306.381 54.6686 306.215 54.802C306.048 54.9355 305.815 54.9355 305.682 54.7687Z" fill="white"/>
<path d="M303.417 52.3329L302.718 51.6323C302.585 51.4988 302.585 51.2653 302.718 51.1318C302.851 50.9984 303.084 50.9984 303.217 51.1318L303.917 51.8325C304.05 51.9659 304.05 52.1995 303.917 52.3663C303.817 52.4998 303.584 52.4998 303.417 52.3329Z" fill="white"/>
<path d="M301.053 50.0307L300.32 49.3634C300.187 49.23 300.153 48.9964 300.287 48.863C300.42 48.7295 300.653 48.6961 300.786 48.8296L301.519 49.4969C301.652 49.6303 301.685 49.8639 301.552 49.9973C301.452 50.1308 301.219 50.1642 301.053 50.0307Z" fill="white"/>
<path d="M298.588 47.8287L297.822 47.1948C297.656 47.0613 297.656 46.8612 297.789 46.6943C297.922 46.5275 298.122 46.5275 298.289 46.661L299.055 47.2949C299.221 47.4283 299.221 47.6619 299.088 47.7954C298.955 47.9288 298.722 47.9288 298.588 47.8287Z" fill="white"/>
<path d="M295.991 45.7601L295.191 45.1596C295.025 45.0595 294.992 44.8259 295.125 44.6591C295.225 44.4923 295.458 44.4589 295.624 44.5924L296.424 45.1929C296.59 45.293 296.623 45.5266 296.49 45.6934C296.39 45.8268 296.157 45.8602 295.991 45.7601Z" fill="white"/>
<path d="M293.293 43.825L292.461 43.2578C292.294 43.1577 292.261 42.9241 292.361 42.7907C292.461 42.6239 292.694 42.5905 292.827 42.6906L293.659 43.2578C293.826 43.3579 293.859 43.5914 293.759 43.7249C293.693 43.8917 293.46 43.925 293.293 43.825Z" fill="white"/>
<path d="M290.496 42.0234L289.63 41.5229C289.463 41.4228 289.43 41.2226 289.497 41.0558C289.596 40.889 289.796 40.8556 289.963 40.9224L290.829 41.4228C290.995 41.5229 291.062 41.7231 290.962 41.8899C290.895 42.0567 290.696 42.1235 290.496 42.0234Z" fill="white"/>
<path d="M287.632 40.4219L286.733 39.9548C286.566 39.8881 286.499 39.6879 286.599 39.5211C286.666 39.3542 286.866 39.2875 287.032 39.3876L287.931 39.8547C288.098 39.9214 288.165 40.1216 288.065 40.2884C287.998 40.4219 287.798 40.4886 287.632 40.4219Z" fill="white"/>
<path d="M284.634 38.9537L283.735 38.5534C283.569 38.4866 283.502 38.2865 283.569 38.1196C283.635 37.9528 283.835 37.8861 284.002 37.9528L284.934 38.3532C285.101 38.4199 285.167 38.6201 285.101 38.7869C285.001 38.9537 284.801 39.0538 284.634 38.9537Z" fill="white"/>
<path d="M281.571 37.7194L280.638 37.3858C280.472 37.319 280.405 37.1522 280.438 36.9854C280.505 36.8186 280.671 36.7518 280.838 36.7852L281.804 37.1188C281.97 37.1856 282.07 37.3524 282.003 37.5192C281.937 37.686 281.737 37.7861 281.571 37.7194Z" fill="white"/>
<path d="M278.44 36.6851L277.474 36.4182C277.308 36.3848 277.208 36.218 277.275 36.0512C277.308 35.8843 277.474 35.7843 277.641 35.851L278.607 36.1179C278.773 36.1513 278.873 36.3181 278.806 36.4849C278.773 36.6517 278.607 36.7184 278.44 36.6851Z" fill="white"/>
<path d="M275.21 35.8844L274.244 35.6842C274.078 35.6508 273.978 35.484 274.011 35.3505C274.044 35.1837 274.211 35.0836 274.344 35.117L275.343 35.3172C275.509 35.3505 275.609 35.5174 275.576 35.6508C275.543 35.8176 275.376 35.9177 275.21 35.8844Z" fill="white"/>
<path d="M271.979 35.3506L270.98 35.2505C270.814 35.2172 270.714 35.0837 270.714 34.9503C270.747 34.7834 270.88 34.6833 271.014 34.6833L272.013 34.7834C272.179 34.8168 272.279 34.9503 272.279 35.1171C272.279 35.2505 272.146 35.3506 271.979 35.3506Z" fill="white"/>
<path d="M268.682 35.0503L267.683 35.0169C267.517 35.0169 267.417 34.8834 267.417 34.7166C267.417 34.5498 267.55 34.4497 267.717 34.4497L268.716 34.4831C268.882 34.4831 268.982 34.6165 268.982 34.7834C268.949 34.9168 268.816 35.0503 268.682 35.0503Z" fill="white"/>
<path d="M265.352 35.0167L264.353 35.0501C264.22 35.0501 264.087 34.95 264.087 34.7832C264.087 34.6497 264.187 34.5163 264.353 34.5163L265.352 34.4829C265.485 34.4829 265.619 34.583 265.619 34.7498C265.619 34.8833 265.519 35.0167 265.352 35.0167Z" fill="white"/>
<path d="M262.055 35.1838L261.056 35.2839C260.923 35.2839 260.79 35.1838 260.79 35.0504C260.79 34.9169 260.889 34.7834 261.023 34.7834L262.022 34.6833C262.155 34.6833 262.288 34.7834 262.321 34.9169C262.288 35.0504 262.188 35.1838 262.055 35.1838Z" fill="white"/>
<path d="M258.758 35.5841L257.792 35.7509C257.659 35.7843 257.526 35.6842 257.493 35.5507C257.459 35.4173 257.559 35.2838 257.692 35.2504L258.692 35.0836C258.825 35.0503 258.958 35.1503 258.991 35.2838C258.991 35.4173 258.891 35.5507 258.758 35.5841Z" fill="white"/>
<path d="M255.494 36.1846L254.529 36.4181C254.395 36.4515 254.262 36.3514 254.229 36.2513C254.196 36.1179 254.262 35.9844 254.395 35.951L255.361 35.7175C255.494 35.6841 255.628 35.7509 255.661 35.8843C255.728 36.0178 255.628 36.1512 255.494 36.1846Z" fill="white"/>
<path d="M252.297 37.0187L251.365 37.319C251.232 37.3524 251.098 37.2856 251.065 37.1522C251.032 37.0187 251.098 36.8853 251.198 36.8519L252.164 36.5183C252.297 36.4849 252.431 36.5516 252.464 36.6851C252.497 36.8519 252.431 36.9854 252.297 37.0187Z" fill="white"/>
<path d="M249.2 38.1531L248.301 38.5534C248.201 38.6202 248.068 38.5534 248.001 38.4533C247.935 38.3532 248.001 38.2198 248.101 38.1531L249.034 37.7527C249.134 37.686 249.3 37.7527 249.333 37.8528C249.367 37.9862 249.333 38.1197 249.2 38.1531Z" fill="white"/>
<path d="M246.236 39.6212L245.37 40.1217C245.27 40.1884 245.137 40.155 245.071 40.0549C245.004 39.9549 245.037 39.8214 245.137 39.7547L246.003 39.2542C246.103 39.1875 246.236 39.2208 246.303 39.3209C246.369 39.421 246.336 39.5545 246.236 39.6212Z" fill="white"/>
<path d="M243.439 41.3896L242.64 41.9901C242.54 42.0569 242.406 42.0569 242.34 41.9568C242.273 41.8567 242.273 41.7232 242.373 41.6565L243.172 41.0226C243.272 40.9559 243.406 40.9559 243.472 41.0559C243.572 41.1894 243.539 41.3229 243.439 41.3896Z" fill="white"/>
<path d="M240.941 43.5247L240.242 44.2254C240.175 44.2921 240.042 44.2921 239.942 44.2254C239.875 44.1587 239.875 44.0252 239.942 43.9251L240.641 43.1911C240.708 43.1244 240.841 43.091 240.941 43.1911C241.008 43.3246 241.008 43.458 240.941 43.5247Z" fill="white"/>
<path d="M238.776 46.0272L238.21 46.8279C238.144 46.928 238.044 46.928 237.944 46.8613C237.844 46.7946 237.844 46.6945 237.911 46.5944L238.477 45.7603C238.543 45.6602 238.677 45.6602 238.743 45.7269C238.81 45.7937 238.843 45.9271 238.776 46.0272Z" fill="white"/>
<path d="M237.011 48.8296L236.578 49.7304C236.545 49.8305 236.412 49.8638 236.345 49.8305C236.245 49.7971 236.212 49.6637 236.245 49.5969L236.678 48.6961C236.712 48.596 236.845 48.5626 236.945 48.596C237.045 48.6294 237.078 48.7295 237.011 48.8296Z" fill="white"/>
<path d="M235.779 51.8992L235.513 52.8668C235.479 52.9669 235.38 53.0336 235.28 53.0002C235.18 52.9669 235.113 52.8668 235.146 52.7667L235.413 51.7991C235.446 51.699 235.546 51.6323 235.646 51.6657C235.779 51.699 235.812 51.7991 235.779 51.8992Z" fill="white"/>
<path d="M235.113 55.1355L235.013 56.1364C235.013 56.2365 234.913 56.3032 234.813 56.3032C234.713 56.3032 234.647 56.2031 234.647 56.103L234.747 55.1021C234.747 55.002 234.847 54.9353 234.947 54.9353C235.046 54.9353 235.113 55.002 235.113 55.1355Z" fill="white"/>
<path d="M98.0053 140.381C98.0053 140.381 98.5048 145.052 100.237 145.953C97.0395 148.122 95.5076 149.223 95.5076 149.223L94.4419 142.85L98.0053 140.381Z" fill="url(#paint18_linear)"/>
<path d="M129.71 185.156C129.676 185.156 111.06 152.459 108.529 149.39C108.096 148.889 107.463 148.622 106.797 148.689L101.602 149.323L95.5076 162.569L105.665 156.63C104.666 163.603 117.721 173.979 122.216 177.749C122.683 178.15 122.716 178.817 122.283 179.251L120.485 181.119C123.415 184.089 126.812 186.024 130.642 186.891L129.71 185.156Z" fill="url(#paint19_linear)"/>
<path d="M121.517 180.085C121.517 180.085 120.385 180.452 119.985 181.486C119.785 181.986 119.985 182.52 120.418 182.821C122.283 184.155 128.511 188.526 131.375 189.393C131.608 189.46 131.841 189.26 131.774 189.026C131.641 188.359 131.142 187.025 129.61 185.089L129.743 185.356C129.909 185.723 129.543 186.09 129.177 185.89C127.312 184.789 123.415 182.42 121.517 180.085Z" fill="url(#paint20_linear)"/>
<path d="M122.45 193.163C122.416 193.13 119.619 186.391 119.586 186.391C117.021 170.776 110.76 157.397 108.929 153.86C108.629 153.26 108.029 152.893 107.363 152.826L102.135 152.392L93.4762 164.103L104.633 160.366C102.235 167.006 112.925 179.784 116.555 184.389C116.921 184.856 116.821 185.523 116.322 185.89L114.191 187.358C116.455 190.861 119.386 193.43 122.949 195.065L122.45 193.163Z" fill="url(#paint21_linear)"/>
<path d="M115.456 186.557C115.456 186.557 114.257 186.691 113.691 187.592C113.425 188.025 113.491 188.626 113.857 188.993C115.423 190.695 120.618 196.233 123.249 197.634C123.449 197.734 123.715 197.601 123.715 197.334C123.715 196.667 123.515 195.265 122.416 193.03L122.483 193.33C122.583 193.697 122.117 193.998 121.85 193.731C120.185 192.329 116.855 189.193 115.456 186.557Z" fill="url(#paint22_linear)"/>
<path d="M77.7572 149.89C77.7572 149.89 73.0282 156.93 72.6619 160.133C72.2622 163.336 73.9607 164.437 78.8895 164.871C93.576 166.072 100.836 161.668 100.836 161.668C101.835 155.262 101.402 154.695 109.795 151.225C109.795 151.225 109.761 149.156 107.63 148.322C105.465 147.488 77.7572 149.89 77.7572 149.89Z" fill="url(#paint23_linear)"/>
<path d="M98.2051 118.795C100.869 118.761 103.667 119.462 104.799 117.86C106.464 115.525 103.933 109.119 99.6371 107.451C95.1745 105.716 92.0441 110.387 87.2818 108.685C83.5519 107.351 83.8516 103.914 80.3548 101.345C74.5934 97.0411 63.0706 98.5091 58.7745 104.248C51.7476 113.59 63.8033 134.509 72.9616 134.776C81.1207 134.976 85.6166 118.928 98.2051 118.795Z" fill="url(#paint24_linear)"/>
<path d="M90.5122 148.956C90.5122 148.956 96.0072 143.718 98.7047 140.248C100.17 138.379 100.636 135.91 99.9369 133.608C98.7047 129.438 96.5067 125.134 96.3069 124.466C96.0072 123.432 89.8461 123.465 89.8461 123.465C89.8461 123.465 77.7239 131.339 72.9616 144.685L78.3234 146.353C78.3234 146.353 81.4871 141.048 84.6176 137.645C84.6176 137.645 79.2225 144.819 79.0227 147.755L90.5122 148.956Z" fill="url(#paint25_linear)"/>
<path d="M94.0756 116.058L89.946 123.766C90.2125 125.434 94.4419 125.501 95.108 124.5C95.1746 124.4 95.2079 124.266 95.2412 124.166L97.7056 119.028C97.8055 118.527 96.4401 116.826 95.9739 116.592L94.342 115.725C93.7093 115.358 96.3735 115.324 94.0756 116.058Z" fill="url(#paint26_linear)"/>
<path d="M102.468 114.257C102.468 114.257 102.934 116.86 100.903 120.163C98.8712 123.466 96.8064 123.332 95.7741 122.131C94.7417 120.963 93.5095 118.995 94.0756 115.692C94.6418 112.389 101.769 110.921 102.468 114.257Z" fill="url(#paint27_linear)"/>
<path d="M96.54 116.059C96.54 116.059 99.837 111.688 102.401 115.492L102.368 116.793C102.368 116.793 104.266 117.827 103.9 114.791C103.534 111.755 102.235 108.452 98.5049 109.486C94.775 110.52 92.577 111.722 92.144 114.324C91.7111 116.926 93.8425 116.493 93.8425 116.493C93.8425 116.493 94.6417 114.691 95.6408 114.591C96.6066 114.457 96.2736 115.892 96.2736 115.892L96.54 116.059Z" fill="url(#paint28_linear)"/>
<path d="M95.774 115.959C95.774 115.959 97.4725 113.723 95.9406 113.256C94.3753 112.789 94.4419 115.425 94.5418 116.426L95.774 115.959Z" fill="url(#paint29_linear)"/>
<path opacity="0.39" d="M82.0532 116.493C82.1199 116.493 82.1532 116.493 82.2198 116.493C84.1846 116.426 86.2161 115.458 88.4141 113.556C91.8443 110.587 93.1431 110.087 95.8406 110.087C95.9072 110.087 96.0071 110.087 96.0737 110.087V109.986C96.0071 109.986 95.9072 109.986 95.8406 109.986C93.1431 109.986 91.7444 110.487 88.3475 113.49C86.1828 115.391 84.1846 116.326 82.2198 116.392C80.1217 116.459 77.9237 115.158 76.2252 112.856C75.4926 111.855 74.8598 110.72 74.2604 109.653C73.6942 108.652 73.0948 107.584 72.4287 106.617C71.9292 105.916 71.1299 104.915 70.0309 104.381C68.9319 103.847 67.6997 103.914 66.8672 104.515L66.9338 104.615C67.733 104.014 68.9319 103.981 69.9976 104.481C71.0633 105.015 71.8626 105.983 72.3288 106.683C72.9949 107.651 73.5943 108.685 74.1605 109.686C74.7599 110.787 75.3927 111.888 76.1253 112.923C77.7905 115.191 79.9552 116.493 82.0532 116.493Z" fill="white"/>
<path opacity="0.39" d="M81.4205 119.262C81.6203 119.262 81.8201 119.262 82.0199 119.228C83.3187 119.095 84.8173 118.294 85.2503 116.859L85.1504 116.826C84.7174 118.194 83.2521 118.961 82.0199 119.095C80.3881 119.295 78.5897 118.694 76.8913 117.427C75.759 116.592 74.7932 115.592 73.8274 114.591C73.5277 114.257 73.1947 113.923 72.8616 113.59C71.4296 112.155 69.8644 110.82 68.2325 109.619C67.1335 108.819 65.9679 108.118 64.6358 108.118C64.6025 108.118 64.5359 108.118 64.5026 108.118C63.7367 108.151 62.9041 108.585 62.4378 109.219C62.0715 109.719 61.9383 110.253 62.0382 110.787L62.1381 110.754C62.0382 110.253 62.1381 109.719 62.5045 109.286C62.9707 108.685 63.7367 108.285 64.5026 108.251C65.8347 108.218 67.0336 108.952 68.1326 109.719C69.7645 110.887 71.3297 112.222 72.7617 113.656C73.0947 113.99 73.4278 114.324 73.7275 114.657C74.6933 115.658 75.6591 116.693 76.7914 117.527C78.3233 118.661 79.9551 119.262 81.4205 119.262Z" fill="white"/>
<path opacity="0.39" d="M80.1217 120.93C80.6212 120.93 81.1208 120.83 81.6203 120.596L81.587 120.496C79.8219 121.397 77.7572 120.262 76.9246 119.729C75.9921 119.128 75.1596 118.427 74.2937 117.727C72.9283 116.559 71.4962 115.391 69.7978 114.757C68.9319 114.424 68.1326 114.324 67.4 114.457C66.5341 114.591 65.8015 115.091 65.4351 115.758L65.535 115.825C65.8681 115.158 66.6007 114.691 67.4333 114.557C68.1326 114.457 68.8986 114.557 69.7645 114.857C71.4629 115.491 72.8617 116.659 74.2271 117.827C75.0596 118.528 75.9255 119.262 76.858 119.862C77.5907 120.262 78.8562 120.93 80.1217 120.93Z" fill="white"/>
<path d="M112.958 131.807C112.892 131.673 112.759 131.573 112.592 131.54C112.425 131.506 112.292 131.606 112.192 131.74L102.135 150.124L106.597 151.925L116.355 142.85L117.188 142.016L112.958 131.807Z" fill="url(#paint30_linear)"/>
<path d="M111.626 132.24C111.56 132.107 111.426 132.007 111.293 132.007C111.127 132.007 110.993 132.074 110.927 132.174L102.901 143.618L116.355 142.15C115.889 141.916 112.659 134.543 111.626 132.24Z" fill="white"/>
<path d="M105.998 135.043C105.898 134.976 105.798 134.943 105.698 134.976C105.598 134.976 105.498 135.043 105.432 135.143L103.833 137.245L115.756 142.483L105.998 135.043Z" fill="white"/>
<path d="M104.699 135.343C104.599 135.276 104.499 135.276 104.366 135.276C104.266 135.31 104.166 135.376 104.1 135.477L95.3744 149.523C95.3078 149.656 95.3078 149.79 95.3411 149.923C95.4077 150.057 95.5076 150.157 95.6408 150.157L106.564 151.992L116.322 142.917L104.699 135.343Z" fill="url(#paint31_linear)"/>
<path d="M115.323 142.216L116.655 140.781L117.188 142.016L116.355 142.883L115.323 142.216Z" fill="url(#paint32_linear)"/>
<path d="M100.969 151.024L96.8397 146.52L92.0774 147.821C92.0774 147.821 86.5158 148.689 83.3521 147.821C80.155 146.954 80.155 146.954 80.155 146.954L72.9616 144.719L71.8293 147.921C71.5296 148.722 71.8293 149.623 72.5287 150.124C73.1614 150.557 73.8941 151.058 74.3603 151.258C75.2928 151.658 96.1737 151.391 96.1737 151.391L100.969 151.024Z" fill="url(#paint33_linear)"/>
<path d="M246.103 159.233C246.07 159.333 243.206 161.435 243.206 161.435C243.206 161.435 243.838 165.972 246.403 167.74C249.233 169.709 253.197 166.106 253.197 166.106C253.197 166.106 256.36 166.873 258.059 160.267C258.458 158.765 256.227 158.632 253.53 158.899C250.033 159.266 246.103 159.233 246.103 159.233Z" fill="url(#paint34_linear)"/>
<path d="M240.741 174.68C241.874 173.913 243.106 173.312 244.405 172.979C244.904 172.845 247.568 173.613 249.2 173.579C251.465 173.513 253.763 172.512 255.628 172.979C257.459 173.446 258.991 174.046 259.857 174.68C262.455 176.549 264.02 180.019 264.953 183.455C263.187 185.29 260.956 186.091 260.956 186.091L260.557 202.806L250.699 207.878L239.443 202.206L239.842 185.857C239.842 185.857 236.279 184.189 236.012 183.589C235.679 182.955 237.578 176.849 240.741 174.68Z" fill="url(#paint35_linear)"/>
<path d="M236.112 183.489C236.112 183.489 231.317 196.801 242.24 202.273C244.505 201.972 243.639 198.202 243.639 198.202C243.639 198.202 238.876 197.135 240.308 186.058C239.01 184.957 236.112 183.489 236.112 183.489Z" fill="url(#paint36_linear)"/>
<path d="M264.719 183.489C264.719 183.489 268.016 197.401 258.592 202.273C256.327 201.972 257.193 198.202 257.193 198.202C257.193 198.202 261.023 196.3 260.523 186.058C261.822 184.957 264.719 183.489 264.719 183.489Z" fill="url(#paint37_linear)"/>
<path d="M244.405 172.979C244.405 172.979 245.404 177.316 250.233 177.216C255.195 177.116 255.628 172.979 255.628 172.979L252.397 172.278L252.131 168.675L247.302 169.042L247.202 172.445L244.405 172.979Z" fill="url(#paint38_linear)"/>
<path d="M247.968 158.499C247.968 158.499 242.406 169.275 249 171.878C253.663 173.713 256.56 164.738 255.694 162.269C254.362 158.499 253.463 158.932 253.463 158.932L247.968 158.499Z" fill="url(#paint39_linear)"/>
<path d="M257.026 157.497C259.757 158.265 257.426 164.204 253.296 162.802C249.167 161.401 247.535 161.401 246.902 162.535C246.27 163.67 246.136 167.707 244.738 165.705C243.206 163.503 242.34 159.132 244.238 157.731C245.903 156.463 246.303 154.495 248.334 154.561C250.999 154.661 253.063 153.46 254.262 154.328C255.628 155.329 254.995 156.964 257.026 157.497Z" fill="url(#paint40_linear)"/>
<path d="M246.636 163.503C246.636 163.503 245.437 162.235 245.271 163.77C245.071 165.305 245.703 167.307 246.403 166.206C247.102 165.105 246.636 163.503 246.636 163.503Z" fill="url(#paint41_linear)"/>
<path d="M262.954 184.389C262.788 184.256 262.555 184.222 262.355 184.289L249.733 187.926L237.244 184.289C237.045 184.222 236.645 184.256 236.478 184.389C236.312 184.523 236.012 184.69 236.012 184.89V185.557L249.666 190.195L263.321 186.324V184.923C263.287 184.69 263.121 184.523 262.954 184.389Z" fill="white"/>
<path d="M249.467 187.926L236.445 184.823C236.245 184.79 236.046 184.823 235.912 184.957C235.746 185.09 235.679 185.257 235.679 185.457L235.979 199.97C235.979 200.271 236.212 200.538 236.478 200.571L249.8 203.307L249.467 187.926Z" fill="url(#paint42_linear)"/>
<path d="M250.499 187.926L263.52 184.823C263.72 184.79 263.92 184.823 264.053 184.957C264.22 185.09 264.286 185.257 264.286 185.457L263.987 199.97C263.987 200.271 263.753 200.538 263.487 200.571L250.166 203.307L250.499 187.926Z" fill="url(#paint43_linear)"/>
<path d="M250.965 187.959C250.965 187.592 250.665 187.325 250.332 187.325H248.601C248.234 187.325 247.968 187.625 247.968 187.959V202.706C247.968 203.073 248.268 203.34 248.601 203.34H250.332C250.699 203.34 250.965 203.04 250.965 202.706V187.959Z" fill="url(#paint44_linear)"/>
<g opacity="0.9">
<path opacity="0.9" d="M260.923 192.063L258.725 192.43L258.658 189.427C258.658 189.26 258.525 189.16 258.358 189.194L257.592 189.327C257.426 189.36 257.326 189.494 257.326 189.661L257.393 192.63L255.161 192.997C254.995 193.031 254.895 193.164 254.895 193.331L254.928 194.098C254.928 194.265 255.061 194.365 255.228 194.332L257.459 193.965L257.626 202.206C257.626 202.373 257.759 202.473 257.892 202.439L258.625 202.339C258.791 202.306 258.891 202.172 258.891 202.039L258.758 193.765L260.923 193.431C261.089 193.398 261.222 193.264 261.189 193.097V192.33C261.222 192.13 261.089 192.03 260.923 192.063Z" fill="#DDDEE0"/>
</g>
<path d="M238.443 190.328C238.144 189.561 236.612 190.395 236.079 190.728C236.046 190.762 235.979 190.762 235.946 190.728C235.912 190.695 235.879 190.662 235.879 190.628L235.746 189.494L235.246 190.562C234.447 191.729 235.08 194.599 235.08 194.599C235.28 195.866 236.745 195.466 237.844 195.066C238.943 194.699 238.81 191.229 238.443 190.328Z" fill="url(#paint45_linear)"/>
<path d="M261.489 190.328C261.789 189.561 263.321 190.395 263.853 190.728C263.887 190.762 263.953 190.762 263.987 190.728C264.02 190.695 264.053 190.662 264.053 190.628L264.186 189.494L264.686 190.562C265.485 191.729 264.852 194.599 264.852 194.599C264.653 195.866 263.187 195.466 262.088 195.066C260.989 194.699 261.156 191.229 261.489 190.328Z" fill="url(#paint46_linear)"/>
<path d="M270.381 207.544C267.916 206.977 262.188 207.277 262.188 207.277L261.955 207.911L261.556 211.047C261.556 211.047 267.017 212.048 269.681 212.015C269.948 212.015 270.214 211.982 270.447 211.915C270.514 211.848 270.614 211.781 270.681 211.681C271.846 210.447 271.513 208.612 270.381 207.544Z" fill="url(#paint47_linear)"/>
<path d="M270.647 207.611C270.581 207.577 270.481 207.577 270.414 207.544C271.546 208.612 271.879 210.447 270.714 211.681C270.647 211.748 270.547 211.848 270.481 211.915C272.479 211.281 272.712 208.178 270.647 207.611Z" fill="url(#paint48_linear)"/>
<path d="M260.556 207.11L261.522 207.144C262.055 207.177 262.521 207.411 262.888 207.844C263.254 208.278 263.421 208.845 263.387 209.413C263.354 209.88 263.187 210.313 262.854 210.614C262.555 210.914 262.122 211.081 261.722 211.047L260.223 210.947L260.556 207.11Z" fill="url(#paint49_linear)"/>
<path d="M265.752 210.446C265.685 210.446 265.619 210.413 265.619 210.313C265.385 209.312 264.42 208.311 264.386 208.311C264.32 208.244 264.32 208.144 264.386 208.078C264.453 208.011 264.52 208.011 264.586 208.078C264.619 208.111 265.619 209.145 265.885 210.213C265.918 210.313 265.852 210.38 265.785 210.413C265.752 210.446 265.752 210.446 265.752 210.446Z" fill="url(#paint50_linear)"/>
<path d="M264.42 210.347H264.386C264.32 210.313 264.253 210.246 264.286 210.146C264.619 208.979 265.818 208.078 265.885 208.044C265.952 208.011 266.052 208.011 266.085 208.078C266.118 208.144 266.118 208.245 266.052 208.311C266.052 208.311 264.853 209.212 264.553 210.246C264.553 210.313 264.486 210.347 264.42 210.347Z" fill="url(#paint51_linear)"/>
<path d="M268.383 210.58C268.316 210.58 268.249 210.513 268.249 210.447C268.05 209.446 267.117 208.378 267.117 208.378C267.051 208.311 267.051 208.211 267.117 208.145C267.184 208.078 267.25 208.078 267.317 208.145C267.35 208.178 268.316 209.279 268.516 210.347C268.516 210.48 268.483 210.58 268.383 210.58Z" fill="url(#paint52_linear)"/>
<path d="M267.051 210.447H267.017C266.951 210.413 266.917 210.313 266.917 210.247C267.284 209.112 268.549 208.245 268.616 208.211C268.682 208.178 268.782 208.178 268.816 208.278C268.849 208.345 268.849 208.445 268.782 208.512C268.782 208.512 267.55 209.346 267.217 210.38C267.184 210.413 267.117 210.447 267.051 210.447Z" fill="url(#paint53_linear)"/>
<path d="M227.953 207.244C230.451 206.743 236.145 207.244 236.145 207.244L236.379 207.878L236.678 211.014C236.678 211.014 231.217 211.815 228.519 211.748C228.253 211.748 227.986 211.681 227.753 211.614C227.687 211.548 227.587 211.448 227.52 211.381C226.421 210.08 226.821 208.278 227.953 207.244Z" fill="url(#paint54_linear)"/>
<path d="M227.72 207.277C227.786 207.244 227.886 207.244 227.953 207.21C226.821 208.244 226.421 210.046 227.553 211.347C227.62 211.447 227.72 211.514 227.786 211.581C225.788 210.914 225.622 207.811 227.72 207.277Z" fill="url(#paint55_linear)"/>
<path d="M237.811 207.11H236.845C236.312 207.11 235.812 207.344 235.479 207.778C235.113 208.211 234.913 208.745 234.947 209.346C234.947 209.813 235.146 210.247 235.446 210.547C235.746 210.847 236.145 211.014 236.578 211.014L238.077 210.947L237.811 207.11Z" fill="url(#paint56_linear)"/>
<path d="M232.549 210.28C232.615 210.28 232.682 210.247 232.682 210.18C232.948 209.179 233.947 208.212 233.947 208.212C234.014 208.145 234.014 208.045 233.947 207.978C233.881 207.911 233.814 207.911 233.748 207.978C233.714 208.011 232.682 209.012 232.382 210.08C232.349 210.18 232.416 210.247 232.482 210.28C232.515 210.28 232.515 210.28 232.549 210.28Z" fill="url(#paint57_linear)"/>
<path d="M233.848 210.247H233.881C233.947 210.213 234.014 210.146 233.981 210.046C233.681 208.879 232.482 207.911 232.449 207.878C232.382 207.811 232.282 207.844 232.249 207.911C232.216 207.978 232.216 208.078 232.282 208.145C232.282 208.145 233.448 209.079 233.714 210.146C233.748 210.18 233.781 210.247 233.848 210.247Z" fill="url(#paint58_linear)"/>
<path d="M229.918 210.347C229.984 210.347 230.051 210.313 230.051 210.213C230.284 209.212 231.217 208.178 231.217 208.178C231.283 208.111 231.283 208.011 231.217 207.945C231.15 207.878 231.083 207.878 231.017 207.945C230.984 207.978 230.018 209.046 229.751 210.113C229.751 210.247 229.785 210.313 229.918 210.347C229.885 210.347 229.885 210.347 229.918 210.347Z" fill="url(#paint59_linear)"/>
<path d="M231.217 210.247H231.25C231.317 210.213 231.35 210.113 231.35 210.047C231.017 208.912 229.751 208.011 229.718 207.978C229.651 207.945 229.552 207.945 229.518 208.011C229.485 208.078 229.485 208.178 229.552 208.245C229.552 208.245 230.75 209.112 231.083 210.147C231.117 210.18 231.15 210.247 231.217 210.247Z" fill="url(#paint60_linear)"/>
<path d="M271.08 197.702C269.948 195.099 267.217 194.699 264.886 195.9C264.853 195.967 250.033 203.54 236.978 206.877C237.344 208.078 237.544 209.346 237.577 210.614C237.577 210.881 237.577 211.181 237.577 211.448C247.602 210.947 258.458 207.578 267.783 204.642C270.681 203.707 272.346 200.571 271.08 197.702Z" fill="url(#paint61_linear)"/>
<path d="M260.623 210.814C260.59 209.379 260.856 208.011 261.456 206.777C261.489 206.71 261.489 206.676 261.522 206.61C260.79 206.376 259.824 206.076 258.558 205.642C249.3 202.473 242.207 199.27 235.446 195.566C232.815 194.131 229.851 195.099 229.019 198.202C228.253 200.971 229.918 203.34 232.416 204.174C239.875 206.676 236.012 205.976 238.443 206.777C245.004 208.812 253.163 210.647 260.656 211.147C260.623 211.014 260.623 210.914 260.623 210.814Z" fill="url(#paint62_linear)"/>
<g opacity="0.69">
<g opacity="0.54">
<path opacity="0.54" d="M75.4926 60.0736L31.0333 59.8401C29.2016 59.8401 28.0693 61.8086 29.0351 63.3767L29.2682 63.7437C29.7012 64.4444 30.4338 64.8781 31.2664 64.8781H75.4593C76.7581 64.8781 77.7905 63.8438 77.7905 62.5426V62.4091C77.7905 61.1413 76.7581 60.107 75.4926 60.0736Z" fill="white"/>
<path opacity="0.54" d="M81.6869 62.4759V62.5426C81.6869 63.8438 82.7193 64.8781 84.0181 64.8781H93.8757C94.9414 64.8781 95.8739 64.1775 96.1403 63.1432C96.54 61.6751 95.441 60.2071 93.909 60.2071L84.0514 60.1404C82.7526 60.1404 81.6869 61.1747 81.6869 62.4759Z" fill="white"/>
</g>
<g opacity="0.54">
<path opacity="0.54" d="M64.769 68.4813L31 68.2478C29.1683 68.2478 28.036 70.2163 29.0018 71.7844L29.2349 72.1514C29.6679 72.8521 30.4005 73.2858 31.2331 73.2858H64.769C66.0679 73.2858 67.1002 72.2515 67.1002 70.9503V70.8168C67.1002 69.549 66.0679 68.4813 64.769 68.4813Z" fill="white"/>
<path opacity="0.54" d="M70.9967 70.8836V70.9504C70.9967 72.2516 72.0291 73.2859 73.3279 73.2859H83.1855C84.2512 73.2859 85.1837 72.5852 85.4501 71.5509C85.8498 70.0829 84.7508 68.6149 83.2188 68.6149L73.3612 68.5481C72.0624 68.5148 70.9967 69.5824 70.9967 70.8836Z" fill="white"/>
</g>
</g>
<g opacity="0.69">
<g opacity="0.54">
<path opacity="0.54" d="M308.446 153.894L263.587 153.627C261.755 153.627 260.623 155.629 261.556 157.197L261.789 157.564C262.222 158.265 262.988 158.698 263.82 158.698H308.446C309.745 158.698 310.81 157.631 310.81 156.329V156.196C310.777 154.962 309.711 153.927 308.446 153.894Z" fill="white"/>
<path opacity="0.54" d="M314.707 156.329V156.396C314.707 157.697 315.773 158.765 317.071 158.765H327.029C328.095 158.765 329.027 158.031 329.294 157.03C329.693 155.528 328.561 154.06 327.029 154.06L317.071 153.994C315.773 153.96 314.707 154.995 314.707 156.329Z" fill="white"/>
</g>
<g opacity="0.54">
<path opacity="0.54" d="M297.656 162.368L263.587 162.102C261.755 162.102 260.623 164.103 261.556 165.672L261.789 166.039C262.222 166.739 262.988 167.173 263.82 167.173H297.656C298.955 167.173 300.02 166.105 300.02 164.804V164.671C299.987 163.436 298.921 162.368 297.656 162.368Z" fill="white"/>
<path opacity="0.54" d="M303.917 164.804V164.871C303.917 166.172 304.982 167.24 306.281 167.24H316.239C317.305 167.24 318.237 166.506 318.504 165.505C318.903 164.003 317.771 162.535 316.239 162.535L306.281 162.469C304.982 162.435 303.917 163.469 303.917 164.804Z" fill="white"/>
</g>
</g>
<path d="M278.973 130.105C278.973 130.105 276.142 127.736 276.908 125.301C276.908 125.301 277.008 122.965 277.607 124.1C278.207 125.234 278.973 130.105 278.973 130.105Z" fill="url(#paint63_linear)"/>
<path d="M278.174 128.404C278.174 128.404 278.174 141.683 283.968 140.582C287.498 139.914 289.63 125.635 289.63 125.635C289.63 125.635 285.966 117.46 285.567 120.129C282.57 139.614 280.338 124.7 278.174 128.404Z" fill="url(#paint64_linear)"/>
<path d="M293.759 207.144C293.759 207.144 294.192 209.646 294.425 212.081C294.525 213.049 293.759 213.883 292.794 213.916C289.53 214.05 282.536 214.317 280.005 214.217C279.639 214.183 279.373 213.816 279.506 213.449C279.639 213.149 279.839 212.916 280.138 212.782L291.695 207.477L293.759 207.144Z" fill="url(#paint65_linear)"/>
<path d="M294.126 205.676L293.759 208.645C293.759 208.645 291.728 209.579 290.362 208.512L291.195 205.208L294.126 205.676Z" fill="url(#paint66_linear)"/>
<path d="M293.859 149.79C294.026 150.558 294.692 188.526 290.629 205.542C290.562 205.809 290.695 206.109 290.962 206.209C291.595 206.476 292.794 206.843 294.259 206.876C294.725 206.876 295.125 206.61 295.258 206.176C296.424 202.239 301.952 182.454 302.685 163.536C303.484 142.417 302.685 162.802 302.685 162.802L302.218 149.757L293.859 149.79Z" fill="url(#paint67_linear)"/>
<path d="M307.047 208.445C307.047 208.445 307.747 209.713 308.413 213.049C308.546 213.65 308.113 214.217 307.513 214.284C306.448 214.384 304.783 214.517 303.45 214.517C302.851 214.517 302.351 213.983 302.418 213.383C302.551 212.182 303.018 210.18 304.45 208.612L307.047 208.445Z" fill="url(#paint68_linear)"/>
<path d="M307.647 204.608L306.814 209.112C306.814 209.112 306.015 209.712 304.383 209.279L304.783 204.441L307.647 204.608Z" fill="url(#paint69_linear)"/>
<path d="M309.878 150.958C313.175 170.977 309.145 200.471 307.813 206.243C307.747 206.61 307.447 206.877 307.08 206.91C306.481 207.01 305.482 207.077 304.483 206.81C304.15 206.71 303.917 206.41 303.883 206.043C303.717 201.372 304.017 172.745 300.953 161.434C300.786 160.867 300.453 160.367 299.954 160L293.959 155.729L293.493 148.823L309.878 150.958Z" fill="url(#paint70_linear)"/>
<path d="M288.398 113.757C300.486 112.556 309.645 115.625 309.645 115.625C312.609 132.941 310.178 152.893 310.178 152.893C302.485 154.928 293.826 151.659 293.826 151.659C292.56 144.419 287.232 127.736 287.232 127.736C284.801 127.436 282.536 128.671 283.069 125.301C283.569 121.864 286.866 113.89 288.398 113.757Z" fill="url(#paint71_linear)"/>
<path d="M305.848 125.234L309.645 115.592C309.645 115.592 318.936 121.898 320.435 129.905C318.67 130.039 314.707 130.739 311.61 132.308C310.944 128.537 305.848 125.234 305.848 125.234Z" fill="url(#paint72_linear)"/>
<path d="M296.923 134.309C296.923 134.309 307.347 140.215 310.844 135.177C311.576 134.143 311.743 133.108 311.576 132.107C314.707 130.539 317.871 130.072 319.636 129.939C320.102 132.341 319.869 134.91 318.437 137.512C312.276 148.79 295.558 136.878 295.558 136.878L296.923 134.309Z" fill="url(#paint73_linear)"/>
<path d="M298.388 106.15L301.552 115.292C301.619 115.459 301.552 115.625 301.386 115.692C300.52 116.159 297.423 117.56 293.693 115.158C293.293 114.925 293.027 114.491 292.993 114.057L291.961 106.15H298.388Z" fill="url(#paint74_linear)"/>
<path d="M288.964 103.881C288.964 103.881 289.996 111.221 291.894 113.09C293.793 114.958 297.189 112.289 298.955 108.352L296.956 101.079L288.964 103.881Z" fill="url(#paint75_linear)"/>
<path d="M296.79 105.649C296.623 105.683 296.457 105.549 296.457 105.382C296.424 104.882 296.357 103.881 296.024 103.147C296.024 103.147 296.29 102.446 294.192 103.314C292.094 104.181 288.93 105.449 287.265 104.348C285.633 103.247 284.368 98.476 288.831 99.7772C288.997 99.844 289.164 99.7105 289.164 99.5437C289.197 98.7763 289.43 97.0414 291.262 96.6743C292.96 96.3073 293.793 97.1415 294.126 97.6419C294.226 97.7754 294.425 97.8087 294.559 97.6753C295.125 97.0747 296.59 95.8402 298.488 96.9079C300.054 97.8087 300.187 98.8097 300.087 99.4436C300.054 99.6438 300.253 99.8106 300.453 99.7439C300.986 99.577 301.785 99.5437 302.451 100.578C303.384 102.013 301.752 103.014 301.252 103.28C301.186 103.314 301.119 103.414 301.119 103.481C301.053 104.181 300.62 107.184 298.955 108.719C298.821 108.852 298.555 108.786 298.522 108.585L297.656 105.683C297.622 105.549 297.489 105.483 297.356 105.483L296.79 105.649Z" fill="url(#paint76_linear)"/>
<path d="M296.69 106.183C296.69 106.183 297.689 103.347 298.688 104.415C299.687 105.483 298.089 107.385 296.823 107.685L296.69 106.183Z" fill="url(#paint77_linear)"/>
<path d="M291.228 126.269L288.864 126.168L290.962 125.568C290.995 125.568 290.929 125.535 290.929 125.501V125.234C290.929 125.201 290.995 125.201 290.962 125.168C290.929 125.168 290.962 125.134 290.929 125.134L277.741 126.869C277.741 126.869 275.476 120.563 275.043 119.929C274.643 119.295 273.644 119.896 273.644 119.896L276.009 128.738L291.595 127.603V126.602C291.595 126.402 291.395 126.269 291.228 126.269Z" fill="white"/>
<path d="M295.891 139.614L292.227 127.57C292.061 127.036 291.561 126.669 290.995 126.702L276.808 127.57C276.608 127.57 276.409 127.47 276.342 127.269L273.877 120.296C273.778 119.996 273.511 119.796 273.178 119.796C273.045 119.796 272.912 119.863 272.845 119.963C272.779 120.063 272.745 120.23 272.779 120.363L274.777 127.737C274.877 128.17 275.043 128.571 275.21 128.971L280.638 140.782C280.771 141.082 281.071 141.316 281.404 141.316H294.758C295.158 141.316 295.524 141.082 295.757 140.782C295.924 140.415 295.991 139.981 295.891 139.614Z" fill="url(#paint78_linear)"/>
<g opacity="0.9">
<path opacity="0.9" d="M288.83 131.807L286 132.074L285.234 130.005C285.2 129.905 285.001 129.838 284.801 129.838L283.902 129.972C283.735 130.005 283.602 130.105 283.669 130.205L284.434 132.207L282.037 132.441C281.87 132.441 281.804 132.541 281.837 132.641L282.037 133.108C282.07 133.208 282.237 133.275 282.403 133.275L284.801 133.108L286.766 138.179C286.799 138.28 286.966 138.346 287.132 138.346L287.998 138.413C288.198 138.413 288.298 138.346 288.264 138.28L286.333 133.008L289.164 132.808C289.397 132.808 289.53 132.674 289.497 132.574L289.297 132.007C289.263 131.84 289.064 131.774 288.83 131.807Z" fill="#DDDEE0"/>
</g>
<path d="M296.823 136.945C296.823 136.945 297.622 133.675 297.289 132.541C296.956 131.373 296.357 129.905 294.292 130.239C292.227 130.572 289.796 131.44 289.796 131.44C289.796 131.44 289.929 132.941 291.495 132.474L290.529 133.242C290.529 133.242 290.662 134.443 291.994 133.809L291.095 134.81C291.095 134.81 291.661 135.811 292.627 135.177C293.593 134.476 294.059 137.345 296.823 136.945Z" fill="url(#paint79_linear)"/>
<defs>
<linearGradient id="paint0_linear" x1="-0.0090439" y1="113.556" x2="348.08" y2="113.556" gradientUnits="userSpaceOnUse">
<stop stop-color="#B37CFF"/>
<stop offset="1" stop-color="#F895E7"/>
</linearGradient>
<linearGradient id="paint1_linear" x1="342.479" y1="106.774" x2="5.80508" y2="106.774" gradientUnits="userSpaceOnUse">
<stop stop-color="#B37CFF"/>
<stop offset="1" stop-color="#F895E7"/>
</linearGradient>
<linearGradient id="paint2_linear" x1="148.024" y1="201.991" x2="77.8723" y2="59.3405" gradientUnits="userSpaceOnUse">
<stop stop-color="#ED539F"/>
<stop offset="1" stop-color="#A061C2"/>
</linearGradient>
<linearGradient id="paint3_linear" x1="112.282" y1="199.596" x2="43.0935" y2="143.191" gradientUnits="userSpaceOnUse">
<stop stop-color="#A737D5"/>
<stop offset="1" stop-color="#EF497A"/>
</linearGradient>
<linearGradient id="paint4_linear" x1="201.696" y1="200.469" x2="259.617" y2="82.6902" gradientUnits="userSpaceOnUse">
<stop stop-color="#ED539F"/>
<stop offset="1" stop-color="#A061C2"/>
</linearGradient>
<linearGradient id="paint5_linear" x1="230.588" y1="197.836" x2="295.904" y2="144.588" gradientUnits="userSpaceOnUse">
<stop stop-color="#A737D5"/>
<stop offset="1" stop-color="#EF497A"/>
</linearGradient>
<linearGradient id="paint6_linear" x1="125.444" y1="197.139" x2="236.487" y2="197.139" gradientUnits="userSpaceOnUse">
<stop stop-color="#53EAC9"/>
<stop offset="0.9964" stop-color="#45AED8"/>
</linearGradient>
<linearGradient id="paint7_linear" x1="178.219" y1="146.437" x2="184.34" y2="233.26" gradientUnits="userSpaceOnUse">
<stop stop-color="#2B3582"/>
<stop offset="1" stop-color="#150E42"/>
</linearGradient>
<linearGradient id="paint8_linear" x1="175.744" y1="-51.3825" x2="197.174" y2="252.583" gradientUnits="userSpaceOnUse">
<stop stop-color="#2B3582"/>
<stop offset="1" stop-color="#150E42"/>
</linearGradient>
<linearGradient id="paint9_linear" x1="123.946" y1="128.006" x2="138.069" y2="128.006" gradientUnits="userSpaceOnUse">
<stop stop-color="#2B3582"/>
<stop offset="1" stop-color="#150E42"/>
</linearGradient>
<linearGradient id="paint10_linear" x1="187.475" y1="191.738" x2="145.379" y2="208.301" gradientUnits="userSpaceOnUse">
<stop stop-color="#53EAC9"/>
<stop offset="0.9964" stop-color="#45AED8"/>
</linearGradient>
<linearGradient id="paint11_linear" x1="189.48" y1="196.452" x2="147.254" y2="213.067" gradientUnits="userSpaceOnUse">
<stop stop-color="#53EAC9"/>
<stop offset="0.9964" stop-color="#45AED8"/>
</linearGradient>
<linearGradient id="paint12_linear" x1="193.893" y1="208.178" x2="151.749" y2="224.762" gradientUnits="userSpaceOnUse">
<stop stop-color="#53EAC9"/>
<stop offset="0.9964" stop-color="#45AED8"/>
</linearGradient>
<linearGradient id="paint13_linear" x1="52.0136" y1="168.737" x2="122.239" y2="214.177" gradientUnits="userSpaceOnUse">
<stop stop-color="#53D8FF"/>
<stop offset="1" stop-color="#3840F7"/>
</linearGradient>
<linearGradient id="paint14_linear" x1="72.5901" y1="137.53" x2="62.8242" y2="181.139" gradientUnits="userSpaceOnUse">
<stop stop-color="#FDF53F"/>
<stop offset="1" stop-color="#D93C65"/>
</linearGradient>
<linearGradient id="paint15_linear" x1="64.31" y1="174.95" x2="61.7795" y2="216.88" gradientUnits="userSpaceOnUse">
<stop stop-color="#53D8FF"/>
<stop offset="1" stop-color="#3840F7"/>
</linearGradient>
<linearGradient id="paint16_linear" x1="32.59" y1="221.694" x2="29.4975" y2="198.35" gradientUnits="userSpaceOnUse">
<stop stop-color="#53D8FF"/>
<stop offset="1" stop-color="#3840F7"/>
</linearGradient>
<linearGradient id="paint17_linear" x1="42.4009" y1="220.49" x2="39.2989" y2="197.074" gradientUnits="userSpaceOnUse">
<stop stop-color="#53D8FF"/>
<stop offset="1" stop-color="#3840F7"/>
</linearGradient>
<linearGradient id="paint18_linear" x1="98.0874" y1="144.819" x2="103.853" y2="144.819" gradientUnits="userSpaceOnUse">
<stop stop-color="#53D8FF"/>
<stop offset="1" stop-color="#3840F7"/>
</linearGradient>
<linearGradient id="paint19_linear" x1="134.167" y1="157.78" x2="104.785" y2="174.52" gradientUnits="userSpaceOnUse">
<stop stop-color="#F9B776"/>
<stop offset="1" stop-color="#F47960"/>
</linearGradient>
<linearGradient id="paint20_linear" x1="130.33" y1="174.565" x2="117.065" y2="206.61" gradientUnits="userSpaceOnUse">
<stop stop-color="#CB236D"/>
<stop offset="1" stop-color="#4C246D"/>
</linearGradient>
<linearGradient id="paint21_linear" x1="131.327" y1="161.967" x2="231.872" y2="99.1404" gradientUnits="userSpaceOnUse">
<stop stop-color="#F9B776"/>
<stop offset="1" stop-color="#F47960"/>
</linearGradient>
<linearGradient id="paint22_linear" x1="125.202" y1="182.929" x2="105.727" y2="211.61" gradientUnits="userSpaceOnUse">
<stop stop-color="#CB236D"/>
<stop offset="1" stop-color="#4C246D"/>
</linearGradient>
<linearGradient id="paint23_linear" x1="106.133" y1="137.293" x2="82.3997" y2="163.254" gradientUnits="userSpaceOnUse">
<stop stop-color="#7C27DD"/>
<stop offset="1" stop-color="#2B41D9"/>
</linearGradient>
<linearGradient id="paint24_linear" x1="52.2907" y1="104.873" x2="91.5435" y2="123.953" gradientUnits="userSpaceOnUse">
<stop stop-color="#2B3582"/>
<stop offset="1" stop-color="#150E42"/>
</linearGradient>
<linearGradient id="paint25_linear" x1="100.625" y1="125.723" x2="31.3001" y2="192.471" gradientUnits="userSpaceOnUse">
<stop stop-color="#53D8FF"/>
<stop offset="1" stop-color="#3840F7"/>
</linearGradient>
<linearGradient id="paint26_linear" x1="94.6542" y1="134.102" x2="93.9756" y2="123.55" gradientUnits="userSpaceOnUse">
<stop stop-color="#F9B776"/>
<stop offset="1" stop-color="#F47960"/>
</linearGradient>
<linearGradient id="paint27_linear" x1="93.6587" y1="125.174" x2="106.42" y2="100.797" gradientUnits="userSpaceOnUse">
<stop stop-color="#F9B776"/>
<stop offset="1" stop-color="#F47960"/>
</linearGradient>
<linearGradient id="paint28_linear" x1="316.499" y1="-1759.24" x2="311.516" y2="-1716.65" gradientUnits="userSpaceOnUse">
<stop stop-color="#2B3582"/>
<stop offset="1" stop-color="#150E42"/>
</linearGradient>
<linearGradient id="paint29_linear" x1="90.7462" y1="123.649" x2="103.507" y2="99.2722" gradientUnits="userSpaceOnUse">
<stop stop-color="#F9B776"/>
<stop offset="1" stop-color="#F47960"/>
</linearGradient>
<linearGradient id="paint30_linear" x1="117.41" y1="134.294" x2="71.3572" y2="178.634" gradientUnits="userSpaceOnUse">
<stop stop-color="#2B3582"/>
<stop offset="1" stop-color="#150E42"/>
</linearGradient>
<linearGradient id="paint31_linear" x1="112.577" y1="136.895" x2="67.6726" y2="180.13" gradientUnits="userSpaceOnUse">
<stop stop-color="#2B3582"/>
<stop offset="1" stop-color="#150E42"/>
</linearGradient>
<linearGradient id="paint32_linear" x1="117.223" y1="141.14" x2="112.815" y2="145.384" gradientUnits="userSpaceOnUse">
<stop stop-color="#2B3582"/>
<stop offset="1" stop-color="#150E42"/>
</linearGradient>
<linearGradient id="paint33_linear" x1="82.7519" y1="148.104" x2="53.5095" y2="148.104" gradientUnits="userSpaceOnUse">
<stop stop-color="#F9B776"/>
<stop offset="1" stop-color="#F47960"/>
</linearGradient>
<linearGradient id="paint34_linear" x1="263.169" y1="143.796" x2="251.417" y2="160.467" gradientUnits="userSpaceOnUse">
<stop stop-color="#CB236D"/>
<stop offset="1" stop-color="#4C246D"/>
</linearGradient>
<linearGradient id="paint35_linear" x1="250.055" y1="171.907" x2="252.896" y2="257.68" gradientUnits="userSpaceOnUse">
<stop stop-color="#FDF53F"/>
<stop offset="1" stop-color="#D93C65"/>
</linearGradient>
<linearGradient id="paint36_linear" x1="233.676" y1="179.902" x2="252.487" y2="225.259" gradientUnits="userSpaceOnUse">
<stop stop-color="#F9B776"/>
<stop offset="1" stop-color="#F47960"/>
</linearGradient>
<linearGradient id="paint37_linear" x1="266.919" y1="179.805" x2="248.108" y2="225.162" gradientUnits="userSpaceOnUse">
<stop stop-color="#F9B776"/>
<stop offset="1" stop-color="#F47960"/>
</linearGradient>
<linearGradient id="paint38_linear" x1="250.137" y1="183.649" x2="249.887" y2="161.9" gradientUnits="userSpaceOnUse">
<stop stop-color="#F9B776"/>
<stop offset="1" stop-color="#F47960"/>
</linearGradient>
<linearGradient id="paint39_linear" x1="249.414" y1="171.576" x2="253.232" y2="153.025" gradientUnits="userSpaceOnUse">
<stop stop-color="#F9B776"/>
<stop offset="1" stop-color="#F47960"/>
</linearGradient>
<linearGradient id="paint40_linear" x1="263.648" y1="141.256" x2="250.424" y2="160.014" gradientUnits="userSpaceOnUse">
<stop stop-color="#CB236D"/>
<stop offset="1" stop-color="#4C246D"/>
</linearGradient>
<linearGradient id="paint41_linear" x1="246.892" y1="174.041" x2="244.155" y2="144.486" gradientUnits="userSpaceOnUse">
<stop stop-color="#F9B776"/>
<stop offset="1" stop-color="#F47960"/>
</linearGradient>
<linearGradient id="paint42_linear" x1="243.036" y1="181.902" x2="241.86" y2="229.42" gradientUnits="userSpaceOnUse">
<stop stop-color="#2B3582"/>
<stop offset="1" stop-color="#150E42"/>
</linearGradient>
<linearGradient id="paint43_linear" x1="256.913" y1="181.902" x2="258.089" y2="229.42" gradientUnits="userSpaceOnUse">
<stop stop-color="#2B3582"/>
<stop offset="1" stop-color="#150E42"/>
</linearGradient>
<linearGradient id="paint44_linear" x1="241.906" y1="218.973" x2="250.047" y2="193.612" gradientUnits="userSpaceOnUse">
<stop stop-color="#2B3582"/>
<stop offset="1" stop-color="#150E42"/>
</linearGradient>
<linearGradient id="paint45_linear" x1="237.246" y1="193.719" x2="235.511" y2="189.302" gradientUnits="userSpaceOnUse">
<stop stop-color="#F9B776"/>
<stop offset="1" stop-color="#F47960"/>
</linearGradient>
<linearGradient id="paint46_linear" x1="262.704" y1="193.719" x2="264.439" y2="189.302" gradientUnits="userSpaceOnUse">
<stop stop-color="#F9B776"/>
<stop offset="1" stop-color="#F47960"/>
</linearGradient>
<linearGradient id="paint47_linear" x1="261.587" y1="209.566" x2="271.835" y2="209.644" gradientUnits="userSpaceOnUse">
<stop stop-color="#2C759E"/>
<stop offset="1" stop-color="#051042"/>
</linearGradient>
<linearGradient id="paint48_linear" x1="273.092" y1="209.782" x2="264.096" y2="209.605" gradientUnits="userSpaceOnUse">
<stop stop-color="#53EAC9"/>
<stop offset="0.9964" stop-color="#45AED8"/>
</linearGradient>
<linearGradient id="paint49_linear" x1="268.351" y1="191.055" x2="257.499" y2="220.395" gradientUnits="userSpaceOnUse">
<stop stop-color="#F9B776"/>
<stop offset="1" stop-color="#F47960"/>
</linearGradient>
<linearGradient id="paint50_linear" x1="273.117" y1="209.396" x2="264.119" y2="209.219" gradientUnits="userSpaceOnUse">
<stop stop-color="#53EAC9"/>
<stop offset="0.9964" stop-color="#45AED8"/>
</linearGradient>
<linearGradient id="paint51_linear" x1="273.081" y1="209.335" x2="264.125" y2="209.158" gradientUnits="userSpaceOnUse">
<stop stop-color="#53EAC9"/>
<stop offset="0.9964" stop-color="#45AED8"/>
</linearGradient>
<linearGradient id="paint52_linear" x1="273.131" y1="209.727" x2="264.092" y2="209.109" gradientUnits="userSpaceOnUse">
<stop stop-color="#53EAC9"/>
<stop offset="0.9964" stop-color="#45AED8"/>
</linearGradient>
<linearGradient id="paint53_linear" x1="273.049" y1="209.661" x2="264.157" y2="209.053" gradientUnits="userSpaceOnUse">
<stop stop-color="#53EAC9"/>
<stop offset="0.9964" stop-color="#45AED8"/>
</linearGradient>
<linearGradient id="paint54_linear" x1="236.718" y1="209.515" x2="226.468" y2="209.31" gradientUnits="userSpaceOnUse">
<stop stop-color="#2C759E"/>
<stop offset="1" stop-color="#051042"/>
</linearGradient>
<linearGradient id="paint55_linear" x1="225.21" y1="209.404" x2="234.179" y2="209.475" gradientUnits="userSpaceOnUse">
<stop stop-color="#53EAC9"/>
<stop offset="0.9964" stop-color="#45AED8"/>
</linearGradient>
<linearGradient id="paint56_linear" x1="246.679" y1="182.209" x2="235.822" y2="211.565" gradientUnits="userSpaceOnUse">
<stop stop-color="#F9B776"/>
<stop offset="1" stop-color="#F47960"/>
</linearGradient>
<linearGradient id="paint57_linear" x1="225.22" y1="209.034" x2="234.188" y2="209.106" gradientUnits="userSpaceOnUse">
<stop stop-color="#53EAC9"/>
<stop offset="0.9964" stop-color="#45AED8"/>
</linearGradient>
<linearGradient id="paint58_linear" x1="225.205" y1="208.973" x2="234.19" y2="209.045" gradientUnits="userSpaceOnUse">
<stop stop-color="#53EAC9"/>
<stop offset="0.9964" stop-color="#45AED8"/>
</linearGradient>
<linearGradient id="paint59_linear" x1="225.189" y1="209.356" x2="234.208" y2="208.988" gradientUnits="userSpaceOnUse">
<stop stop-color="#53EAC9"/>
<stop offset="0.9964" stop-color="#45AED8"/>
</linearGradient>
<linearGradient id="paint60_linear" x1="225.239" y1="209.293" x2="234.169" y2="208.929" gradientUnits="userSpaceOnUse">
<stop stop-color="#53EAC9"/>
<stop offset="0.9964" stop-color="#45AED8"/>
</linearGradient>
<linearGradient id="paint61_linear" x1="272.936" y1="190.488" x2="244.779" y2="211.601" gradientUnits="userSpaceOnUse">
<stop stop-color="#7C27DD"/>
<stop offset="1" stop-color="#2B41D9"/>
</linearGradient>
<linearGradient id="paint62_linear" x1="247.507" y1="209.469" x2="240.114" y2="190.65" gradientUnits="userSpaceOnUse">
<stop stop-color="#7C27DD"/>
<stop offset="1" stop-color="#2B41D9"/>
</linearGradient>
<linearGradient id="paint63_linear" x1="276.767" y1="126.95" x2="278.966" y2="126.95" gradientUnits="userSpaceOnUse">
<stop stop-color="#F9B776"/>
<stop offset="1" stop-color="#F47960"/>
</linearGradient>
<linearGradient id="paint64_linear" x1="289.616" y1="130.128" x2="278.165" y2="130.128" gradientUnits="userSpaceOnUse">
<stop stop-color="#F9B776"/>
<stop offset="1" stop-color="#F47960"/>
</linearGradient>
<linearGradient id="paint65_linear" x1="287.2" y1="185.525" x2="286.897" y2="218.782" gradientUnits="userSpaceOnUse">
<stop stop-color="#CB236D"/>
<stop offset="1" stop-color="#4C246D"/>
</linearGradient>
<linearGradient id="paint66_linear" x1="294.114" y1="207.134" x2="290.355" y2="207.134" gradientUnits="userSpaceOnUse">
<stop stop-color="#F9B776"/>
<stop offset="1" stop-color="#F47960"/>
</linearGradient>
<linearGradient id="paint67_linear" x1="298.362" y1="221.464" x2="295.786" y2="152.491" gradientUnits="userSpaceOnUse">
<stop stop-color="#2B3582"/>
<stop offset="1" stop-color="#150E42"/>
</linearGradient>
<linearGradient id="paint68_linear" x1="305.68" y1="185.693" x2="305.377" y2="218.951" gradientUnits="userSpaceOnUse">
<stop stop-color="#CB236D"/>
<stop offset="1" stop-color="#4C246D"/>
</linearGradient>
<linearGradient id="paint69_linear" x1="307.663" y1="206.941" x2="304.417" y2="206.941" gradientUnits="userSpaceOnUse">
<stop stop-color="#F9B776"/>
<stop offset="1" stop-color="#F47960"/>
</linearGradient>
<linearGradient id="paint70_linear" x1="304.707" y1="221.228" x2="302.132" y2="152.254" gradientUnits="userSpaceOnUse">
<stop stop-color="#2B3582"/>
<stop offset="1" stop-color="#150E42"/>
</linearGradient>
<linearGradient id="paint71_linear" x1="295.772" y1="119.675" x2="315.347" y2="171.077" gradientUnits="userSpaceOnUse">
<stop stop-color="#53EAC9"/>
<stop offset="0.9964" stop-color="#45AED8"/>
</linearGradient>
<linearGradient id="paint72_linear" x1="308.424" y1="114.821" x2="328.017" y2="166.27" gradientUnits="userSpaceOnUse">
<stop stop-color="#53EAC9"/>
<stop offset="0.9964" stop-color="#45AED8"/>
</linearGradient>
<linearGradient id="paint73_linear" x1="319.864" y1="136.132" x2="295.559" y2="136.132" gradientUnits="userSpaceOnUse">
<stop stop-color="#F9B776"/>
<stop offset="1" stop-color="#F47960"/>
</linearGradient>
<linearGradient id="paint74_linear" x1="301.568" y1="111.337" x2="291.959" y2="111.337" gradientUnits="userSpaceOnUse">
<stop stop-color="#F9B776"/>
<stop offset="1" stop-color="#F47960"/>
</linearGradient>
<linearGradient id="paint75_linear" x1="291.881" y1="111.072" x2="296.673" y2="99.6405" gradientUnits="userSpaceOnUse">
<stop stop-color="#F9B776"/>
<stop offset="1" stop-color="#F47960"/>
</linearGradient>
<linearGradient id="paint76_linear" x1="297.203" y1="90.8358" x2="292.456" y2="107.6" gradientUnits="userSpaceOnUse">
<stop stop-color="#2B3582"/>
<stop offset="1" stop-color="#150E42"/>
</linearGradient>
<linearGradient id="paint77_linear" x1="295.538" y1="111.391" x2="299.849" y2="101.106" gradientUnits="userSpaceOnUse">
<stop stop-color="#F9B776"/>
<stop offset="1" stop-color="#F47960"/>
</linearGradient>
<linearGradient id="paint78_linear" x1="289.429" y1="118.211" x2="281.188" y2="137.511" gradientUnits="userSpaceOnUse">
<stop stop-color="#2B3582"/>
<stop offset="1" stop-color="#150E42"/>
</linearGradient>
<linearGradient id="paint79_linear" x1="297.364" y1="133.579" x2="289.792" y2="133.579" gradientUnits="userSpaceOnUse">
<stop stop-color="#F9B776"/>
<stop offset="1" stop-color="#F47960"/>
</linearGradient>
</defs>
</svg>
