<svg width="15" height="29" viewBox="0 0 15 29" fill="none" xmlns="http://www.w3.org/2000/svg">
<path d="M4.88914 9.33455C5.02217 10.5884 5.1552 10.8671 6.35254 11.2851C7.81596 11.8424 9.27938 12.2603 10.7428 12.8176C13.2705 13.7928 15 16.4399 15 19.2263C15 22.4307 13.9357 24.9385 11.1419 26.4711C10.8758 26.6104 10.7428 26.6104 10.4767 26.7497C10.2106 27.0284 9.81154 27.1676 9.54546 27.5856C8.88027 28.5609 8.08203 29.1181 7.01773 28.9788C5.95343 28.8395 5.28825 28.2822 4.88914 27.1677C4.7561 26.889 4.62305 26.6104 4.35697 26.6104C2.62748 25.9138 1.43016 24.5205 0.631931 22.7094C-0.0332582 21.3161 0.365851 19.7836 1.56319 19.087C2.76053 18.3904 4.35698 18.9477 5.15521 20.2016C5.95344 21.7341 7.15077 22.1521 8.74723 21.7342C9.67849 21.4555 9.94457 20.7589 10.0776 19.9229C10.2106 19.2263 10.3437 18.2511 9.54546 17.8331C8.48116 17.2758 7.28381 16.8579 6.08647 16.5793C3.82483 15.8827 1.69623 14.768 0.631931 12.2603C-1.09756 8.49858 0.897998 3.48308 4.49002 2.22919C4.75609 2.08987 5.02217 1.81123 5.15521 1.53259C5.68736 0.557336 6.48559 0 7.54989 0C8.6142 0 9.27938 0.557336 9.81153 1.53259C9.94457 1.81123 10.2107 2.08987 10.6098 2.22919C12.6053 3.20444 14.0688 4.59764 14.6009 6.82678C15 8.35931 14.3348 9.61319 13.0044 10.0312C11.6741 10.4491 10.3437 9.89186 9.81153 8.49865C9.14634 6.8268 6.75167 6.40883 5.55433 7.80204C5.02217 8.35933 5.02217 8.91658 4.88914 9.33455Z" fill="#FAAE42"/>
</svg>
