<svg width="13" height="13" viewBox="0 0 13 13" fill="none" xmlns="http://www.w3.org/2000/svg">
<path opacity="0.4" d="M12.1956 10.9946H8.29816C7.8879 10.9946 7.6144 11.3365 7.6144 11.6784C7.6144 12.0886 7.8879 12.3621 8.29816 12.3621H12.1956C12.6058 12.3621 12.8794 12.0203 12.8794 11.6784C12.8794 11.2681 12.6058 10.9946 12.1956 10.9946Z" fill="white"/>
<path d="M5.56318 2.72096L9.25549 5.72952C9.32386 5.7979 9.39224 5.93463 9.32387 6.003L4.94779 11.6782C4.67429 12.0201 4.26404 12.2252 3.85378 12.2252H1.46062C1.32387 12.2252 1.18711 12.1569 1.18711 12.0201L0.64011 9.69533C0.571734 9.28507 0.640106 8.80643 0.91361 8.46454L5.28967 2.72096C5.35805 2.65258 5.49481 2.65258 5.56318 2.72096Z" fill="white"/>
<path opacity="0.4" d="M10.8965 3.95163L10.2127 4.84051C10.1443 4.90888 10.0076 4.97726 9.93918 4.84051C9.05029 4.15675 6.86226 2.37899 6.24688 1.83199C6.1785 1.76361 6.11012 1.62684 6.24688 1.55846L6.93064 0.737943C7.54602 -0.0141937 8.64003 -0.150921 9.39217 0.464464C9.46055 0.464464 9.46055 0.532823 9.52893 0.532823L10.5546 1.35334C10.9648 1.62685 11.2383 2.10547 11.3067 2.58411C11.3751 2.99436 11.2383 3.54137 10.8965 3.95163Z" fill="white"/>
</svg>
