<svg width="30" height="30" viewBox="0 0 30 30" fill="none" xmlns="http://www.w3.org/2000/svg">
<path d="M14.9345 28.619C22.4923 28.619 28.619 22.4923 28.619 14.9345C28.619 7.37677 22.4923 1.25 14.9345 1.25C7.37678 1.25 1.25 7.37677 1.25 14.9345C1.25 22.4923 7.37678 28.619 14.9345 28.619Z" fill="url(#paint0_linear)"/>
<path d="M15 30C6.74642 30 0 23.2536 0 15C0 6.74643 6.74642 0 15 0C23.2536 0 30 6.74643 30 15C29.9282 23.2536 23.2536 30 15 30Z" fill="url(#paint1_linear)"/>
<path d="M15 29.375C7.09032 29.375 0.625 22.9097 0.625 15C0.625 7.09032 7.09032 0.625 15 0.625C22.9097 0.625 29.375 7.09032 29.375 15C29.3062 22.9097 22.9097 29.375 15 29.375Z" fill="#02CDCF"/>
<path d="M19.375 14.0859H10.5594V15.8491H19.375V14.0859Z" fill="white"/>
<defs>
<linearGradient id="paint0_linear" x1="1.27671" y1="14.962" x2="28.5941" y2="14.962" gradientUnits="userSpaceOnUse">
<stop stop-color="#E52D27"/>
<stop offset="1" stop-color="#B31217"/>
</linearGradient>
<linearGradient id="paint1_linear" x1="-0.00739234" y1="14.9934" x2="29.936" y2="14.9934" gradientUnits="userSpaceOnUse">
<stop stop-color="white"/>
</linearGradient>
</defs>
</svg>
