<svg width="56" height="53" viewBox="0 0 56 53" fill="none" xmlns="http://www.w3.org/2000/svg">
<g filter="url(#filter0_d)">
<circle cx="28" cy="24" r="24" fill="#FBAE42"/>
<path d="M29.4791 31.3897C27.1942 31.3897 24.9093 31.3897 22.6107 31.3897C21.7624 31.3897 20.9415 31.2392 20.2164 30.733C19.2039 30.0352 18.684 29.0638 18.5198 27.8597C18.123 25.1097 17.7126 22.3459 17.3158 19.5958C17.0422 17.6803 16.7548 15.7785 16.4812 13.8631C16.4265 13.4526 16.3444 13.3842 15.9339 13.3842C15.0856 13.3842 14.2237 13.3979 13.3754 13.3842C12.3766 13.3568 11.7199 12.4265 12.0482 11.5098C12.2535 10.9351 12.705 10.5931 13.3207 10.5794C14.3605 10.552 15.414 10.4836 16.4538 10.6068C17.9862 10.7846 18.9987 11.7697 19.2586 13.2884C19.3544 13.8631 19.4365 14.4377 19.5186 15.0124C19.6007 15.5323 19.587 15.5323 20.1343 15.5323C27.1121 15.5323 34.0899 15.5323 41.0677 15.5323C41.875 15.5323 42.3949 15.9017 42.5864 16.5858C42.6549 16.8184 42.6412 17.0647 42.6001 17.2972C41.8613 20.9914 41.1225 24.6992 40.37 28.3933C40.0416 29.9941 38.5776 31.2666 36.9495 31.3487C34.6919 31.4718 32.4207 31.376 30.1632 31.4034C29.9169 31.3897 29.698 31.3897 29.4791 31.3897Z" fill="white"/>
<path d="M31.5584 36.1779C31.5584 34.1804 33.1592 32.5933 35.1705 32.5933C37.168 32.5933 38.7825 34.2214 38.7825 36.219C38.7825 38.1755 37.1543 39.79 35.1841 39.8037C33.1866 39.8037 31.5584 38.1755 31.5584 36.1779Z" fill="white"/>
<path d="M19.409 36.178C19.409 34.2215 21.0098 32.5933 22.9526 32.607C24.8681 32.607 26.4552 34.2352 26.4689 36.1917C26.4689 38.1345 24.8407 39.7627 22.9116 39.7627C20.9551 39.749 19.409 38.1619 19.409 36.178Z" fill="white"/>
</g>
<defs>
<filter id="filter0_d" x="0" y="0" width="56" height="56" filterUnits="userSpaceOnUse" color-interpolation-filters="sRGB">
<feFlood flood-opacity="0" result="BackgroundImageFix"/>
<feColorMatrix in="SourceAlpha" type="matrix" values="0 0 0 0 0 0 0 0 0 0 0 0 0 0 0 0 0 0 127 0"/>
<feOffset dy="4"/>
<feGaussianBlur stdDeviation="2"/>
<feColorMatrix type="matrix" values="0 0 0 0 0 0 0 0 0 0 0 0 0 0 0 0 0 0 0.25 0"/>
<feBlend mode="normal" in2="BackgroundImageFix" result="effect1_dropShadow"/>
<feBlend mode="normal" in="SourceGraphic" in2="effect1_dropShadow" result="shape"/>
</filter>
</defs>
</svg>
