<svg width="13" height="13" viewBox="0 0 13 13" fill="none" xmlns="http://www.w3.org/2000/svg">
<rect width="13" height="13" rx="4" fill="#F7C851"/>
<path opacity="0.4" d="M10.5271 9.09619H7.99376C7.72709 9.09619 7.54932 9.31841 7.54932 9.54064C7.54932 9.8073 7.72709 9.98508 7.99376 9.98508H10.5271C10.7938 9.98508 10.9715 9.76286 10.9715 9.54064C10.9715 9.27397 10.7938 9.09619 10.5271 9.09619Z" fill="white"/>
<path d="M6.21603 3.71839L8.61603 5.67396C8.66047 5.7184 8.70492 5.80728 8.66047 5.85172L5.81602 9.54062C5.63825 9.76284 5.37158 9.89617 5.10492 9.89617H3.54936C3.46047 9.89617 3.37158 9.85173 3.37158 9.76284L3.01603 8.25173C2.97159 7.98506 3.01603 7.67394 3.19381 7.45172L6.03825 3.71839C6.08269 3.67395 6.17158 3.67395 6.21603 3.71839Z" fill="white"/>
<path opacity="0.4" d="M9.68267 4.51857L9.23823 5.09634C9.19379 5.14079 9.10489 5.18523 9.06045 5.09634C8.48267 4.6519 7.06045 3.49636 6.66045 3.1408C6.61601 3.09636 6.57156 3.00746 6.66045 2.96301L7.1049 2.42968C7.5049 1.94079 8.216 1.85191 8.70489 2.25191C8.74934 2.25191 8.74934 2.29635 8.79379 2.29635L9.46045 2.82969C9.72712 3.00746 9.90489 3.31857 9.94934 3.62968C9.99378 3.89635 9.9049 4.2519 9.68267 4.51857Z" fill="white"/>
</svg>
