<svg width="31" height="39" viewBox="0 0 31 39" fill="none" xmlns="http://www.w3.org/2000/svg">
<rect x="12" y="11" width="7" height="28" rx="1" fill="#F6C33E"/>
<rect x="27" y="16" width="7" height="23" rx="1" transform="rotate(90 27 16)" fill="#F6C33E"/>
<path d="M9.84456 6.75072C9.70654 6.75072 9.56852 6.65871 9.52251 6.52069L8.46436 2.61012C8.41835 2.42609 8.51037 2.24206 8.69439 2.19605C8.87842 2.15004 9.06245 2.24206 9.10845 2.42608L10.1666 6.33665C10.2126 6.52068 10.1206 6.70472 9.93657 6.75072C9.89057 6.70472 9.84456 6.75072 9.84456 6.75072Z" fill="#F6C33E" stroke="#F6C33E" stroke-width="0.75" stroke-miterlimit="10"/>
<path d="M13.3411 5.69269C13.1571 5.69269 13.019 5.55466 13.019 5.37063V1.32205C13.019 1.13803 13.1571 1 13.3411 1C13.5251 1 13.6631 1.13803 13.6631 1.32205V5.37063C13.6631 5.55466 13.5251 5.69269 13.3411 5.69269Z" fill="#F6C33E" stroke="#F6C33E" stroke-width="0.75" stroke-miterlimit="10"/>
<path d="M16.9759 5.60058C16.9299 5.60058 16.9299 5.60058 16.8838 5.60058C16.6998 5.55457 16.6078 5.37053 16.6538 5.1865L17.712 1.27594C17.758 1.09191 17.942 0.999897 18.126 1.0459C18.3101 1.09191 18.4021 1.27595 18.3561 1.45998L17.2979 5.37054C17.2519 5.50856 17.1139 5.60058 16.9759 5.60058Z" fill="#F6C33E" stroke="#F6C33E" stroke-width="0.75" stroke-miterlimit="10"/>
<path d="M20.5184 6.47475C20.4724 6.47475 20.4264 6.47477 20.3344 6.42876C20.1504 6.33675 20.1044 6.15272 20.1964 5.96869L22.2207 2.4722C22.3127 2.33418 22.4967 2.24214 22.6808 2.33415C22.8188 2.42617 22.9108 2.61019 22.8188 2.79422L20.7945 6.29074C20.7485 6.42876 20.6105 6.47475 20.5184 6.47475Z" fill="#F6C33E" stroke="#F6C33E" stroke-width="0.75" stroke-miterlimit="10"/>
<path d="M23.6929 8.22311C23.6009 8.22311 23.5089 8.1771 23.4629 8.13109C23.3249 7.99307 23.3249 7.80904 23.4629 7.67102L26.3153 4.8186C26.4533 4.68058 26.6374 4.68058 26.7754 4.8186C26.9134 4.95662 26.9134 5.14065 26.7754 5.27867L23.923 8.13109C23.877 8.1771 23.7849 8.22311 23.6929 8.22311Z" fill="#F6C33E" stroke="#F6C33E" stroke-width="0.75" stroke-miterlimit="10"/>
<path d="M26.3611 10.7535C26.2231 10.7535 26.1311 10.7075 26.0851 10.5694C25.9931 10.4314 26.0391 10.2014 26.2231 10.1094L29.7196 8.08506C29.8576 7.99305 30.0876 8.03908 30.1797 8.22311C30.2717 8.36113 30.2257 8.59116 30.0416 8.68317L26.5451 10.7074C26.4531 10.7074 26.4071 10.7535 26.3611 10.7535Z" fill="#F6C33E" stroke="#F6C33E" stroke-width="0.75" stroke-miterlimit="10"/>
<path d="M4.18596 11.2595C4.09395 11.2595 4.00194 11.2135 3.95593 11.1675L1.10352 8.31505C0.965495 8.17703 0.965495 7.993 1.10352 7.85498C1.24154 7.71696 1.42556 7.71696 1.56358 7.85498L4.416 10.7074C4.55402 10.8454 4.55402 11.0294 4.416 11.1675C4.36999 11.2595 4.27798 11.2595 4.18596 11.2595Z" fill="#F6C33E" stroke="#F6C33E" stroke-width="0.75" stroke-miterlimit="10"/>
<path d="M6.71646 8.63705C6.57844 8.63705 6.48642 8.59106 6.44042 8.45304L4.41612 4.95651C4.32411 4.81849 4.37012 4.58846 4.55414 4.49645C4.69216 4.40443 4.9222 4.45044 5.01421 4.63446L7.0385 8.13099C7.13052 8.26901 7.08451 8.49904 6.90048 8.59105C6.80847 8.63706 6.76246 8.63705 6.71646 8.63705Z" fill="#F6C33E" stroke="#F6C33E" stroke-width="0.75" stroke-miterlimit="10"/>
</svg>
