<svg width="27" height="27" viewBox="0 0 27 27" fill="none" xmlns="http://www.w3.org/2000/svg">
<path d="M2.4998 0.299988C1.29744 0.299988 0.299805 1.29762 0.299805 2.49999V14.6C0.299805 15.8024 1.29744 16.8 2.4998 16.8H4.6998H10.1998V21.2H5.7998V17.9L4.6998 16.8L3.5998 17.9V21.2L5.7998 23.4H10.1998V24.5C10.1998 25.7155 11.1843 26.7 12.3998 26.7H24.4998C25.7153 26.7 26.6998 25.7155 26.6998 24.5V12.4C26.6998 11.1845 25.7153 10.2 24.4998 10.2H16.7998V2.49999C16.7998 1.29762 15.8022 0.299988 14.5998 0.299988H2.4998ZM2.4998 2.49999H14.5998V10.2H12.3998C11.1843 10.2 10.1998 11.1845 10.1998 12.4V14.6H2.4998V2.49999ZM10.1998 12.4V11.3C9.93063 11.3 9.67329 11.2667 9.41992 11.2269C9.44617 11.2079 9.47576 11.1928 9.50156 11.1732C10.6799 10.2777 11.2998 8.8261 11.2998 6.89999H12.3998V5.79999H9.0998V4.14999H7.9998V5.79999H4.6998V6.89999H10.1998C10.1998 8.60388 9.71975 9.62682 8.83555 10.2988C8.59378 10.4826 8.3057 10.6366 7.98906 10.7693C7.6339 10.5937 7.30031 10.3948 7.02012 10.1592C6.23133 9.49569 5.7998 8.65092 5.7998 7.99999H4.6998C4.6998 9.09696 5.33085 10.1768 6.31113 11.0014C6.37604 11.056 6.45565 11.0994 6.52383 11.1517C5.97225 11.2399 5.37858 11.3 4.6998 11.3V12.4C5.92666 12.4 7.01873 12.2731 7.95254 11.966C8.63324 12.235 9.38798 12.4 10.1998 12.4ZM17.2424 14.5742H19.6529L22.259 22.3258H20.1105L19.6271 20.6221H17.0963L16.5979 22.3258H14.6428L17.2424 14.5742ZM18.3209 16.3209L17.4723 19.2041H19.2555L18.424 16.3209H18.3209Z" fill="#F6C33E"/>
</svg>
